<?xml version="1.0" encoding="UTF-8"?>
<svg width="1238px" height="1116px" viewBox="0 0 1238 1116" version="1.1" xmlns="http://www.w3.org/2000/svg" xmlns:xlink="http://www.w3.org/1999/xlink">
    <!-- Generator: Sketch 60.1 (88133) - https://sketch.com -->
    <title>编组 26</title>
    <desc>Created with Sketch.</desc>
    <defs>
        <linearGradient x1="50%" y1="0%" x2="50%" y2="86.0706991%" id="linearGradient-1">
            <stop stop-color="#D2DEFB" offset="0%"></stop>
            <stop stop-color="#F3F4F8" offset="100%"></stop>
        </linearGradient>
        <linearGradient x1="50%" y1="0%" x2="50%" y2="43.9096274%" id="linearGradient-2">
            <stop stop-color="#E5ECF8" offset="0%"></stop>
            <stop stop-color="#F3F4F6" offset="100%"></stop>
        </linearGradient>
        <linearGradient x1="50%" y1="0%" x2="50%" y2="86.0706991%" id="linearGradient-3">
            <stop stop-color="#D8E3FB" offset="0%"></stop>
            <stop stop-color="#F3F4F8" offset="100%"></stop>
        </linearGradient>
        <linearGradient x1="50%" y1="0%" x2="50%" y2="43.9096274%" id="linearGradient-4">
            <stop stop-color="#E5ECF8" offset="0%"></stop>
            <stop stop-color="#F3F4F6" offset="100%"></stop>
        </linearGradient>
        <linearGradient x1="50%" y1="0%" x2="50%" y2="100%" id="linearGradient-5">
            <stop stop-color="#D4E0FC" offset="0%"></stop>
            <stop stop-color="#E0E8FE" offset="100%"></stop>
        </linearGradient>
        <linearGradient x1="50%" y1="0%" x2="50%" y2="100%" id="linearGradient-6">
            <stop stop-color="#D4E0FC" offset="0%"></stop>
            <stop stop-color="#E0E8FE" offset="100%"></stop>
        </linearGradient>
        <linearGradient x1="50%" y1="0%" x2="50%" y2="86.0706991%" id="linearGradient-7">
            <stop stop-color="#D2DEFB" offset="0%"></stop>
            <stop stop-color="#F3F4F8" offset="100%"></stop>
        </linearGradient>
        <linearGradient x1="50%" y1="0%" x2="50%" y2="43.9096274%" id="linearGradient-8">
            <stop stop-color="#E5ECF8" offset="0%"></stop>
            <stop stop-color="#F3F4F6" offset="100%"></stop>
        </linearGradient>
        <linearGradient x1="50%" y1="0%" x2="50%" y2="88.0272486%" id="linearGradient-9">
            <stop stop-color="#D0DDFC" offset="0%"></stop>
            <stop stop-color="#F3F4F8" offset="100%"></stop>
        </linearGradient>
        <linearGradient x1="50%" y1="0%" x2="50%" y2="100%" id="linearGradient-10">
            <stop stop-color="#E8EDF8" offset="0%"></stop>
            <stop stop-color="#F4F5F6" offset="100%"></stop>
        </linearGradient>
        <linearGradient x1="50%" y1="0%" x2="50%" y2="88.0272486%" id="linearGradient-11">
            <stop stop-color="#D0DDFC" offset="0%"></stop>
            <stop stop-color="#F3F4F8" offset="100%"></stop>
        </linearGradient>
        <linearGradient x1="50%" y1="0%" x2="50%" y2="100%" id="linearGradient-12">
            <stop stop-color="#E8EDF8" offset="0%"></stop>
            <stop stop-color="#F4F5F6" offset="100%"></stop>
        </linearGradient>
        <linearGradient x1="50%" y1="0%" x2="50%" y2="100%" id="linearGradient-13">
            <stop stop-color="#D1DFFC" offset="0%"></stop>
            <stop stop-color="#EAEFF9" offset="100%"></stop>
        </linearGradient>
        <linearGradient x1="50%" y1="0%" x2="50%" y2="100%" id="linearGradient-14">
            <stop stop-color="#E6EDF8" offset="0%"></stop>
            <stop stop-color="#F1F2F6" offset="100%"></stop>
        </linearGradient>
        <linearGradient x1="51.503123%" y1="45.4855527%" x2="50%" y2="54.8995405%" id="linearGradient-15">
            <stop stop-color="#DBE7FC" offset="0%"></stop>
            <stop stop-color="#F3F5F6" offset="100%"></stop>
        </linearGradient>
        <filter x="-3.6%" y="-24.0%" width="107.1%" height="148.0%" filterUnits="objectBoundingBox" id="filter-16">
            <feGaussianBlur stdDeviation="4" in="SourceGraphic"></feGaussianBlur>
        </filter>
        <filter x="-4.5%" y="-34.6%" width="109.0%" height="169.2%" filterUnits="objectBoundingBox" id="filter-17">
            <feGaussianBlur stdDeviation="3" in="SourceGraphic"></feGaussianBlur>
        </filter>
    </defs>
    <g id="页面-1" stroke="none" stroke-width="1" fill="none" fill-rule="evenodd">
        <g id="画板" transform="translate(-5918.000000, -1758.000000)">
            <g id="编组-26" transform="translate(5918.000000, 1758.000000)">
                <g id="编组-20" transform="translate(0.000000, 0.000000)">
                    <rect id="矩形备份-27" fill="none" opacity="0.846586682" x="0" y="1.13686838e-13" width="1238" height="1116"></rect>
                    <text id="抱歉，您无权访问该页面～" font-family="PingFangSC-Medium, PingFang SC" font-size="48" font-weight="400" fill="#5480E5">
                        <tspan x="326" y="947">抱歉，您无权访问该页面～</tspan>
                    </text>
                    <g id="编组-14备份-39" transform="translate(230.000000, 384.000000)">
                        <polygon id="矩形" fill="url(#linearGradient-1)" points="-1.70352621e-12 8.19991109 41.1873801 1.16529009e-12 41.1873801 194.199911 -1.70352621e-12 200.199911"></polygon>
                        <polygon id="矩形备份-12" fill="url(#linearGradient-2)" points="39.1873801 0.199911087 115.578533 7.92649192 115.578533 160.122877 39.1873801 194.199911"></polygon>
                    </g>
                    <g id="编组-14备份-40" transform="translate(668.000000, 304.000000)">
                        <polygon id="矩形" fill="url(#linearGradient-3)" points="-1.70352621e-12 24.2215639 60 6.25277607e-13 60 217.00964 -1.70352621e-12 222.199911"></polygon>
                        <polygon id="矩形备份-12" fill="url(#linearGradient-4)" points="60 0 114.59369 11.8192235 116 188.897369 60 217.94555"></polygon>
                    </g>
                    <g id="编组-24备份-16" opacity="0.30594308" transform="translate(498.000000, 142.000000)">
                        <g id="编组-23" transform="translate(0.000000, 87.000998)">
                            <path d="M41.5999769,10.9990016 L106.407312,10.9990016 L106.407312,40.2100015 L106.407312,66.583486 L112.579439,107.380182 L150,233.31403 C123.383172,247.770678 97.8518025,254.999002 73.4058916,254.999002 C48.9599808,254.999002 24.4913502,247.770678 0,233.31403 L33.8848181,107.380182 L41.5999769,65.8599476 L41.5999769,39.4524941 L41.5999769,10.9990016 Z" id="矩形" fill="url(#linearGradient-5)"></path>
                            <ellipse id="椭圆形" fill="#E1E7FF" cx="75" cy="10.9990016" rx="33" ry="10"></ellipse>
                            <path d="M42,48.9990016 C42,54.5218491 56.326888,58.9990016 74,58.9990016 C91.673112,58.9990016 106,54.5218491 106,48.9990016" id="路径" stroke="#AEACEB" stroke-width="2" opacity="0.421526228"></path>
                            <path d="M42,72.9990016 C42,78.5218491 56.326888,82.9990016 74,82.9990016 C91.673112,82.9990016 106,78.5218491 106,72.9990016" id="路径" stroke="#AEACEB" stroke-width="2" opacity="0.421526228"></path>
                            <path d="M36,96.9990016 C36,102.521849 52.5654643,106.999002 73,106.999002 C93.4345357,106.999002 110,102.521849 110,96.9990016" id="路径" stroke="#AEACEB" stroke-width="2" opacity="0.421526228"></path>
                        </g>
                        <g id="编组-22" transform="translate(54.000000, 0.000000)">
                            <path d="M26.460902,98 C40.2118764,98 19.819388,66.6644124 51.3592436,56.9468964 C73.9007543,50.0017951 93.2496161,75.6817352 99.450994,59.7196929 C120.05186,6.69407566 152.151166,19.4223547 142.098797,9.19111212 C132.046428,-1.0401305 60.3514975,-4.93361032 26.460902,9.19111212 C6.18672593,17.6408636 0,41.5151636 0,50.0017951 C0,72.6747981 12.7099276,98 26.460902,98 Z" id="椭圆形" fill="#E0E8FF"></path>
                            <path d="M26.1569279,98 C39.7499356,98 19.5917094,70.6448739 50.7692456,62.1617434 C73.0518068,56.0988566 93.2534239,76.0961775 99.3835624,62.1617434 C119.747772,15.8718041 154.600469,12 133.390409,12 C126.837496,12 108.541781,41.8239126 92.5473605,49.1785667 C85.367599,52.4800095 71.08884,32.1225663 60.7095678,35.942769 C55.3160567,37.9279088 34.3797608,41.3258547 26.1569279,55.0682382 C19.9949567,65.3664131 0,50.6840594 0,56.0988566 C0,75.8917791 12.5639202,98 26.1569279,98 Z" id="椭圆形备份-7" fill="#D7DDF3"></path>
                        </g>
                    </g>
                    <g id="编组-24备份-17" opacity="0.30594308" transform="translate(806.000000, 308.000000)">
                        <g id="编组-23" transform="translate(0.000000, 55.000000)">
                            <path d="M26.6239852,7.29858369 L68.1006794,7.29858369 L68.1006794,25.6992135 L68.1006794,42.3124321 L72.0508407,68.0111383 L96,147.339546 C78.96523,156.446096 62.6251536,160.999371 46.9797706,160.999371 C31.3343877,160.999371 15.6744641,156.446096 0,147.339546 L21.6862836,68.0111383 L26.6239852,41.8566599 L26.6239852,25.2220436 L26.6239852,7.29858369 Z" id="矩形" fill="url(#linearGradient-6)"></path>
                            <ellipse id="椭圆形" fill="#E1E7FF" cx="48" cy="7.29858369" rx="21.12" ry="6.2992126"></ellipse>
                            <path d="M26.88,31.2355916 C26.88,34.7145506 36.0492083,37.5348042 47.36,37.5348042 C58.6707917,37.5348042 67.84,34.7145506 67.84,31.2355916" id="路径" stroke="#AEACEB" stroke-width="2" opacity="0.421526228"></path>
                            <path d="M26.88,46.3537018 C26.88,49.8326609 36.0492083,52.6529144 47.36,52.6529144 C58.6707917,52.6529144 67.84,49.8326609 67.84,46.3537018" id="路径" stroke="#AEACEB" stroke-width="2" opacity="0.421526228"></path>
                            <path d="M23.04,61.471812 C23.04,64.9507711 33.6418971,67.7710246 46.72,67.7710246 C59.7981029,67.7710246 70.4,64.9507711 70.4,61.471812" id="路径" stroke="#AEACEB" stroke-width="2" opacity="0.421526228"></path>
                        </g>
                        <g id="编组-22" transform="translate(34.000000, 0.000000)">
                            <path d="M16.9055763,62 C25.690921,62 12.6623868,42.1754446 32.8128501,36.0276283 C47.2143708,31.6337887 59.5761436,47.8802814 63.538135,37.7818465 C76.6997993,4.23502746 97.2076891,12.2876122 90.7853424,5.81478522 C84.3629957,-0.658041746 38.5579012,-3.12126367 16.9055763,5.81478522 C3.95263045,11.1605463 0,26.2646953 0,31.6337887 C0,45.9779335 8.12023153,62 16.9055763,62 Z" id="椭圆形" fill="#E0E8FF"></path>
                            <path d="M16.7113706,62 C25.3957922,62 12.5169254,44.6936957 32.4359069,39.3268173 C46.6719877,35.4911134 59.5785764,48.1424797 63.4950538,39.3268173 C76.5055212,10.0413455 98.772522,7.59183673 85.2216501,7.59183673 C81.0350671,7.59183673 69.3461377,26.4600263 59.1274803,31.1129708 C54.5404104,33.2016387 45.41787,20.3224399 38.7866683,22.7393029 C35.340814,23.9952076 21.9648472,26.1449285 16.7113706,34.8390895 C12.7745556,41.3542613 0,32.0654254 0,35.4911134 C0,48.0131664 8.02694899,62 16.7113706,62 Z" id="椭圆形备份-7" fill="#D7DDF3"></path>
                        </g>
                    </g>
                    <g id="编组-14备份-41" transform="translate(902.000000, 422.000000)">
                        <polygon id="矩形" fill="url(#linearGradient-7)" points="0 8.19172301 36 0 36 194.005991 0 200"></polygon>
                        <polygon id="矩形备份-12" fill="url(#linearGradient-8)" points="36 0 104 7.72658083 104 159.922966 36 194"></polygon>
                    </g>
                    <g id="编组-13备份-20" transform="translate(330.000000, 244.000000)">
                        <polygon id="矩形" fill="url(#linearGradient-9)" points="-1.93267624e-12 9.6708526 38.7119453 0.739480015 38.7119453 290.108615 1.12888741 291.806473"></polygon>
                        <polygon id="矩形备份-11" fill="url(#linearGradient-10)" points="39.1288874 -1.70530257e-12 66.102666 12.2505005 66.102666 285.782276 38.7119453 290.108615"></polygon>
                    </g>
                    <g id="编组-13备份-21" opacity="0.444196429" transform="translate(398.000000, 366.000000)">
                        <polygon id="矩形" fill="url(#linearGradient-11)" points="0.102666016 0.0843606028 19.4545012 0.0843606028 24.7119453 288.108615 3.12888741 283.569794"></polygon>
                        <polygon id="矩形备份-11" fill="url(#linearGradient-12)" points="20.4169422 -1.70530257e-12 102.345927 8.09176762 104 220 20.4169422 290"></polygon>
                    </g>
                    <g id="编组-15备份-10" transform="translate(476.000000, 434.000000)">
                        <polygon id="矩形" fill="url(#linearGradient-13)" points="0 9.47588708 50 -5.61328761e-13 50 98.2631182 0 98.2631182"></polygon>
                        <polygon id="矩形备份-13" fill="url(#linearGradient-14)" points="50.0132816 1.47792889e-12 115.44161 1.73900532 115.44161 87.9697844 50 98.2631182"></polygon>
                    </g>
                    <ellipse id="椭圆形备份-22" fill="url(#linearGradient-15)" cx="619" cy="656" rx="471" ry="172"></ellipse>
                    <g id="编组-11备份-2" transform="translate(383.000000, 449.000000)">
                        <g id="编组-12" fill="#77A0EA" fill-rule="nonzero">
                            <path d="M124.54,192.4 L124.54,148.46 L145.86,148.46 L145.86,113.1 L124.54,113.1 L124.54,3.64 L67.34,3.64 L0,116.22 L0,148.46 L81.38,148.46 L81.38,192.4 L124.54,192.4 Z M81.38,113.1 L44.2,113.1 L66.3,75.14 C71.76,63.96 76.96,53.3 81.9,42.38 L82.94,42.38 C82.42,54.6 81.38,73.32 81.38,85.54 L81.38,113.1 Z M231.92,196.04 C272.74,196.04 300.3,161.72 300.3,97.24 C300.3,33.02 272.74,0 231.92,0 C190.84,0 163.28,32.76 163.28,97.24 C163.28,161.72 190.84,196.04 231.92,196.04 Z M231.92,160.16 C218.14,160.16 206.96,148.2 206.96,97.24 C206.96,46.28 218.14,35.88 231.92,35.88 C245.7,35.88 256.62,46.28 256.62,97.24 C256.62,148.2 245.7,160.16 231.92,160.16 Z M383.5,196.04 C421.98,196.04 455,176.28 455,140.92 C455,116.74 439.14,101.4 417.82,95.16 L417.82,93.86 C438.1,85.28 448.76,71.24 448.76,52.26 C448.76,18.98 422.5,0 382.46,0 C359.58,0 340.34,9.36 322.4,24.18 C325.619455,28.0791175 327.826047,30.7515455 329.019776,32.1972841 C330.750367,34.2932227 377.009627,36.14 380.38,36.14 C394.68,36.14 402.48,43.16 402.48,55.9 C402.48,69.94 392.08,79.82 359.06,79.82 L359.06,112.58 C399.62,112.58 408.46,121.94 408.46,137.8 C408.46,151.32 396.76,158.6 378.82,158.6 C373.975037,158.6 369.638799,158.204205 365.525732,157.221482 C359.91612,155.881195 328.248046,153.909986 326.104663,156.837534 C324.434016,159.119393 321.465795,163.173549 317.2,169 C331.24,185.38 352.82,196.04 383.5,196.04 Z" id="403"></path>
                        </g>
                        <ellipse id="椭圆形" fill="#DEEAFF" filter="url(#filter-16)" cx="273" cy="207" rx="169" ry="25"></ellipse>
                        <g id="编组-5" transform="translate(7.000000, 55.000000)">
                            <ellipse id="椭圆形备份-5" fill="#D7E7FF" filter="url(#filter-17)" cx="233" cy="210" rx="100" ry="13"></ellipse>
                            <g id="编组-11备份" transform="translate(176.000000, 175.000000) rotate(49.000000) translate(-176.000000, -175.000000) translate(60.000000, 43.000000)">
                                <g id="编组-10" transform="translate(0.000000, 0.000000)">
                                    <g id="编组-9" transform="translate(115.933871, 132.407290) scale(-1, 1) rotate(71.000000) translate(-115.933871, -132.407290) translate(5.933871, 47.907290)">
                                        <path d="M28.7625549,160.197955 L28.7625549,165.978872 C43.532687,164.0519 51.8158993,163.088414 53.6121919,163.088414 C56.3066308,163.088414 81.0565968,138.28529 83.8008711,131.874784 C86.5451455,125.464279 102.882881,114.228037 110.090754,114.228037 C114.896003,114.228037 119.728938,111.616104 124.589559,106.392237 C124.38918,87.8317252 120.593965,78.5514695 113.203916,78.5514695 C102.118841,78.5514695 100.144617,78.8681401 89.524374,81.8577855 C78.9041313,84.8474308 74.8803183,88.3376205 69.8037429,90.7688102 C64.7271676,93.2 65.3534336,96 57.5907252,96 C52.4155864,96 44.3819947,98.567702 33.4899502,103.703106 C22.3666278,111.446975 15.3616355,116.590829 12.4749733,119.134669 C9.57571035,121.689613 6.63246685,121.57096 6.63246685,123.863835 C6.63246685,129.581073 7.33666293,131.615507 8.74505508,129.967138 C19.9006157,123.746967 26.5731156,119.568741 28.7625549,117.432459 C30.9519941,115.296178 32.8481206,114.228037 34.4509342,114.228037 C55.1638092,106.730564 65.5202468,104.118631 65.5202468,106.392237 C65.5202468,109.802645 76.8331746,114.72307 72.5496785,123.298927 C69.6940144,129.016165 63.3815188,139.172915 53.6121919,153.769177 L28.7625549,160.197955 Z" id="路径-57" fill="#FFFFFF"></path>
                                        <ellipse id="椭圆形" fill="#FFD3BD" cx="23.2509342" cy="164.6" rx="5.6" ry="4.2"></ellipse>
                                        <ellipse id="椭圆形" fill="#FEDCDC" cx="54.0509342" cy="118.4" rx="16.8" ry="11.2"></ellipse>
                                        <ellipse id="椭圆形备份-3" fill="#FEDCDC" cx="60.0237293" cy="114.743136" rx="16.8" ry="4"></ellipse>
                                        <ellipse id="椭圆形" fill="#483E3E" transform="translate(49.850934, 117.000000) rotate(-11.000000) translate(-49.850934, -117.000000) " cx="49.8509342" cy="117" rx="15.4" ry="9.8"></ellipse>
                                        <path d="M103.479735,79.1571062 C107.95707,75.1253846 131.113025,73.7151052 137.31256,60.852565 C143.512095,47.9900248 152.552253,36.9099339 152.552253,27.3132795 C152.552253,20.91551 152.552253,15.5194337 152.552253,11.1250509 L165.075912,11.1250509 C165.548796,35.8058009 164.742014,49.31731 162.655569,51.6595781 C160.569123,54.0018462 155.958232,60.3060358 148.822897,70.5721469 L148.822897,73.6 C157.25174,75.6185687 162.669412,75.6185687 165.075912,73.6 C168.685663,70.5721469 193.789461,30.5459417 195.952321,30.5459417 C198.115182,30.5459417 205.94766,31.9363519 205.94766,35.1258234 C205.94766,38.3152948 188.699596,81.4425695 180.116263,84.8 C171.532931,88.1574305 132.769225,110.123254 124.589559,106.392237 C120.779204,104.654207 124.941845,97.560814 119.012968,89.0162621 C116.456856,85.3324564 99.0024004,83.1888277 103.479735,79.1571062 Z" id="路径-58" fill="#3484FE"></path>
                                        <path d="M151.516805,8.66860524 C163.009662,3.17327523 169.845133,0.425610228 172.023217,0.425610228 C175.290343,0.425610228 174.952672,8.66860524 174.952672,8.66860524 C174.952672,8.66860524 172.486187,10.2618177 167.553217,13.4482426 L160.905558,13.4482426 L153.759676,11.6072219 L151.516805,8.66860524 Z" id="路径-59" fill="#373535"></path>
                                        <path d="M195.707333,29.0804984 C205.49427,25.9747747 212.055281,25.1983438 215.390366,26.7512057 C218.725452,28.3040675 219.787735,30.3946545 218.577216,33.0229666 L213.359244,36.5474873 L207.38405,36.5474873 L199.280274,33.0229666 L195.707333,29.0804984 Z" id="路径-60" fill="#373535"></path>
                                        <path d="M4.94477902,123.298927 C0.767958689,128.819017 -0.762763403,132.126131 0.352612745,133.22027 C1.46798889,134.314409 3.50076271,134.314409 6.45093418,133.22027 L9.95521135,133.22027 L4.94477902,123.298927 Z" id="路径-61" fill="#FFD2BD"></path>
                                    </g>
                                    <path d="M177.369274,86.0500424 L179.637987,86.0500424 C180.875488,86.0500424 181.700487,84.8500467 181.700487,83.0500424 C181.700487,81.2500507 180.875488,80.0500549 179.637987,80.0500549 L177.369232,80.0500549 C176.337978,71.6500673 171.387972,65.0500424 165.200445,65.0500424 C159.012919,65.0500424 154.06293,71.6500321 153.031659,80.0500549 L150.762988,80.0500549 C149.525487,80.0500549 148.700487,81.2500507 148.700487,83.0500424 C148.700487,84.8500467 149.525487,86.0500424 150.762988,86.0500424 L177.369274,86.0500424 Z" id="形状备份-4" fill="#FBEA34" fill-rule="nonzero" transform="translate(165.200487, 75.550042) rotate(-11.000000) translate(-165.200487, -75.550042) "></path>
                                </g>
                                <path d="M127.731274,149.417693 C141.788396,123.188728 152.811304,110.074245 160.8,110.074245" id="路径-62" stroke="#3484FE" stroke-width="3" stroke-linecap="round" stroke-linejoin="round"></path>
                                <line x1="114.5" y1="133.5" x2="151.548381" y2="97.2756179" id="路径-63" stroke="#3484FE" stroke-width="3" stroke-linecap="round" stroke-linejoin="round"></line>
                            </g>
                            <path d="M100,199 C100,208.746774 104.436151,213.620161 113.308454,213.620161" id="路径-64备份-2" stroke="#B9CEEF"></path>
                            <path d="M88,203 C88,207.666667 90,210 94,210" id="路径-64备份-3" stroke="#B9CEEF"></path>
                        </g>
                    </g>
                    <path d="M494.26,640 L494.26,596.06 L515.58,596.06 L515.58,560.7 L494.26,560.7 L494.26,451.24 L437.06,451.24 L369.72,563.82 L369.72,596.06 L451.1,596.06 L451.1,640 L494.26,640 Z M451.1,560.7 L413.92,560.7 L436.02,522.74 C441.48,511.56 446.68,500.9 451.62,489.98 L452.66,489.98 C452.14,502.2 451.1,520.92 451.1,533.14 L451.1,560.7 Z M601.64,643.64 C642.46,643.64 670.02,609.32 670.02,544.84 C670.02,480.62 642.46,447.6 601.64,447.6 C560.56,447.6 533,480.36 533,544.84 C533,609.32 560.56,643.64 601.64,643.64 Z M601.64,607.76 C587.86,607.76 576.68,595.8 576.68,544.84 C576.68,493.88 587.86,483.48 601.64,483.48 C615.42,483.48 626.34,493.88 626.34,544.84 C626.34,595.8 615.42,607.76 601.64,607.76 Z M753.22,643.64 C791.7,643.64 824.72,623.88 824.72,588.52 C824.72,564.34 808.86,549 787.54,542.76 L787.54,541.46 C807.82,532.88 818.48,518.84 818.48,499.86 C818.48,466.58 792.22,447.6 752.18,447.6 C729.3,447.6 710.06,456.96 692.12,471.78 L715.52,500.12 C727.22,489.72 737.1,483.74 750.1,483.74 C764.4,483.74 772.2,490.76 772.2,503.5 C772.2,517.54 761.8,527.42 728.78,527.42 L728.78,560.18 C769.34,560.18 778.18,569.54 778.18,585.4 C778.18,598.92 766.48,606.2 748.54,606.2 C733.46,606.2 719.94,598.4 708.24,587.48 L686.92,616.6 C700.96,632.98 722.54,643.64 753.22,643.64 Z" id="403" fill="#C7D9FC" fill-rule="nonzero"></path>
                    <g id="编组备份-27" transform="translate(252.000000, 622.000000)" fill-rule="nonzero">
                        <polygon id="路径" fill="#B3CCFF" points="16 48 28 48 28 68 16 68"></polygon>
                        <polygon id="路径" fill="#A8C4FC" points="23.0004343 52 46 52 34.5006514 31.999564 23.0004343 12 11.5002171 31.999564 0 52"></polygon>
                        <polygon id="路径" fill="#B9D1FF" points="22 42 42 42 32 25 22 8 12 25 2 42"></polygon>
                        <polygon id="路径" fill="#CADDFD" points="23 30 40 30 31.5 14.9995694 23 0 14.5 14.9995694 6 30"></polygon>
                    </g>
                    <g id="编组备份-28" opacity="0.576892671" transform="translate(880.000000, 518.000000)" fill-rule="nonzero">
                        <polygon id="路径" fill="#B3CCFF" points="16 48 28 48 28 68 16 68"></polygon>
                        <polygon id="路径" fill="#A8C4FC" points="23.0004343 52 46 52 34.5006514 31.999564 23.0004343 12 11.5002171 31.999564 0 52"></polygon>
                        <polygon id="路径" fill="#B9D1FF" points="22 42 42 42 32 25 22 8 12 25 2 42"></polygon>
                        <polygon id="路径" fill="#CADDFD" points="23 30 40 30 31.5 14.9995694 23 0 14.5 14.9995694 6 30"></polygon>
                    </g>
                </g>
            </g>
        </g>
    </g>
</svg>
