<?xml version="1.0" encoding="UTF-8"?>
<svg width="1238px" height="1116px" viewBox="0 0 1238 1116" version="1.1" xmlns="http://www.w3.org/2000/svg" xmlns:xlink="http://www.w3.org/1999/xlink">
    <!-- Generator: Sketch 60.1 (88133) - https://sketch.com -->
    <title>400</title>
    <desc>Created with Sketch.</desc>
    <defs>
        <linearGradient x1="50%" y1="0%" x2="50%" y2="86.0706991%" id="linearGradient-1">
            <stop stop-color="#D2DEFB" offset="0%"></stop>
            <stop stop-color="#F3F4F8" offset="100%"></stop>
        </linearGradient>
        <linearGradient x1="50%" y1="0%" x2="50%" y2="43.9096274%" id="linearGradient-2">
            <stop stop-color="#E5ECF8" offset="0%"></stop>
            <stop stop-color="#F3F4F6" offset="100%"></stop>
        </linearGradient>
        <linearGradient x1="50%" y1="0%" x2="50%" y2="86.0706991%" id="linearGradient-3">
            <stop stop-color="#D8E3FB" offset="0%"></stop>
            <stop stop-color="#F3F4F8" offset="100%"></stop>
        </linearGradient>
        <linearGradient x1="50%" y1="0%" x2="50%" y2="43.9096274%" id="linearGradient-4">
            <stop stop-color="#E5ECF8" offset="0%"></stop>
            <stop stop-color="#F3F4F6" offset="100%"></stop>
        </linearGradient>
        <linearGradient x1="50%" y1="0%" x2="50%" y2="86.0706991%" id="linearGradient-5">
            <stop stop-color="#D8E3FB" offset="0%"></stop>
            <stop stop-color="#F3F4F8" offset="100%"></stop>
        </linearGradient>
        <linearGradient x1="50%" y1="0%" x2="50%" y2="43.9096274%" id="linearGradient-6">
            <stop stop-color="#E5ECF8" offset="0%"></stop>
            <stop stop-color="#F3F4F6" offset="100%"></stop>
        </linearGradient>
        <linearGradient x1="50%" y1="0%" x2="50%" y2="100%" id="linearGradient-7">
            <stop stop-color="#D4E0FC" offset="0%"></stop>
            <stop stop-color="#E0E8FE" offset="100%"></stop>
        </linearGradient>
        <linearGradient x1="50%" y1="0%" x2="50%" y2="88.0272486%" id="linearGradient-8">
            <stop stop-color="#D0DDFC" offset="0%"></stop>
            <stop stop-color="#F3F4F8" offset="100%"></stop>
        </linearGradient>
        <linearGradient x1="50%" y1="0%" x2="50%" y2="100%" id="linearGradient-9">
            <stop stop-color="#E8EDF8" offset="0%"></stop>
            <stop stop-color="#F4F5F6" offset="100%"></stop>
        </linearGradient>
        <linearGradient x1="50%" y1="0%" x2="50%" y2="88.0272486%" id="linearGradient-10">
            <stop stop-color="#D0DDFC" offset="0%"></stop>
            <stop stop-color="#F3F4F8" offset="100%"></stop>
        </linearGradient>
        <linearGradient x1="50%" y1="0%" x2="50%" y2="100%" id="linearGradient-11">
            <stop stop-color="#E8EDF8" offset="0%"></stop>
            <stop stop-color="#F4F5F6" offset="100%"></stop>
        </linearGradient>
        <linearGradient x1="51.503123%" y1="45.4855527%" x2="50%" y2="54.8995405%" id="linearGradient-12">
            <stop stop-color="#DBE7FC" offset="0%"></stop>
            <stop stop-color="#F3F5F6" offset="100%"></stop>
        </linearGradient>
        <filter x="-15.1%" y="-95.7%" width="130.2%" height="291.3%" filterUnits="objectBoundingBox" id="filter-13">
            <feGaussianBlur stdDeviation="22" in="SourceGraphic"></feGaussianBlur>
        </filter>
    </defs>
    <g id="页面-1" stroke="none" stroke-width="1" fill="none" fill-rule="evenodd">
        <g id="画板备份" transform="translate(-4475.000000, -1740.000000)">
            <g id="400" transform="translate(4475.000000, 1740.000000)">
                <rect id="矩形备份-23" fill="none" x="0" y="0" width="1238" height="1116"></rect>
                <text id="～" font-family="PingFangSC-Medium, PingFang SC" font-size="48" font-weight="400" fill="#5480E5">
                    <tspan x="438" y="725">～</tspan>
                </text>
                <text id="哎呀！找不到路径～" font-family="PingFangSC-Medium, PingFang SC" font-size="48" font-weight="400" fill="#5480E5">
                    <tspan x="476" y="947">哎呀！找不到路径～</tspan>
                </text>
                <g id="编组-4备份-7" transform="translate(148.000000, 200.000000)">
                    <g id="编组-14" opacity="0.352608817" transform="translate(123.000000, 89.000000)">
                        <polygon id="矩形" fill="url(#linearGradient-1)" points="-2.20268248e-13 194.199911 65.1873801 9.09494702e-13 65.1873801 194.199911"></polygon>
                        <polygon id="矩形备份-12" fill="url(#linearGradient-2)" points="63.1873801 0.199911087 152 127 139.578533 160.122877 63.1873801 194.199911"></polygon>
                    </g>
                    <g id="编组-14备份-5" transform="translate(512.000000, 84.000000)">
                        <polygon id="矩形" fill="url(#linearGradient-3)" points="-3.91928555e-13 131.831855 100.92048 2 92 159"></polygon>
                        <polygon id="矩形备份-12" fill="url(#linearGradient-4)" points="100.92048 0 252 174 92 159.640023"></polygon>
                    </g>
                    <g id="编组-14备份-9" transform="translate(690.000000, 220.000000)">
                        <polygon id="矩形" fill="url(#linearGradient-5)" points="1.03739239e-12 131.831855 73 2 66.5474442 159"></polygon>
                        <polygon id="矩形备份-12" fill="url(#linearGradient-6)" points="73.4673478 0 183 174 67 159.640023"></polygon>
                    </g>
                    <g id="编组-24" opacity="0.652297247" transform="translate(314.000000, 0.000000)">
                        <g id="编组-23" transform="translate(0.000000, 87.000998)">
                            <path d="M41.5999769,10.9990016 L106.407312,10.9990016 L106.407312,40.2100015 L106.407312,66.583486 L112.579439,107.380182 L150,233.31403 C123.383172,247.770678 97.8518025,254.999002 73.4058916,254.999002 C48.9599808,254.999002 24.4913502,247.770678 0,233.31403 L33.8848181,107.380182 L41.5999769,65.8599476 L41.5999769,39.4524941 L41.5999769,10.9990016 Z" id="矩形" fill="url(#linearGradient-7)"></path>
                            <ellipse id="椭圆形" fill="#E1E7FF" cx="75" cy="10.9990016" rx="33" ry="10"></ellipse>
                            <path d="M42,48.9990016 C42,54.5218491 56.326888,58.9990016 74,58.9990016 C91.673112,58.9990016 106,54.5218491 106,48.9990016" id="路径" stroke="#AEACEB" stroke-width="2" opacity="0.421526228"></path>
                            <path d="M42,72.9990016 C42,78.5218491 56.326888,82.9990016 74,82.9990016 C91.673112,82.9990016 106,78.5218491 106,72.9990016" id="路径" stroke="#AEACEB" stroke-width="2" opacity="0.421526228"></path>
                            <path d="M36,96.9990016 C36,102.521849 52.5654643,106.999002 73,106.999002 C93.4345357,106.999002 110,102.521849 110,96.9990016" id="路径" stroke="#AEACEB" stroke-width="2" opacity="0.421526228"></path>
                        </g>
                        <g id="编组-22" transform="translate(54.000000, 0.000000)">
                            <path d="M26.460902,98 C40.2118764,98 19.819388,66.6644124 51.3592436,56.9468964 C73.9007543,50.0017951 93.2496161,75.6817352 99.450994,59.7196929 C120.05186,6.69407566 152.151166,19.4223547 142.098797,9.19111212 C132.046428,-1.0401305 60.3514975,-4.93361032 26.460902,9.19111212 C6.18672593,17.6408636 0,41.5151636 0,50.0017951 C0,72.6747981 12.7099276,98 26.460902,98 Z" id="椭圆形" fill="#E0E8FF"></path>
                            <path d="M26.1569279,98 C39.7499356,98 19.5917094,70.6448739 50.7692456,62.1617434 C73.0518068,56.0988566 93.2534239,76.0961775 99.3835624,62.1617434 C119.747772,15.8718041 154.600469,12 133.390409,12 C126.837496,12 108.541781,41.8239126 92.5473605,49.1785667 C85.367599,52.4800095 71.08884,32.1225663 60.7095678,35.942769 C55.3160567,37.9279088 34.3797608,41.3258547 26.1569279,55.0682382 C19.9949567,65.3664131 0,50.6840594 0,56.0988566 C0,75.8917791 12.5639202,98 26.1569279,98 Z" id="椭圆形备份-7" fill="#D7DDF3"></path>
                        </g>
                    </g>
                    <g id="编组-13" opacity="0.733537946" transform="translate(20.000000, 277.000000)">
                        <polygon id="矩形" fill="url(#linearGradient-8)" points="78 1 78 270 0 270"></polygon>
                        <polygon id="矩形备份-11" fill="url(#linearGradient-9)" points="78.5442943 0 252 221.039529 113.757033 265.973538 78 270"></polygon>
                    </g>
                    <g id="编组-13备份" opacity="0.456287202" transform="translate(201.000000, 208.000000)">
                        <path d="M0.25890935,121.274772 C2.66644392,89.2119741 22.4935368,48.78705 59.740188,0 L65,221 L43.4072214,217.517379 C12.2341455,185.418439 -2.14862522,153.33757 0.25890935,121.274772 Z" id="矩形" fill="url(#linearGradient-10)"></path>
                        <polygon id="矩形备份-11" fill="url(#linearGradient-11)" points="60 0 162 90.7384369 143.92612 169.173357 60 223.001243"></polygon>
                    </g>
                    <ellipse id="椭圆形" fill="url(#linearGradient-12)" cx="471" cy="456" rx="471" ry="172"></ellipse>
                    <g id="编组" transform="translate(100.000000, 378.000000)" fill-rule="nonzero">
                        <polygon id="路径" fill="#B3CCFF" points="16 48 28 48 28 68 16 68"></polygon>
                        <polygon id="路径" fill="#A8C4FC" points="23.0004343 52 46 52 34.5006514 31.999564 23.0004343 12 11.5002171 31.999564 0 52"></polygon>
                        <polygon id="路径" fill="#B9D1FF" points="22 42 42 42 32 25 22 8 12 25 2 42"></polygon>
                        <polygon id="路径" fill="#CADDFD" points="23 30 40 30 31.5 14.9995694 23 0 14.5 14.9995694 6 30"></polygon>
                    </g>
                    <g id="编组备份-5" opacity="0.576892671" transform="translate(775.000000, 363.000000)" fill-rule="nonzero">
                        <polygon id="路径" fill="#B3CCFF" points="16 48 28 48 28 68 16 68"></polygon>
                        <polygon id="路径" fill="#A8C4FC" points="23.0004343 52 46 52 34.5006514 31.999564 23.0004343 12 11.5002171 31.999564 0 52"></polygon>
                        <polygon id="路径" fill="#B9D1FF" points="22 42 42 42 32 25 22 8 12 25 2 42"></polygon>
                        <polygon id="路径" fill="#CADDFD" points="23 30 40 30 31.5 14.9995694 23 0 14.5 14.9995694 6 30"></polygon>
                    </g>
                </g>
                <ellipse id="椭圆形" fill="#D7E7FF" cx="619" cy="662" rx="100" ry="13"></ellipse>
                <ellipse id="椭圆形备份-4" fill="#C3DAFD" filter="url(#filter-13)" cx="667.5" cy="592.5" rx="218.5" ry="34.5"></ellipse>
                <g id="编组-12" transform="translate(400.000000, 283.000000)" font-family="SourceHanSansSC-Heavy, Source Han Sans SC" font-size="260" font-weight="600">
                    <text id="404" fill="#77A0EA">
                        <tspan x="0" y="302">404</tspan>
                    </text>
                    <text id="404备份" fill="#C7D9FC">
                        <tspan x="10" y="302">404</tspan>
                    </text>
                </g>
                <g id="编组-11" transform="translate(562.000000, 627.000000) rotate(49.000000) translate(-562.000000, -627.000000) translate(446.000000, 495.000000)">
                    <g id="编组-10" transform="translate(0.000000, 0.000000)">
                        <g id="编组-9" transform="translate(115.933871, 132.407290) scale(-1, 1) rotate(71.000000) translate(-115.933871, -132.407290) translate(5.933871, 47.907290)">
                            <path d="M28.7625549,160.197955 L28.7625549,165.978872 C43.532687,164.0519 51.8158993,163.088414 53.6121919,163.088414 C56.3066308,163.088414 81.0565968,138.28529 83.8008711,131.874784 C86.5451455,125.464279 102.882881,114.228037 110.090754,114.228037 C114.896003,114.228037 119.728938,111.616104 124.589559,106.392237 C124.38918,87.8317252 120.593965,78.5514695 113.203916,78.5514695 C102.118841,78.5514695 100.144617,78.8681401 89.524374,81.8577855 C78.9041313,84.8474308 74.8803183,88.3376205 69.8037429,90.7688102 C64.7271676,93.2 65.3534336,96 57.5907252,96 C52.4155864,96 44.3819947,98.567702 33.4899502,103.703106 C22.3666278,111.446975 15.3616355,116.590829 12.4749733,119.134669 C9.57571035,121.689613 6.63246685,121.57096 6.63246685,123.863835 C6.63246685,129.581073 7.33666293,131.615507 8.74505508,129.967138 C19.9006157,123.746967 26.5731156,119.568741 28.7625549,117.432459 C30.9519941,115.296178 32.8481206,114.228037 34.4509342,114.228037 C55.1638092,106.730564 65.5202468,104.118631 65.5202468,106.392237 C65.5202468,109.802645 76.8331746,114.72307 72.5496785,123.298927 C69.6940144,129.016165 63.3815188,139.172915 53.6121919,153.769177 L28.7625549,160.197955 Z" id="路径-57" fill="#FFFFFF"></path>
                            <ellipse id="椭圆形" fill="#FFD3BD" cx="23.2509342" cy="164.6" rx="5.6" ry="4.2"></ellipse>
                            <ellipse id="椭圆形" fill="#FEDCDC" cx="54.0509342" cy="118.4" rx="16.8" ry="11.2"></ellipse>
                            <ellipse id="椭圆形备份-3" fill="#FEDCDC" cx="60.0237293" cy="114.743136" rx="16.8" ry="4"></ellipse>
                            <ellipse id="椭圆形" fill="#483E3E" transform="translate(49.850934, 117.000000) rotate(-11.000000) translate(-49.850934, -117.000000) " cx="49.8509342" cy="117" rx="15.4" ry="9.8"></ellipse>
                            <path d="M103.479735,79.1571062 C107.95707,75.1253846 131.113025,73.7151052 137.31256,60.852565 C143.512095,47.9900248 152.552253,36.9099339 152.552253,27.3132795 C152.552253,20.91551 152.552253,15.5194337 152.552253,11.1250509 L165.075912,11.1250509 C165.548796,35.8058009 164.742014,49.31731 162.655569,51.6595781 C160.569123,54.0018462 155.958232,60.3060358 148.822897,70.5721469 L148.822897,73.6 C157.25174,75.6185687 162.669412,75.6185687 165.075912,73.6 C168.685663,70.5721469 193.789461,30.5459417 195.952321,30.5459417 C198.115182,30.5459417 205.94766,31.9363519 205.94766,35.1258234 C205.94766,38.3152948 188.699596,81.4425695 180.116263,84.8 C171.532931,88.1574305 132.769225,110.123254 124.589559,106.392237 C120.779204,104.654207 124.941845,97.560814 119.012968,89.0162621 C116.456856,85.3324564 99.0024004,83.1888277 103.479735,79.1571062 Z" id="路径-58" fill="#3484FE"></path>
                            <path d="M151.516805,8.66860524 C163.009662,3.17327523 169.845133,0.425610228 172.023217,0.425610228 C175.290343,0.425610228 174.952672,8.66860524 174.952672,8.66860524 C174.952672,8.66860524 172.486187,10.2618177 167.553217,13.4482426 L160.905558,13.4482426 L153.759676,11.6072219 L151.516805,8.66860524 Z" id="路径-59" fill="#373535"></path>
                            <path d="M195.707333,29.0804984 C205.49427,25.9747747 212.055281,25.1983438 215.390366,26.7512057 C218.725452,28.3040675 219.787735,30.3946545 218.577216,33.0229666 L213.359244,36.5474873 L207.38405,36.5474873 L199.280274,33.0229666 L195.707333,29.0804984 Z" id="路径-60" fill="#373535"></path>
                            <path d="M4.94477902,123.298927 C0.767958689,128.819017 -0.762763403,132.126131 0.352612745,133.22027 C1.46798889,134.314409 3.50076271,134.314409 6.45093418,133.22027 L9.95521135,133.22027 L4.94477902,123.298927 Z" id="路径-61" fill="#FFD2BD"></path>
                        </g>
                        <path d="M181.668786,91 L183.937499,91 C185.175001,91 186,89.8000043 186,88 C186,86.2000083 185.175001,85.0000126 183.937499,85.0000126 L181.668744,85.0000126 C180.637491,76.6000249 175.687484,70 169.499958,70 C163.312431,70 158.362443,76.5999897 157.331171,85.0000126 L155.062501,85.0000126 C153.824999,85.0000126 153,86.2000083 153,88 C153,89.8000043 153.824999,91 155.062501,91 L181.668786,91 Z" id="形状备份-4" fill="#FBEA34" fill-rule="nonzero" transform="translate(169.500000, 80.500000) rotate(16.000000) translate(-169.500000, -80.500000) "></path>
                    </g>
                    <path d="M127.731274,149.417693 C141.788396,123.188728 152.811304,110.074245 160.8,110.074245" id="路径-62" stroke="#3484FE" stroke-width="3" stroke-linecap="round" stroke-linejoin="round"></path>
                    <line x1="114.5" y1="133.5" x2="151.548381" y2="97.2756179" id="路径-63" stroke="#3484FE" stroke-width="3" stroke-linecap="round" stroke-linejoin="round"></line>
                </g>
                <path d="M486,651 C486,660.746774 490.436151,665.620161 499.308454,665.620161" id="路径-64" stroke="#B9CEEF"></path>
                <path d="M474,655 C474,659.666667 476,662 480,662" id="路径-64备份" stroke="#B9CEEF"></path>
            </g>
        </g>
    </g>
</svg>
