<svg xmlns="http://www.w3.org/2000/svg" xmlns:xlink="http://www.w3.org/1999/xlink" viewBox="0 0 980.76 1020.33"><defs><style>.cls-1,.cls-14{fill:none;}.cls-2{fill:#e3f0d5;}.cls-3{fill:#fff;}.cls-4{clip-path:url(#clip-path);}.cls-5{fill:#d2a597;}.cls-6{fill:#f4d5c1;}.cls-7{fill:#374968;}.cls-8{fill:#1664b2;}.cls-9{fill:#3390ff;}.cls-10{fill:#e4f3f9;}.cls-11{fill:#1a191e;}.cls-12{fill:#dc6965;}.cls-13{fill:#1e2c3f;}.cls-14{stroke:#374968;stroke-miterlimit:10;stroke-width:6px;}.cls-15{fill:#28395e;}.cls-16{fill:#1d2d49;}</style><clipPath id="clip-path"><circle class="cls-1" cx="488.69" cy="540.01" r="458.49"/></clipPath></defs><title>男生</title><g id="图层_2" data-name="图层 2"><g id="图层_1-2" data-name="图层 1"><circle class="cls-2" cx="490.38" cy="529.95" r="477.85"/><path class="cls-3" d="M490.38,1020.33A490.51,490.51,0,0,1,299.5,78.11,490.5,490.5,0,0,1,681.26,981.79,487.43,487.43,0,0,1,490.38,1020.33Zm0-955.71A465.45,465.45,0,0,0,309.26,958.71,465.45,465.45,0,0,0,671.5,101.18,462.42,462.42,0,0,0,490.38,64.62Z"/><g class="cls-4"><path class="cls-5" d="M250.44,396.87s-58.1-4.92-46.28,43.34c0,0,20.68,80.76,64,99.47,0,0,9.85,3,23.64,1S250.44,396.87,250.44,396.87Z"/><path class="cls-5" d="M744.49,414.6s58.11-4.92,46.29,43.33c0,0-20.68,80.76-64,99.48,0,0-9.85,3-23.63,1S744.49,414.6,744.49,414.6Z"/><polygon class="cls-5" points="451.23 656.88 453.18 698.24 514.48 742.56 556.33 728.77 560.22 645.06 451.23 656.88"/><path class="cls-6" d="M246.18,366.67S266.86,606,384.06,656.22c0,0,58.11,28.56,115.23,24.62,0,0,86.67-3.94,141.82-39.39,0,0,90.34-54.41,120.09-252.46,0,0-43.88-103.67-115.17-109,0,0-6.71,42.35-118,45.31l-43.52,15.75-21.33-15.75-45.94-13.79s-69.69-59.42-71.66-23c0,0-34.4,7.22-14.7-1.64C330.88,286.9,272.77,331.21,246.18,366.67Z"/><path class="cls-5" d="M764,415.39S743.92,347.86,717.32,338c0,0-27,22.42-43.78,46.06,0,0-9.85-35.46-47.27-25.61,0,0,2,26.59-1,30.53S512,348.61,512,348.61l-2,21.67S376.5,410.33,332.18,320.71c0,0-45.43,38.61-93.69,119.36,0,0-26.85-131.84-18-181.08l-23.63-8.86s14.77-76.82,75.83-129c0,0,11.82-13.79-7.88-28.56,0,0-12.8-20.68,133.94-34.47,0,0,100.46-64,229.48-41.37l2,25.61s58.11,3,67.95,14.77l-6.69,20.69s35.25,12.8,46.09,15.75L710,109.29S792.71,192,800.59,294.45L782.47,299S770.93,386.83,764,415.39Z"/><path class="cls-7" d="M786.48,217.42S696.79,326.29,547.09,325.3c0,0-172.35,3-236.37-142.8,0,0-41.7-39-55.49-89.26,0,0,40.68-29.48,136.25-25,0,0,74.85-62,239.33-45.3l-2.34,28.71,66.35,16.59S690.88,87,689.9,92.87l36.37,2.63L715.5,139.16S770.73,174.09,786.48,217.42Z"/><path class="cls-7" d="M782.47,208.1S701.72,312.5,552,311.51c0,0-172.36,3-236.37-142.8,0,0-40.59-29-54.38-79.21,0,0,47.33-35.13,135.14-35,0,0,74.85-62,239.32-45.3L633.4,37.88l66.35,16.58s-3.94,18.72-4.93,24.63l45.31,13.78-15.24,32.5S766.72,164.77,782.47,208.1Z"/><path class="cls-3" d="M392.92,693.16s-52.8,17.38-56.85,59.3L271.5,950.71s28.13,24,75.55,34.61c74.45,16.6,197.46,28,325.07-19.68,15.31-5.73,32.76-17,45.2-25.3l-54-208.57s-4.67-29.34-100.67-52.53l-56.05,32.92L449.11,681S442.28,675.55,392.92,693.16Z"/><path class="cls-8" d="M566.26,682.42s60.4-5.25,74.85,67L663.43,949l3.94,36.77s-60,17.72-85,19.33-68.06,2.58-79.34,2.3S451.42,1001.7,441,999s-91.78-22.07-94.2-31.33,26.77-207.71,32.27-224.81c6-18.72,6-49.9,75.58-61.72l58,34.73Z"/><path class="cls-9" d="M567.18,681.48s60.41-5.25,74.85,67l22.33,199.6,3,37.68S522.54,942.8,462.13,885s-78.36-140.28-78.36-140.28l-.43-2.85c.08.17-6.7-53.52,69.14-64.79l61.13,37.8Z"/><path class="cls-7" d="M429.49,682.52S427.06,761.7,450,780.74c0,0,24.95,29.55,62.38,28.89,0,0,61.72-6.57,75.5-74.85,0,0,5.68-32.24,1.09-50.63,0,0-26.69-6.16-31.29-6.16-2,0-50.56,33.62-50.56,33.62s-38.59-27.28-54.68-34.51C444.28,677.26,429.49,682.52,429.49,682.52Z"/><path class="cls-10" d="M452,718s-3.28,51.22,49.24,67c0,0,50.27,5.23,64.71-63.06L511.1,710.08Z"/><polygon class="cls-3" points="452.48 677.11 507.96 708.49 558.94 672.54 586.09 726.87 507.43 711.77 421.95 724.9 452.48 677.11"/><circle class="cls-11" cx="507.69" cy="740.13" r="9.52"/><ellipse class="cls-12" cx="498.52" cy="600.25" rx="41.86" ry="23.14"/><circle class="cls-13" cx="361.16" cy="471.74" r="24.62"/><circle class="cls-13" cx="642.8" cy="471.74" r="24.62"/><circle class="cls-14" cx="361.16" cy="471.74" r="92.55"/><circle class="cls-14" cx="642.8" cy="471.74" r="92.55"/><rect class="cls-7" x="452.27" y="471.17" width="98.49" height="10.46"/><polygon class="cls-7" points="768.3 416.66 739.69 465.66 731.45 459.22 764.03 415.39 768.3 416.66"/><polygon class="cls-7" points="245.11 396.99 269.25 445.99 277.49 439.55 250.49 396.84 245.11 396.99"/></g><path class="cls-15" d="M762.1,409.09S742,341.57,715.39,331.72c0,0-27,22.42-43.78,46.06,0,0-9.85-35.46-47.27-25.61,0,0,2,26.59-1,30.53s-113.26-40.38-113.26-40.38l-2,21.67S374.57,404,330.25,314.41c0,0-45.43,38.61-93.69,119.37,0,0-26.85-131.84-18-181.08l-23.64-8.87s14.78-76.82,75.84-129c0,0,11.82-13.79-7.88-28.56,0,0-12.8-20.69,133.94-34.47,0,0,100.46-64,229.48-41.37l2,25.61s58.11,2.95,68,14.77l-6.69,20.68s46.13,39.07,57,42L708.05,103s82.73,82.73,90.61,185.15l-18.12,4.53S769,380.53,762.1,409.09Z"/><path class="cls-16" d="M784.55,211.13S694.86,320,545.16,319c0,0-172.35,2.95-236.37-142.81,0,0-41.7-39-55.49-89.26,0,0,40.68-29.47,136.25-25,0,0,74.85-62,239.32-45.3l-2.33,28.71L692.89,62S689,80.67,688,86.58l27.3,16.13-1.69,30.16S768.79,167.8,784.55,211.13Z"/><path class="cls-7" d="M780.54,201.81s-80.76,104.4-230.46,103.41c0,0-172.35,3-236.37-142.8,0,0-40.58-29-54.37-79.21,0,0,47.32-35.14,135.13-35,0,0,74.85-62,239.33-45.3l-2.34,28.71,79.44,15S694.05,60,694.34,75L746.5,113.5,723,119.08S764.78,158.48,780.54,201.81Z"/></g></g></svg>