<?xml version="1.0" encoding="UTF-8"?>
<svg width="1238px" height="1116px" viewBox="0 0 1238 1116" version="1.1" xmlns="http://www.w3.org/2000/svg" xmlns:xlink="http://www.w3.org/1999/xlink">
    <!-- Generator: Sketch 60.1 (88133) - https://sketch.com -->
    <title>1哎呀，网络出错了～</title>
    <desc>Created with Sketch.</desc>
    <defs>
        <linearGradient x1="50%" y1="0%" x2="50%" y2="86.0706991%" id="linearGradient-1">
            <stop stop-color="#D2DEFB" offset="0%"></stop>
            <stop stop-color="#F3F4F8" offset="100%"></stop>
        </linearGradient>
        <linearGradient x1="50%" y1="0%" x2="50%" y2="43.9096274%" id="linearGradient-2">
            <stop stop-color="#E5ECF8" offset="0%"></stop>
            <stop stop-color="#F3F4F6" offset="100%"></stop>
        </linearGradient>
        <linearGradient x1="50%" y1="0%" x2="50%" y2="86.0706991%" id="linearGradient-3">
            <stop stop-color="#D8E3FB" offset="0%"></stop>
            <stop stop-color="#F3F4F8" offset="100%"></stop>
        </linearGradient>
        <linearGradient x1="50%" y1="0%" x2="50%" y2="43.9096274%" id="linearGradient-4">
            <stop stop-color="#E5ECF8" offset="0%"></stop>
            <stop stop-color="#F3F4F6" offset="100%"></stop>
        </linearGradient>
        <linearGradient x1="50%" y1="0%" x2="50%" y2="86.0706991%" id="linearGradient-5">
            <stop stop-color="#D8E3FB" offset="0%"></stop>
            <stop stop-color="#F3F4F8" offset="100%"></stop>
        </linearGradient>
        <linearGradient x1="50%" y1="0%" x2="50%" y2="43.9096274%" id="linearGradient-6">
            <stop stop-color="#E5ECF8" offset="0%"></stop>
            <stop stop-color="#F3F4F6" offset="100%"></stop>
        </linearGradient>
        <linearGradient x1="50%" y1="0%" x2="50%" y2="100%" id="linearGradient-7">
            <stop stop-color="#D4E0FC" offset="0%"></stop>
            <stop stop-color="#E0E8FE" offset="100%"></stop>
        </linearGradient>
        <linearGradient x1="50%" y1="0%" x2="50%" y2="88.0272486%" id="linearGradient-8">
            <stop stop-color="#D0DDFC" offset="0%"></stop>
            <stop stop-color="#F3F4F8" offset="100%"></stop>
        </linearGradient>
        <linearGradient x1="50%" y1="0%" x2="50%" y2="100%" id="linearGradient-9">
            <stop stop-color="#E8EDF8" offset="0%"></stop>
            <stop stop-color="#F4F5F6" offset="100%"></stop>
        </linearGradient>
        <linearGradient x1="50%" y1="0%" x2="50%" y2="88.0272486%" id="linearGradient-10">
            <stop stop-color="#D0DDFC" offset="0%"></stop>
            <stop stop-color="#F3F4F8" offset="100%"></stop>
        </linearGradient>
        <linearGradient x1="50%" y1="0%" x2="50%" y2="100%" id="linearGradient-11">
            <stop stop-color="#E8EDF8" offset="0%"></stop>
            <stop stop-color="#F4F5F6" offset="100%"></stop>
        </linearGradient>
        <linearGradient x1="51.503123%" y1="45.4855527%" x2="50%" y2="54.8995405%" id="linearGradient-12">
            <stop stop-color="#DBE7FC" offset="0%"></stop>
            <stop stop-color="#F3F5F6" offset="100%"></stop>
        </linearGradient>
        <filter x="-12.5%" y="-54.5%" width="125.0%" height="209.1%" filterUnits="objectBoundingBox" id="filter-13">
            <feGaussianBlur stdDeviation="4" in="SourceGraphic"></feGaussianBlur>
        </filter>
        <linearGradient x1="6.79691122%" y1="49.4518747%" x2="100.043623%" y2="49.7944501%" id="linearGradient-14">
            <stop stop-color="#8FB5FE" offset="0%"></stop>
            <stop stop-color="#DDE5F7" offset="100%"></stop>
        </linearGradient>
        <radialGradient cx="6.79691122%" cy="47.0668111%" fx="6.79691122%" fy="47.0668111%" r="284.186368%" gradientTransform="translate(0.067969,0.470668),scale(0.328125,1.000000),rotate(0.369606),scale(1.000000,0.651567),translate(-0.067969,-0.470668)" id="radialGradient-15">
            <stop stop-color="#8FB5FF" offset="0%"></stop>
            <stop stop-color="#B3CCFE" offset="30.922727%"></stop>
            <stop stop-color="#C6D8FF" offset="44.7055739%"></stop>
            <stop stop-color="#C5D7FE" offset="60.8446598%"></stop>
            <stop stop-color="#C4D6FE" offset="63.1818514%"></stop>
            <stop stop-color="#ABC6FF" offset="86.7888011%"></stop>
            <stop stop-color="#92B6FF" offset="100%"></stop>
        </radialGradient>
        <linearGradient x1="50%" y1="0%" x2="50%" y2="100%" id="linearGradient-16">
            <stop stop-color="#C3D7FE" offset="0%"></stop>
            <stop stop-color="#A8C5FF" offset="100%"></stop>
        </linearGradient>
    </defs>
    <g id="页面-1" stroke="none" stroke-width="1" fill="none" fill-rule="evenodd">
        <g id="画板备份" transform="translate(-293.000000, -344.000000)">
            <g id="1哎呀，网络出错了～" transform="translate(293.000000, 344.000000)">
                <rect id="矩形" fill="#F6F6F6" x="0" y="0" width="1238" height="1116"></rect>
                <text id="哎呀，网络出错了～" font-family="PingFangSC-Medium, PingFang SC" font-size="48" font-weight="400" fill="#5480E5">
                    <tspan x="403" y="927">哎呀，网络出错了～</tspan>
                </text>
                <g id="编组-14" opacity="0.352608817" transform="translate(271.000000, 289.000000)">
                    <polygon id="矩形" fill="url(#linearGradient-1)" points="-2.20268248e-13 194.199911 65.1873801 9.09494702e-13 65.1873801 194.199911"></polygon>
                    <polygon id="矩形备份-12" fill="url(#linearGradient-2)" points="63.1873801 0.199911087 152 127 139.578533 160.122877 63.1873801 194.199911"></polygon>
                </g>
                <g id="编组-14备份-5" transform="translate(660.000000, 284.000000)">
                    <polygon id="矩形" fill="url(#linearGradient-3)" points="-3.91928555e-13 131.831855 100.92048 2 92 159"></polygon>
                    <polygon id="矩形备份-12" fill="url(#linearGradient-4)" points="100.92048 0 252 174 92 159.640023"></polygon>
                </g>
                <g id="编组-14备份-9" transform="translate(838.000000, 420.000000)">
                    <polygon id="矩形" fill="url(#linearGradient-5)" points="1.03739239e-12 131.831855 73 2 66.5474442 159"></polygon>
                    <polygon id="矩形备份-12" fill="url(#linearGradient-6)" points="73.4673478 0 183 174 67 159.640023"></polygon>
                </g>
                <g id="编组-24" opacity="0.297828311" transform="translate(484.000000, 164.000000)">
                    <g id="编组-23" transform="translate(0.000000, 87.000998)">
                        <path d="M41.5999769,10.9990016 L106.407312,10.9990016 L106.407312,40.2100015 L106.407312,66.583486 L112.579439,107.380182 L150,233.31403 C123.383172,247.770678 97.8518025,254.999002 73.4058916,254.999002 C48.9599808,254.999002 24.4913502,247.770678 0,233.31403 L33.8848181,107.380182 L41.5999769,65.8599476 L41.5999769,39.4524941 L41.5999769,10.9990016 Z" id="矩形" fill="url(#linearGradient-7)"></path>
                        <ellipse id="椭圆形" fill="#E1E7FF" cx="75" cy="10.9990016" rx="33" ry="10"></ellipse>
                        <path d="M42,48.9990016 C42,54.5218491 56.326888,58.9990016 74,58.9990016 C91.673112,58.9990016 106,54.5218491 106,48.9990016" id="路径" stroke="#AEACEB" stroke-width="2" opacity="0.421526228"></path>
                        <path d="M42,72.9990016 C42,78.5218491 56.326888,82.9990016 74,82.9990016 C91.673112,82.9990016 106,78.5218491 106,72.9990016" id="路径" stroke="#AEACEB" stroke-width="2" opacity="0.421526228"></path>
                        <path d="M36,96.9990016 C36,102.521849 52.5654643,106.999002 73,106.999002 C93.4345357,106.999002 110,102.521849 110,96.9990016" id="路径" stroke="#AEACEB" stroke-width="2" opacity="0.421526228"></path>
                    </g>
                    <g id="编组-22" transform="translate(54.000000, 0.000000)">
                        <path d="M26.460902,98 C40.2118764,98 19.819388,66.6644124 51.3592436,56.9468964 C73.9007543,50.0017951 93.2496161,75.6817352 99.450994,59.7196929 C120.05186,6.69407566 152.151166,19.4223547 142.098797,9.19111212 C132.046428,-1.0401305 60.3514975,-4.93361032 26.460902,9.19111212 C6.18672593,17.6408636 0,41.5151636 0,50.0017951 C0,72.6747981 12.7099276,98 26.460902,98 Z" id="椭圆形" fill="#E0E8FF"></path>
                        <path d="M26.1569279,98 C39.7499356,98 19.5917094,70.6448739 50.7692456,62.1617434 C73.0518068,56.0988566 93.2534239,76.0961775 99.3835624,62.1617434 C119.747772,15.8718041 154.600469,12 133.390409,12 C126.837496,12 108.541781,41.8239126 92.5473605,49.1785667 C85.367599,52.4800095 71.08884,32.1225663 60.7095678,35.942769 C55.3160567,37.9279088 34.3797608,41.3258547 26.1569279,55.0682382 C19.9949567,65.3664131 0,50.6840594 0,56.0988566 C0,75.8917791 12.5639202,98 26.1569279,98 Z" id="椭圆形备份-7" fill="#D7DDF3"></path>
                    </g>
                </g>
                <g id="编组-13" opacity="0.733537946" transform="translate(168.000000, 477.000000)">
                    <polygon id="矩形" fill="url(#linearGradient-8)" points="78 1 78 270 0 270"></polygon>
                    <polygon id="矩形备份-11" fill="url(#linearGradient-9)" points="78.5442943 0 252 221.039529 113.757033 265.973538 78 270"></polygon>
                </g>
                <g id="编组-13备份" opacity="0.456287202" transform="translate(349.000000, 408.000000)">
                    <path d="M0.25890935,121.274772 C2.66644392,89.2119741 22.4935368,48.78705 59.740188,0 L65,221 L43.4072214,217.517379 C12.2341455,185.418439 -2.14862522,153.33757 0.25890935,121.274772 Z" id="矩形" fill="url(#linearGradient-10)"></path>
                    <polygon id="矩形备份-11" fill="url(#linearGradient-11)" points="60 0 162 90.7384369 143.92612 169.173357 60 223.001243"></polygon>
                </g>
                <ellipse id="椭圆形" fill="url(#linearGradient-12)" cx="619" cy="656" rx="471" ry="172"></ellipse>
                <g id="编组" transform="translate(248.000000, 578.000000)" fill-rule="nonzero">
                    <polygon id="路径" fill="#B3CCFF" points="16 48 28 48 28 68 16 68"></polygon>
                    <polygon id="路径" fill="#A8C4FC" points="23.0004343 52 46 52 34.5006514 31.999564 23.0004343 12 11.5002171 31.999564 0 52"></polygon>
                    <polygon id="路径" fill="#B9D1FF" points="22 42 42 42 32 25 22 8 12 25 2 42"></polygon>
                    <polygon id="路径" fill="#CADDFD" points="23 30 40 30 31.5 14.9995694 23 0 14.5 14.9995694 6 30"></polygon>
                </g>
                <g id="编组备份-5" opacity="0.576892671" transform="translate(923.000000, 563.000000)" fill-rule="nonzero">
                    <polygon id="路径" fill="#B3CCFF" points="16 48 28 48 28 68 16 68"></polygon>
                    <polygon id="路径" fill="#A8C4FC" points="23.0004343 52 46 52 34.5006514 31.999564 23.0004343 12 11.5002171 31.999564 0 52"></polygon>
                    <polygon id="路径" fill="#B9D1FF" points="22 42 42 42 32 25 22 8 12 25 2 42"></polygon>
                    <polygon id="路径" fill="#CADDFD" points="23 30 40 30 31.5 14.9995694 23 0 14.5 14.9995694 6 30"></polygon>
                </g>
                <g id="编组-20备份-2" transform="translate(737.000000, 452.000000)">
                    <g id="编组-21" transform="translate(0.000000, 8.000000)">
                        <g id="编组">
                            <path d="M0.144394939,187.809763 C0.129299469,193.379626 22.6621146,197.895681 50.4659107,197.898434 C78.2707138,197.901184 100.824673,193.38788 100.831728,187.818017 L100.831728,187.808846 C100.845818,182.2399 78.3210574,177.723844 50.5092064,177.720175 C22.7054102,177.718341 0.158498831,182.232563 0.144394939,187.801508 L0.144394939,187.809763 L0.144394939,187.809763 Z" id="路径" fill="#D7E3FF" fill-rule="nonzero"></path>
                            <path d="M40.3599245,181.231033 L41.9709216,187.983104 C41.9709216,187.983104 43.5819188,191.208727 38.1055355,190.915239 L14.5789366,190.915239 C14.5789366,190.915239 13.2911457,186.221256 21.3451243,185.925933 C21.3451243,185.925933 30.0465224,186.221256 30.692935,179.761755 L40.3589177,181.231033 L40.3599245,181.231033 Z M77.7431122,180.642221 L81.928684,187.686864 C81.928684,187.686864 84.18408,190.915239 79.6753019,190.915239 L61.6270999,190.915239 C61.6270999,190.915239 58.7273051,190.03569 60.9827011,187.686864 L68.7175011,180.057995 L77.7410985,180.641304 L77.7431122,180.641304 L77.7431122,180.642221 Z" id="形状" fill="#3B3E5C" fill-rule="nonzero"></path>
                            <path d="M43.6977093,106.551946 C49.1801338,116.825881 54.3333108,127.393304 56.5897136,138.546787 C57.5563119,144.416559 57.8805249,150.289999 59.1713363,155.864448 C61.0994985,164.082128 65.2901047,171.714666 66.581923,180.229503 C73.6693033,182.575577 80.1142987,180.522992 80.1142987,180.522992 C76.5701051,171.424846 76.2479056,161.736971 73.9884821,152.342585 C73.3501245,149.111459 72.3815124,146.179325 71.7350999,143.244439 C66.9000949,123.28263 68.1909063,100.095197 60.7803197,80.7203655 L58.2027242,78.9612682 L24.3647371,79.8408167 C24.0465652,79.5445767 23.7183245,79.8408167 23.7183245,80.1343054 C22.7517262,87.4706028 23.0739257,95.1022231 23.0739257,102.441272 C23.3961252,128.85983 23.7183245,155.573711 29.5179141,181.696029 C34.0317265,181.991352 40.4817561,181.109051 40.4817561,181.109051 C44.0199086,164.671857 38.219312,147.647685 39.1879241,130.915167 C39.5101236,122.693818 41.769547,114.477972 43.698716,106.551946" id="路径" fill="#3484FE" fill-rule="nonzero"></path>
                            <path d="M23.3991457,82.482214 C25.0121566,84.5357168 27.2655388,85.4152654 29.8431341,86.2975655 C32.4217364,87.1771141 35.3225379,87.4733541 37.9001334,87.7659257 C39.5111306,88.0566629 40.7999282,88.3529029 42.0917465,89.235203 C43.70073,90.1147515 44.6673281,91.8766002 45.3107199,93.3431259 C45.9571325,95.1022231 46.279332,96.5715003 47.2449234,98.3333488 C48.4844595,100.871946 50.6454001,102.944609 53.3646985,104.20312 C54.9797232,105.086338 56.9119129,105.378909 58.5239168,106.551946 C61.7438971,108.607283 63.0367225,112.715206 63.6811213,116.237069 C64.6467126,119.760767 65.9365172,123.869607 69.1585113,125.631455 L67.5475144,113.011447 C67.5475144,113.011447 64.9658915,90.7008114 61.7469178,77.7854796 L23.7213452,79.5473283 L23.3991457,82.4803797 L23.3991457,82.482214 L23.3991457,82.482214 Z" id="路径" fill="#3A85F6" fill-rule="nonzero"></path>
                            <path d="M39.5101236,149.407699 C37.8981197,145.297025 36.2881295,140.895613 36.2881295,136.198879 C36.2881295,133.847301 36.610329,131.79655 36.9325283,129.44589 C36.9325283,127.099816 36.9325283,124.751907 36.6103288,122.402164 C36.29115,120.347744 35.6437305,118.295158 35.6437305,115.946332 C35.6437305,113.891912 36.6103288,111.835658 37.2567413,109.486832 C38.2233397,103.910549 35.6437305,97.7445375 37.5789409,92.1700887 C39.1909448,96.5715003 41.7675333,102.1487 43.6977093,106.258458 L42.4109251,111.249598 C42.4109251,111.249598 38.8667315,125.630538 39.188931,133.556564 L39.5111306,149.407699 L39.5101236,149.407699 Z" id="路径" fill="#3A85F6" fill-rule="nonzero"></path>
                            <path d="M16.4084252,100.217179 C16.4950163,101.092141 16.4950163,102.019382 16.839367,102.913605 C16.9128688,103.970164 18.7423574,104.968025 19.4169623,105.662309 C20.0915672,106.355676 20.602052,106.350173 21.2776639,107.04354 C21.674372,107.591079 21.7811006,108.389001 22.340922,108.683407 L22.6168052,108.828317 C23.0527812,108.721927 23.3780012,108.210157 23.262211,107.810279 C23.1877024,106.755554 22.7909944,106.208014 22.4395955,105.003794 C22.2029803,104.203121 22.2462758,103.548274 22.2875577,102.892511 C22.3298464,102.237664 22.3751556,101.580983 22.6963481,101.073798 C22.856441,100.821582 22.856441,100.821582 23.0920494,100.711524 C23.3326921,100.711524 23.4716407,100.983 23.6115959,101.21504 C23.7505444,101.446162 23.8532455,101.505777 23.9660153,101.592906 C24.3597026,101.987282 24.920531,102.433935 25.4803527,102.72834 C25.605205,102.776949 25.7018648,102.793458 25.7693252,102.776949 C25.8377925,102.760441 25.8861224,102.70908 25.9163287,102.621033 C26.2385283,102.111097 26.0069473,101.309506 25.7693252,100.506999 C25.4803525,98.9790236 25.1370087,97.7326144 24.8289057,96.1055872 C24.7131152,95.7029576 24.6466616,93.2624166 24.2952629,92.0554447 C24.2952629,92.0554447 17.2914531,91.8417484 17.1313602,92.0948822 C16.9702605,92.3489332 16.839367,94.3143896 16.839367,94.3143896 C16.6319512,96.4687791 16.5352913,98.2517224 16.4084252,100.217179 L16.4084252,100.217179 Z M58.7111953,4.31978502 C57.9359029,3.53103448 57.5281193,2.99083212 57.0750262,2.16080966 C56.3027546,1.36839054 55.7298436,0.968512315 54.7290119,0.800673498 C53.7261663,0.63008335 52.7676228,0.752981675 51.765784,0.585142857 C51.0841309,0.378783645 49.9201854,0.106389557 49.2788072,0.188016158 L48.9606354,0.229287882 C48.6958278,0.60256867 49.0854878,1.0969135 49.4519895,1.39040217 C50.2272818,2.18190424 50.8777218,2.06359153 51.9691723,2.81749044 C52.6981485,3.31091803 53.1039184,3.85387192 53.5157296,4.39315724 C53.9204925,4.93427685 54.3312969,5.47356217 54.4219154,6.05687054 C54.4672248,6.34669044 54.4672248,6.34669044 54.1933552,6.67778227 C53.9184788,7.00979113 53.5972862,7.05106305 53.2811281,7.09050069 C52.9629563,7.13177261 52.5964543,6.87955586 52.2772755,6.92082759 C51.5946155,6.71446837 50.9572648,6.79609498 50.3199141,6.87772138 C50.0007353,6.9189933 50.0460447,7.2088132 50.0460447,7.2088132 C50.1356565,7.79028749 50.8575846,8.2928867 51.5895813,8.78814877 C52.9992038,9.49894148 54.1369704,10.5426601 55.5486067,11.2479498 C55.9090672,11.4983322 56.2755692,11.7468804 56.5967615,11.7065257 C57.2733804,11.9156363 57.9167722,11.8330926 58.8733019,11.7111115 C60.1490102,11.5478585 61.4166636,11.9642455 62.5111346,12.7153927 C62.5111346,12.7153927 66.0523075,9.53837892 66.0080053,9.24489025 C65.9626959,8.95690463 64.1251524,7.77836453 64.1251524,7.77836453 C62.0318631,6.86121281 59.93656,5.94314384 58.7111953,4.32070227 L58.7111953,4.31978502 Z" id="形状" fill="#FFD2D2" fill-rule="nonzero"></path>
                            <path d="M42.3192998,23.4891752 C26.4509785,25.0914394 17.8039514,31.2794627 16.3782191,42.0532449 C14.9524867,52.8270272 14.9524867,69.5256104 16.3782191,92.1489941 L24.5338918,92.5048491 L25.8226895,81.0551259 C39.6631683,84.2770802 51.9540692,84.2770802 62.6943857,81.0551259 C59.9909311,71.6607399 59.9909311,61.4354144 62.6943857,50.3791492 C80.2643227,51.1018648 90.980474,49.894893 94.8428395,46.7582337 C98.7052049,43.6215746 89.5960234,30.7218343 67.5142876,8.059013 L60.8417389,13.7453543 L79.5373603,36.4375243 C72.6030245,31.9086288 65.9455791,28.5344272 59.5660306,26.3140028 C53.1854751,24.0944954 47.4362294,23.1534975 42.3182928,23.4891752 L42.3192998,23.4891752 Z" id="路径" fill="#FFFFFF" fill-rule="nonzero"></path>
                            <polygon id="矩形" fill="#3484FE" points="54.540529 24.5852048 57.0869565 25.6 55.507145 54.4 57.0869565 83.2 53.573913 83.2 51.9941015 54.3914593"></polygon>
                            <polygon id="矩形备份-14" fill="#3484FE" points="31.5290362 25.6 34.0754637 26.6147952 32.4956522 55.4147952 34.0754637 84.2147952 30.5624203 84.2147952 28.9826087 55.4062545"></polygon>
                            <path d="M80.4626767,36.5906887 C79.808209,36.3063716 79.5061472,36.3063716 79.5585045,36.5906887 C80.4626767,41.5469771 83.3171621,49.9040644 84.9362143,49.9040644 C85.3087575,49.9040644 86.1625858,49.6793622 86.5874863,49.5968187 C86.8714245,49.5417896 84.8294857,45.206413 80.4626767,36.5906887 L80.4626767,36.5906887 Z M26.0230573,81.0551259 C24.7070741,54.0578451 24.690964,39.9071098 25.9757342,38.6020028 C27.2605044,37.2978128 28.0166662,51.62831 28.2422058,81.594411 L26.0230573,81.0551259 Z" id="形状" fill="#E9EBF2" fill-rule="nonzero"></path>
                            <path d="M56.9119129,43.4390613 L62.0681104,50.1920502 C62.0681104,50.1920502 58.5239168,65.746945 60.1339072,73.6720538 C60.1339072,73.6720538 59.4925291,69.8567023 58.1997037,66.9245679 C58.1997037,66.9245679 55.9463215,60.7585563 57.8805249,57.2376104 C57.5583254,57.5310991 61.4247185,53.126936 56.9119129,43.4390613" id="路径" fill="#D7E3FF" fill-rule="nonzero"></path>
                            <path d="M36.4346647,11.737709 C34.6129192,9.68512315 33.7006227,7.04280887 33.7006227,4.40049438 C33.7006227,3.52186286 34.0006078,2.34607429 34.3100862,1.75909714 C34.9110059,0.879548571 35.8271,0.290737143 37.0441285,0.290737143 C37.9564251,0 39.1687069,0 40.3800395,0 C42.2065315,0 44.3339582,0 46.1585518,0.290737143 C46.7661167,0.290737143 47.6755656,0.290737143 48.2850289,0.584225616 C49.8039413,0.879548571 50.716238,2.05258562 51.0200205,3.52186305 C51.0200205,3.81168296 51.0200205,4.40141163 51.320955,4.6949001 C51.9304186,5.2809602 52.8408166,4.98838877 53.7512147,5.2809602 C54.66541,5.57444887 54.9682431,7.04280887 54.66541,7.92235744 C54.3616274,10.2684317 53.7540625,12.9107462 53.1445992,15.2614061 C52.8408166,15.8483833 52.8408166,16.7306833 52.2342009,17.3139919 C51.9304184,17.9037206 51.3209548,18.4897805 50.410557,18.4897805 L36.4346647,11.737709 Z" id="路径" fill="#1C0F44" fill-rule="nonzero"></path>
                            <path d="M50.4669177,14.674429 C50.4669177,14.674429 50.1487458,20.8413578 51.7557153,23.7734922 C51.7557153,23.7734922 45.3107202,29.0572037 41.4453338,23.7734922 C41.4453338,23.7734922 42.4109251,20.5478694 41.4453338,18.7860207 L50.4669177,14.6753462 L50.4669177,14.674429 Z" id="路径" fill="#F8C1C1" fill-rule="nonzero"></path>
                            <path d="M34.9973179,6.75023744 C34.3529191,8.21859744 34.6781391,9.68237182 34.9973179,11.7395433 C35.3195174,12.9162491 35.3195174,13.7957976 35.6437305,14.9679176 C35.96593,15.8483834 35.96593,16.7306833 36.2881295,17.6102319 C36.610329,19.3720806 37.8981197,21.4274177 39.5101236,22.3078835 C39.8323231,22.5977034 40.1545224,22.5977034 40.4787357,22.5977034 L41.4453338,22.5977034 C43.3785302,22.0143949 45.3107199,21.4274177 46.9207103,20.2525464 C48.5327143,19.0785921 49.8205051,17.6111492 50.4669177,15.8483833 C50.7891172,15.8483833 51.1113165,15.8483833 51.1113165,15.5548948 C51.433516,15.2641576 51.433516,14.9679176 51.4335158,14.674429 C51.4335158,13.7957974 51.7557153,12.9162489 51.4335158,12.0330317 C51.4335158,11.7395431 51.4335158,11.4469716 51.114337,11.4469718 C50.789117,10.8599947 50.1457249,10.8599947 49.4983056,11.1534832 C48.9223857,11.3835516 48.4626398,11.8026575 48.2105147,12.3274374 C47.2449234,10.5646717 46.9207101,8.80557438 47.2449234,7.04280887 C47.5671229,6.7493202 41.1201138,8.21859744 34.9973179,6.7493202" id="路径" fill="#FFD2D2" fill-rule="nonzero"></path>
                        </g>
                        <path d="M27.6201883,46.4 C35.0685597,47.1688883 40.6557153,47.5699777 44.3816549,47.6032682 C48.1075944,47.6365588 52.7438874,47.3268138 58.2905337,46.6740335 C59.0901856,46.4375758 59.4900116,51.7119627 59.4900116,62.4971939 C59.4900116,78.6750409 63.4728783,81.594411 56.9119129,83.2 C52.5379359,84.2703926 42.7740277,84.2703926 27.6201883,83.2 C26.9621207,74.2198897 26.633087,67.3189543 26.633087,62.4971939 C26.633087,57.6754335 26.9621207,52.3097022 27.6201883,46.4 Z" id="矩形" fill="#3484FE"></path>
                    </g>
                    <g id="编组" transform="translate(29.000000, 0.000000)" fill="#FBEA34" fill-rule="nonzero">
                        <path d="M26.161819,14.4 L28.2321422,14.4 C29.3614294,14.4 30.1142857,13.5771458 30.1142857,12.3428614 C30.1142857,11.1085771 29.3614294,10.2857229 28.2321422,10.2857229 L26.1617804,10.2857229 C25.2207059,4.52573133 20.703557,0 15.0571043,0 C9.41065156,0 4.89351918,4.52570723 3.95242811,10.2857229 L1.88214355,10.2857229 C0.752856316,10.2857229 0,11.1085771 0,12.3428614 C0,13.5771458 0.752856316,14.4 1.88214355,14.4 L26.161819,14.4 Z" id="形状"></path>
                    </g>
                </g>
                <g id="编组-19" transform="translate(508.500000, 542.500000) scale(-1, 1) translate(-508.500000, -542.500000) translate(294.000000, 338.000000)">
                    <g id="编组" transform="translate(66.043385, 71.661369) rotate(-142.000000) translate(-66.043385, -71.661369) translate(33.043385, 7.161369)" fill="#AFC7F8" fill-rule="nonzero">
                        <path d="M65.0338046,64.4447413 C65.0338046,75.7579589 63.4791654,86.7635664 60.3698871,97.4615637 C57.2606087,108.159561 52.6771036,117.86637 46.6193716,126.581991 C45.7884438,127.812432 44.6894747,128.427652 43.3760727,128.427652 C42.2502995,128.427652 41.285351,127.983326 40.5080314,127.060496 L40.2935984,126.787064 C39.4626706,125.727518 39.0338046,124.42872 39.0338046,122.890669 C39.0338046,121.455155 39.3822582,120.224715 40.1059696,119.233526 C45.4399902,111.543273 49.4606087,102.998546 52.2214335,93.5309896 C54.9822582,84.0976118 56.3492685,74.3908027 56.3492685,64.4105624 C56.3492685,54.4303221 54.9822582,44.7576919 52.2214335,35.2901352 C49.4606087,25.8567573 45.4399902,17.2778521 40.1059696,9.58759846 C39.3822582,8.59641021 39.0338046,7.36596962 39.0338046,5.9304556 C39.0338046,4.22151034 39.5162788,2.85435413 40.4812273,1.79480807 C41.2585469,0.871977629 42.2234953,0.427651861 43.3492685,0.427651861 C44.6894747,0.427651861 45.7616397,1.04287216 46.5925675,2.27331274 C52.6502995,11.0231125 57.2070005,20.7299216 60.343083,31.4279189 C63.4791654,42.1259162 65.0338046,53.1315237 65.0338046,64.4447413 L65.0338046,64.4447413 Z M12.5992454,63.1928794 C12.5992454,68.2581855 11.5267817,72.9765529 9.38185415,77.3479814 C8.94707154,78.2153284 8.36736139,78.9092059 7.64272371,79.3949202 C6.91808603,79.8806345 6.13547733,80.1234916 5.32388313,80.1234916 C4.48330342,80.1234916 3.70069473,79.8459406 2.97605704,79.3255325 C2.59924545,79.0479814 2.28040487,78.7704304 2.0195353,78.4581855 C1.12098458,77.3826753 0.657216464,76.064308 0.657216464,74.4683896 C0.657216464,73.4275733 0.860115015,72.4908386 1.26591212,71.6581855 C2.57025994,68.9867569 3.2079411,66.1765529 3.2079411,63.1581855 C3.2079411,60.1051243 2.57025994,57.2602263 1.26591212,54.6234916 C0.831129508,53.6867569 0.59924545,52.7500223 0.59924545,51.7785937 C0.59924545,49.6622672 1.35286864,48.0316549 2.88910052,46.9214508 C3.6137382,46.4010427 4.3963469,46.1234916 5.23692661,46.1234916 C7.00504255,46.1234916 8.36736139,47.0255325 9.29489762,48.864308 C11.4977962,53.3398182 12.5992454,58.0928794 12.5992454,63.1928794 L12.5992454,63.1928794 Z M38.2303504,64.4942926 C38.2303504,71.3832753 37.3395207,78.0696409 35.5840622,84.5871588 C33.8286037,91.1046768 31.2085163,97.0818823 27.750001,102.485006 C26.9115731,103.835787 25.8111364,104.477408 24.4748919,104.477408 C23.4530578,104.477408 22.5622281,104.072174 21.8024028,103.227936 C21.6189967,103.059088 21.5141932,102.957779 21.4617914,102.89024 C20.6495644,101.843385 20.2303504,100.560143 20.2303504,99.0405147 C20.2303504,97.6897337 20.5447609,96.54157 21.1997827,95.5284843 C24.029477,91.1046768 26.1517478,86.2080959 27.6189967,80.8725113 C29.0862456,75.5369267 29.7936692,70.0662639 29.7936692,64.4605231 C29.7936692,58.8547823 29.0600447,53.3841196 27.6189967,48.0485349 C26.1517478,42.7129503 24.029477,37.8163695 21.1997827,33.3925619 C20.5709617,32.4132458 20.2303504,31.2313125 20.2303504,29.9480706 C20.2303504,28.2258249 20.7543679,26.807505 21.7762019,25.7268802 C22.5360272,24.9164117 23.4530578,24.4774079 24.448691,24.4774079 C25.7849355,24.4774079 26.8853722,25.1527983 27.7238002,26.4698097 C31.1823155,31.8729334 33.8024028,37.850139 35.5578613,44.3676569 C37.3657216,50.9527139 38.2303504,57.6390795 38.2303504,64.4942926 Z" id="形状"></path>
                    </g>
                    <g id="编组-17" transform="translate(38.097542, 16.615661)">
                        <g id="编组-18">
                            <g id="编组-16">
                                <ellipse id="椭圆形" fill="#C0D3FC" filter="url(#filter-13)" cx="246.930411" cy="291.298275" rx="48" ry="11"></ellipse>
                                <circle id="椭圆形" fill="#89AFFF" cx="246.930411" cy="266.298275" r="26"></circle>
                                <path d="M207.919387,279.98489 C296.472658,280.960589 387.198081,226.347963 387.420887,182.77923 C387.636562,139.210497 305.503418,113.998904 197.542058,113.998904 C89.5806987,113.998904 4.32255122,139.795634 3.42249021,178.090967 C2.5224292,216.3863 119.366117,279.009191 207.919387,279.98489 Z" id="椭圆形备份-6" fill="url(#linearGradient-14)" transform="translate(195.419104, 196.998342) rotate(-45.000000) translate(-195.419104, -196.998342) "></path>
                                <ellipse id="椭圆形" fill="url(#radialGradient-15)" transform="translate(183.000000, 180.610504) rotate(-45.000000) translate(-183.000000, -180.610504) " cx="183" cy="180.610504" rx="192" ry="63"></ellipse>
                            </g>
                            <ellipse id="椭圆形" fill="#A3C1FE" transform="translate(209.585786, 215.585786) rotate(45.000000) translate(-209.585786, -215.585786) " cx="209.585786" cy="215.585786" rx="16" ry="35"></ellipse>
                            <polygon id="矩形" fill="url(#linearGradient-16)" transform="translate(141.284425, 152.248123) rotate(-48.000000) translate(-141.284425, -152.248123) " points="142.499181 65.2481227 157.284425 239.248123 125.284425 239.248123"></polygon>
                        </g>
                        <circle id="椭圆形" fill="#A3C1FE" cx="87" cy="102" r="12"></circle>
                    </g>
                </g>
            </g>
        </g>
    </g>
</svg>