<?xml version="1.0" encoding="UTF-8"?>
<svg width="1238px" height="1116px" viewBox="0 0 1238 1116" version="1.1" xmlns="http://www.w3.org/2000/svg" xmlns:xlink="http://www.w3.org/1999/xlink">
    <!-- Generator: Sketch 60.1 (88133) - https://sketch.com -->
    <title>7暂无数据</title>
    <desc>Created with Sketch.</desc>
    <defs>
        <linearGradient x1="50%" y1="0%" x2="50%" y2="86.0706991%" id="linearGradient-1">
            <stop stop-color="#D2DEFB" offset="0%"></stop>
            <stop stop-color="#F3F4F8" offset="100%"></stop>
        </linearGradient>
        <linearGradient x1="50%" y1="0%" x2="50%" y2="43.9096274%" id="linearGradient-2">
            <stop stop-color="#E5ECF8" offset="0%"></stop>
            <stop stop-color="#F3F4F6" offset="100%"></stop>
        </linearGradient>
        <linearGradient x1="50%" y1="0%" x2="50%" y2="86.0706991%" id="linearGradient-3">
            <stop stop-color="#D8E3FB" offset="0%"></stop>
            <stop stop-color="#F3F4F8" offset="100%"></stop>
        </linearGradient>
        <linearGradient x1="50%" y1="0%" x2="50%" y2="43.9096274%" id="linearGradient-4">
            <stop stop-color="#E5ECF8" offset="0%"></stop>
            <stop stop-color="#F3F4F6" offset="100%"></stop>
        </linearGradient>
        <linearGradient x1="50%" y1="0%" x2="50%" y2="86.0706991%" id="linearGradient-5">
            <stop stop-color="#D8E3FB" offset="0%"></stop>
            <stop stop-color="#F3F4F8" offset="100%"></stop>
        </linearGradient>
        <linearGradient x1="50%" y1="0%" x2="50%" y2="43.9096274%" id="linearGradient-6">
            <stop stop-color="#E5ECF8" offset="0%"></stop>
            <stop stop-color="#F3F4F6" offset="100%"></stop>
        </linearGradient>
        <linearGradient x1="50%" y1="0%" x2="50%" y2="100%" id="linearGradient-7">
            <stop stop-color="#D4E0FC" offset="0%"></stop>
            <stop stop-color="#E0E8FE" offset="100%"></stop>
        </linearGradient>
        <linearGradient x1="50%" y1="0%" x2="50%" y2="88.0272486%" id="linearGradient-8">
            <stop stop-color="#D0DDFC" offset="0%"></stop>
            <stop stop-color="#F3F4F8" offset="100%"></stop>
        </linearGradient>
        <linearGradient x1="50%" y1="0%" x2="50%" y2="100%" id="linearGradient-9">
            <stop stop-color="#E8EDF8" offset="0%"></stop>
            <stop stop-color="#F4F5F6" offset="100%"></stop>
        </linearGradient>
        <linearGradient x1="50%" y1="0%" x2="50%" y2="88.0272486%" id="linearGradient-10">
            <stop stop-color="#D0DDFC" offset="0%"></stop>
            <stop stop-color="#F3F4F8" offset="100%"></stop>
        </linearGradient>
        <linearGradient x1="50%" y1="0%" x2="50%" y2="100%" id="linearGradient-11">
            <stop stop-color="#E8EDF8" offset="0%"></stop>
            <stop stop-color="#F4F5F6" offset="100%"></stop>
        </linearGradient>
        <linearGradient x1="51.503123%" y1="45.4855527%" x2="50%" y2="54.8995405%" id="linearGradient-12">
            <stop stop-color="#DBE7FC" offset="0%"></stop>
            <stop stop-color="#F3F5F6" offset="100%"></stop>
        </linearGradient>
        <filter x="-15.3%" y="-55.1%" width="130.5%" height="210.2%" filterUnits="objectBoundingBox" id="filter-13">
            <feGaussianBlur stdDeviation="9" in="SourceGraphic"></feGaussianBlur>
        </filter>
        <filter x="-9.4%" y="-42.9%" width="118.8%" height="185.7%" filterUnits="objectBoundingBox" id="filter-14">
            <feGaussianBlur stdDeviation="2" in="SourceGraphic"></feGaussianBlur>
        </filter>
        <linearGradient x1="50%" y1="0%" x2="59.4937779%" y2="100%" id="linearGradient-15">
            <stop stop-color="#C4D5FA" offset="0%"></stop>
            <stop stop-color="#B7CEFE" offset="40.3554782%"></stop>
            <stop stop-color="#97BAFF" offset="100%"></stop>
        </linearGradient>
    </defs>
    <g id="页面-1" stroke="none" stroke-width="1" fill="none" fill-rule="evenodd">
        <g id="画板备份" transform="translate(-257.000000, -1750.000000)">
            <g id="7暂无数据" transform="translate(257.000000, 1750.000000)">
                <rect id="矩形备份-18" fill="none" x="0" y="0" width="1238" height="1116"></rect>
                <text id="暂无数据" font-family="PingFangSC-Medium, PingFang SC" font-size="48" font-weight="400" fill="#5480E5">
                    <tspan x="476" y="947">请先选择数据</tspan>
                </text>
                <g id="编组-4备份-3" transform="translate(121.000000, 150.000000)">
                    <g id="编组-14" opacity="0.352608817" transform="translate(123.000000, 129.000000)">
                        <polygon id="矩形" fill="url(#linearGradient-1)" points="-2.20268248e-13 194.199911 65.1873801 9.09494702e-13 65.1873801 194.199911"></polygon>
                        <polygon id="矩形备份-12" fill="url(#linearGradient-2)" points="63.1873801 0.199911087 152 127 139.578533 160.122877 63.1873801 194.199911"></polygon>
                    </g>
                    <g id="编组-14备份-5" transform="translate(512.000000, 124.000000)">
                        <polygon id="矩形" fill="url(#linearGradient-3)" points="-3.91928555e-13 131.831855 100.92048 2 92 159"></polygon>
                        <polygon id="矩形备份-12" fill="url(#linearGradient-4)" points="100.92048 0 252 174 92 159.640023"></polygon>
                    </g>
                    <g id="编组-14备份-9" transform="translate(690.000000, 260.000000)">
                        <polygon id="矩形" fill="url(#linearGradient-5)" points="1.03739239e-12 131.831855 73 2 66.5474442 159"></polygon>
                        <polygon id="矩形备份-12" fill="url(#linearGradient-6)" points="73.4673478 0 183 174 67 159.640023"></polygon>
                    </g>
                    <g id="编组-24" opacity="0.652297247" transform="translate(336.000000, 0.000000)">
                        <g id="编组-23" transform="translate(0.000000, 87.000998)">
                            <path d="M41.5999769,10.9990016 L106.407312,10.9990016 L106.407312,40.2100015 L106.407312,66.583486 L112.579439,107.380182 L150,233.31403 C123.383172,247.770678 97.8518025,254.999002 73.4058916,254.999002 C48.9599808,254.999002 24.4913502,247.770678 0,233.31403 L33.8848181,107.380182 L41.5999769,65.8599476 L41.5999769,39.4524941 L41.5999769,10.9990016 Z" id="矩形" fill="url(#linearGradient-7)"></path>
                            <ellipse id="椭圆形" fill="#E1E7FF" cx="75" cy="10.9990016" rx="33" ry="10"></ellipse>
                            <path d="M42,48.9990016 C42,54.5218491 56.326888,58.9990016 74,58.9990016 C91.673112,58.9990016 106,54.5218491 106,48.9990016" id="路径" stroke="#AEACEB" stroke-width="2" opacity="0.421526228"></path>
                            <path d="M42,72.9990016 C42,78.5218491 56.326888,82.9990016 74,82.9990016 C91.673112,82.9990016 106,78.5218491 106,72.9990016" id="路径" stroke="#AEACEB" stroke-width="2" opacity="0.421526228"></path>
                            <path d="M36,96.9990016 C36,102.521849 52.5654643,106.999002 73,106.999002 C93.4345357,106.999002 110,102.521849 110,96.9990016" id="路径" stroke="#AEACEB" stroke-width="2" opacity="0.421526228"></path>
                        </g>
                        <g id="编组-22" transform="translate(54.000000, 0.000000)">
                            <path d="M26.460902,98 C40.2118764,98 19.819388,66.6644124 51.3592436,56.9468964 C73.9007543,50.0017951 93.2496161,75.6817352 99.450994,59.7196929 C120.05186,6.69407566 152.151166,19.4223547 142.098797,9.19111212 C132.046428,-1.0401305 60.3514975,-4.93361032 26.460902,9.19111212 C6.18672593,17.6408636 0,41.5151636 0,50.0017951 C0,72.6747981 12.7099276,98 26.460902,98 Z" id="椭圆形" fill="#E0E8FF"></path>
                            <path d="M26.1569279,98 C39.7499356,98 19.5917094,70.6448739 50.7692456,62.1617434 C73.0518068,56.0988566 93.2534239,76.0961775 99.3835624,62.1617434 C119.747772,15.8718041 154.600469,12 133.390409,12 C126.837496,12 108.541781,41.8239126 92.5473605,49.1785667 C85.367599,52.4800095 71.08884,32.1225663 60.7095678,35.942769 C55.3160567,37.9279088 34.3797608,41.3258547 26.1569279,55.0682382 C19.9949567,65.3664131 0,50.6840594 0,56.0988566 C0,75.8917791 12.5639202,98 26.1569279,98 Z" id="椭圆形备份-7" fill="#D7DDF3"></path>
                        </g>
                    </g>
                    <g id="编组-13" opacity="0.733537946" transform="translate(20.000000, 317.000000)">
                        <polygon id="矩形" fill="url(#linearGradient-8)" points="78 1 78 270 0 270"></polygon>
                        <polygon id="矩形备份-11" fill="url(#linearGradient-9)" points="78.5442943 0 252 221.039529 113.757033 265.973538 78 270"></polygon>
                    </g>
                    <g id="编组-13备份" opacity="0.456287202" transform="translate(201.000000, 248.000000)">
                        <path d="M0.25890935,121.274772 C2.66644392,89.2119741 22.4935368,48.78705 59.740188,0 L65,221 L43.4072214,217.517379 C12.2341455,185.418439 -2.14862522,153.33757 0.25890935,121.274772 Z" id="矩形" fill="url(#linearGradient-10)"></path>
                        <polygon id="矩形备份-11" fill="url(#linearGradient-11)" points="60 0 162 90.7384369 143.92612 169.173357 60 223.001243"></polygon>
                    </g>
                    <ellipse id="椭圆形" fill="url(#linearGradient-12)" cx="471" cy="496" rx="471" ry="172"></ellipse>
                    <g id="编组" transform="translate(100.000000, 418.000000)" fill-rule="nonzero">
                        <polygon id="路径" fill="#B3CCFF" points="16 48 28 48 28 68 16 68"></polygon>
                        <polygon id="路径" fill="#A8C4FC" points="23.0004343 52 46 52 34.5006514 31.999564 23.0004343 12 11.5002171 31.999564 0 52"></polygon>
                        <polygon id="路径" fill="#B9D1FF" points="22 42 42 42 32 25 22 8 12 25 2 42"></polygon>
                        <polygon id="路径" fill="#CADDFD" points="23 30 40 30 31.5 14.9995694 23 0 14.5 14.9995694 6 30"></polygon>
                    </g>
                    <g id="编组备份-5" opacity="0.576892671" transform="translate(775.000000, 403.000000)" fill-rule="nonzero">
                        <polygon id="路径" fill="#B3CCFF" points="16 48 28 48 28 68 16 68"></polygon>
                        <polygon id="路径" fill="#A8C4FC" points="23.0004343 52 46 52 34.5006514 31.999564 23.0004343 12 11.5002171 31.999564 0 52"></polygon>
                        <polygon id="路径" fill="#B9D1FF" points="22 42 42 42 32 25 22 8 12 25 2 42"></polygon>
                        <polygon id="路径" fill="#CADDFD" points="23 30 40 30 31.5 14.9995694 23 0 14.5 14.9995694 6 30"></polygon>
                    </g>
                </g>
                <g id="编组-5" transform="translate(387.000000, 295.000000)">
                    <ellipse id="椭圆形备份-2" fill="#D2E0F9" opacity="0.558035714" filter="url(#filter-13)" transform="translate(89.500000, 468.500000) rotate(-1.000000) translate(-89.500000, -468.500000) " cx="89.5" cy="468.5" rx="88.5" ry="24.5"></ellipse>
                    <g id="编组-31" transform="translate(114.000000, 0.000000)">
                        <ellipse id="椭圆形" fill="#C3D5FB" filter="url(#filter-14)" cx="264" cy="385" rx="32" ry="7"></ellipse>
                        <path d="M219.885002,209.489506 L233.324201,206.48481 L234.889021,241.572449 L241.934959,248.420211 L244.05995,380.420424 C244.095509,382.629277 242.333706,384.448732 240.124854,384.484291 C240.103394,384.484637 240.081931,384.48481 240.060468,384.48481 L218.12538,384.48481 C215.916241,384.48481 214.12538,382.693949 214.12538,380.48481 L214.12538,248.303395 L214.12538,248.303395 L219.775317,241.083975 L219.885002,209.489506 Z" id="矩形" fill="#8BB0FE" transform="translate(229.125380, 295.484810) rotate(-29.000000) translate(-229.125380, -295.484810) "></path>
                        <path d="M209.375647,217.004696 L221.918899,214 L223.379398,249.08764 L229.955607,255.935402 L231.938996,387.939906 C231.972185,390.148796 230.208431,391.96636 227.999542,391.999549 C227.979512,391.99985 227.95948,392 227.939448,392 L208,392 C205.790861,392 204,390.209139 204,388 L204,255.818585 L204,255.818585 L209.273274,248.599165 L209.375647,217.004696 Z" id="矩形备份-22" fill="#B9CFFE" transform="translate(218.000000, 303.000000) rotate(-29.000000) translate(-218.000000, -303.000000) "></path>
                        <path d="M123.73822,243.459092 C180.268496,240.785978 207.529574,212.472786 208.950883,134.409614 C208.950883,73.106007 179.173649,20.325498 124.578911,26.4911531 C60.3552949,27.8530626 38,72.1162397 38,133.419847 C38,194.723454 75.0629919,247.534505 123.73822,243.459092 Z" id="椭圆形" fill="url(#linearGradient-15)" transform="translate(123.475442, 134.840172) rotate(-25.000000) translate(-123.475442, -134.840172) "></path>
                        <ellipse id="椭圆形" fill="#CEDEFE" transform="translate(107.518472, 148.056501) rotate(-30.000000) translate(-107.518472, -148.056501) " cx="107.518472" cy="148.056501" rx="63" ry="105"></ellipse>
                        <ellipse id="椭圆形备份-15" fill="#E1EAFC" transform="translate(107.652447, 150.288551) rotate(-30.000000) translate(-107.652447, -150.288551) " cx="107.652447" cy="150.288551" rx="46" ry="81"></ellipse>
                    </g>
                    <g id="编组-43" transform="translate(4.000000, 156.000000)">
                        <g id="编组" transform="translate(58.000000, 173.442694) scale(-1, 1) translate(-58.000000, -173.442694) translate(0.000000, 12.442694)">
                            <path d="M76.8359061,6.82608696 C72.591195,8.73517784 69.672956,10.3715415 67.8158948,12.0079051 C66.4894225,13.0988144 66.4894225,16.3715414 63.305889,19.3715415 C62.2447111,20.4624507 60.6529444,22.6442688 59.0611779,26.1897233 L59.0611779,27.007905 C59.0611779,27.2806322 59.0611779,27.5533594 59.3264723,28.0988142 L60.9182391,28.0988142 C60.9182391,29.1897234 60.9182391,30.2806323 60.6529447,31.3715415 C60.3876502,32.4624507 59.5917667,33.2806324 58.5305888,34.0988141 C58.2652944,35.7351777 58,36.826087 58,37.6442686 C58,38.4624503 58.5305888,38.7351778 59.3264723,39.007905 L68.611778,39.007905 L68.611778,48.826087 L82.9376787,48.826087 L82.9376787,33.5533596 L86.1212121,15.0079049 L76.8359061,6.82608696 Z" id="路径" fill="#FFD2D2" fill-rule="nonzero"></path>
                            <path d="M65.030303,7.06862741 C65.5577914,4.42156845 78.0391756,0.5 78.30292,0.5 C88.8526896,0.5 91.226388,5.79411762 92.545109,8.97058825 C94.1275744,13.7352942 92.545109,20.3529413 88.5889454,24.8529411 L82.2590836,36.5 C79.0941526,36.2352942 77.247943,35.9705883 77.247943,35.970588 L77.247943,31.7352941 L80.6766181,25.3823528 C80.6766181,23.7941175 79.0941526,22.7352938 76.1929659,22.7352941 C72.7642908,22.7352941 81.2041065,13.2058822 75.4017333,11.0882352 C69.5993601,8.97058825 67.7990399,11.6176469 68.3265283,8.97058825 L65.030303,7.06862741 Z" id="路径" fill="#050237" fill-rule="nonzero"></path>
                            <polygon id="路径" fill="#000000" fill-rule="nonzero" points="0 58.6209239 20.3542782 52.3478261 36.9090909 81.6222826 18.9973263 85.8043478"></polygon>
                            <path d="M9.99353789,72.0363112 L18.3860905,67.9133683 L21.5332978,77.042742 C26.7786431,91.7675382 29.9258504,98.8354404 30.9749196,98.8354401 C32.0239887,98.8354398 33.0730576,94.1235055 34.384394,84.9941318 L50.6449645,96.1849769 L36.4825321,122.984106 C32.5485232,125.929065 28.3522467,125.929065 23.8937034,122.984106 L7.37086535,79.987701 L5.27272727,79.3987093 L5.79726172,66.4408886 C5.79726172,65.2629048 6.5840634,64.673913 7.8953998,64.673913 C9.20673621,64.673913 9.99353789,65.2629048 9.99353789,66.4408886 L9.99353789,72.0363112 L9.99353789,72.0363112 Z M93.919064,83.816148 C102.836151,78.2207255 109.130566,79.1042134 113.326842,86.4666115 C117.785386,94.7124972 116.736317,119.744651 109.6551,162.152064 C104.934289,165.686015 101.787082,165.980511 99.9512113,163.035551 C97.8530732,159.5016 98.1153404,156.851137 101.262548,154.49517 C102.573884,154.49517 102.573884,148.01626 101.262548,134.763943 C106.245626,118.566667 103.885221,101.485903 93.919064,83.816148 Z" id="形状" fill="#FFD2D2" fill-rule="nonzero"></path>
                            <path d="M92.609434,280.547942 C99.3078667,277.895069 102.399451,280.253179 101.884187,287.917034 C94.1552262,301.1814 90.5483779,307.666201 90.5483779,307.666201 C86.6838976,310.02431 83.8499452,310.02431 82.304153,307.666201 C81.2736248,306.192382 79.7278326,304.718564 79.2125686,303.539509 C78.6973047,301.1814 79.9854646,297.938999 79.9854646,296.170417 C79.9854646,294.107071 84.1075769,288.801325 92.609434,280.547942 L92.609434,280.547942 Z" id="路径" fill="#000000" fill-rule="nonzero"></path>
                            <path d="M42.9671178,112.390406 L29.8787879,92.2052202 C37.9935526,63.7084875 47.4171501,47.9759164 58.1495807,45.3043478 L95.8439716,45.3043478 C108.670535,63.1148056 115.2147,77.3631721 116,88.0494467 L108.408768,92.2052202 L96.6292713,92.2052202 L96.6292713,138 C90,149.406793 50.6638466,142.745856 50.6638466,142.152174 C50.6638466,141.855333 46.108317,132.27875 49.2495163,96.9546758 L42.9671178,112.390406 Z" id="路径" fill="#FFFFFF" fill-rule="nonzero"></path>
                            <path d="M47.9166614,242.794415 C48.9564223,249.311277 51.8157645,270.942503 54.1552261,305.007923 C56.4946877,306.78525 58.5742095,307.673913 60.9136711,307.673913 C62.9931926,307.673913 65.3326545,306.78525 67.9320562,305.007923 L71.8311593,217.542474 L71.8311593,187.408167 L74.9504414,187.408167 C74.1706209,206.662536 74.1706209,220.584925 74.9504414,228.582893 C75.7302618,236.580861 77.289903,260.574766 79.1094846,300.268387 L85.8679296,300.268387 C88.4673316,300.268387 90.5468531,299.675945 91.8465541,298.194839 C96.8185985,262.943141 99.5668063,236.059019 100.091178,217.542474 C100.777615,193.30307 104.742588,131.298437 97.0849261,127.855743 C89.4272639,124.413049 93.2429256,127.855743 74.9504414,127.855743 C56.6579571,127.855743 58.185368,125.192825 47.9166614,125.192825 C37.6479548,125.192825 46.8769005,236.277552 47.9166614,242.794415 Z" id="路径" fill="#3484FE" fill-rule="nonzero"></path>
                            <path d="M43.9578135,305.080788 C41.0458536,305.67323 38.6633411,306.561893 37.339723,307.154335 C35.2219341,308.042998 30.7216327,311.005209 30.7216327,314.559861 C30.7216327,318.114514 33.368869,319.595619 35.2219341,320.188061 C36.2808287,320.780503 38.133894,321.076724 40.5164065,321.669167 L69.1065576,321.669167 C69.3712812,320.484282 69.6360048,319.003177 69.9007287,317.818293 C70.1654522,316.633409 69.9007287,315.152304 69.1065576,313.671198 C68.0476631,313.078756 67.2534923,312.190093 66.9887687,311.30143 C66.4593216,310.116546 66.7240452,306.858115 66.7240452,306.858114 C60.1059546,303.599683 52.6936933,303.303462 43.9578135,305.080788 L43.9578135,305.080788 Z M23.3476778,84.8004877 L16.2001401,86.874035 L8.78787879,70.5818772 L17.5237583,66.4347826 L27.0538085,83.9118244 L23.3476778,84.8004877 Z" id="形状" fill="#000000" fill-rule="nonzero"></path>
                            <path d="M65.030303,138 C65.2218605,78 62.2117595,48 56,48" id="路径-86" stroke="#3484FE" stroke-width="4"></path>
                            <line x1="92.4335155" y1="138" x2="90" y2="47.4528673" id="路径-86备份" stroke="#3484FE" stroke-width="4"></line>
                        </g>
                        <path d="M49.1186053,29.5676941 L51.8977263,29.5676941 C53.4136375,29.5676941 54.4242424,28.3605556 54.4242424,26.5498433 C54.4242424,24.739131 53.4136375,23.5319925 51.8977263,23.5319925 L49.1185535,23.5319925 C47.8552917,15.0820048 41.7916472,8.44269411 34.2120694,8.44269411 C26.6324916,8.44269411 20.5688693,15.0819695 19.3055853,23.5319925 L16.5265161,23.5319925 C15.010605,23.5319925 14,24.739131 14,26.5498433 C14,28.3605556 15.010605,29.5676941 16.5265161,29.5676941 L49.1186053,29.5676941 Z" id="形状备份-9" fill="#FBEA34" fill-rule="nonzero" transform="translate(34.212121, 19.005194) rotate(-26.000000) translate(-34.212121, -19.005194) "></path>
                    </g>
                </g>
            </g>
        </g>
    </g>
</svg>
