<?xml version="1.0" encoding="UTF-8"?>
<svg width="1238px" height="1116px" viewBox="0 0 1238 1116" version="1.1" xmlns="http://www.w3.org/2000/svg" xmlns:xlink="http://www.w3.org/1999/xlink">
    <!-- Generator: Sketch 60.1 (88133) - https://sketch.com -->
    <title>9暂无消息</title>
    <desc>Created with Sketch.</desc>
    <defs>
        <linearGradient x1="50%" y1="0%" x2="50%" y2="86.0706991%" id="linearGradient-1">
            <stop stop-color="#D2DEFB" offset="0%"></stop>
            <stop stop-color="#F3F4F8" offset="100%"></stop>
        </linearGradient>
        <linearGradient x1="50%" y1="0%" x2="50%" y2="43.9096274%" id="linearGradient-2">
            <stop stop-color="#E5ECF8" offset="0%"></stop>
            <stop stop-color="#F3F4F6" offset="100%"></stop>
        </linearGradient>
        <linearGradient x1="50%" y1="0%" x2="50%" y2="86.0706991%" id="linearGradient-3">
            <stop stop-color="#D8E3FB" offset="0%"></stop>
            <stop stop-color="#F3F4F8" offset="100%"></stop>
        </linearGradient>
        <linearGradient x1="50%" y1="0%" x2="50%" y2="43.9096274%" id="linearGradient-4">
            <stop stop-color="#E5ECF8" offset="0%"></stop>
            <stop stop-color="#F3F4F6" offset="100%"></stop>
        </linearGradient>
        <linearGradient x1="50%" y1="0%" x2="50%" y2="86.0706991%" id="linearGradient-5">
            <stop stop-color="#D8E3FB" offset="0%"></stop>
            <stop stop-color="#F3F4F8" offset="100%"></stop>
        </linearGradient>
        <linearGradient x1="50%" y1="0%" x2="50%" y2="43.9096274%" id="linearGradient-6">
            <stop stop-color="#E5ECF8" offset="0%"></stop>
            <stop stop-color="#F3F4F6" offset="100%"></stop>
        </linearGradient>
        <linearGradient x1="50%" y1="0%" x2="50%" y2="100%" id="linearGradient-7">
            <stop stop-color="#D4E0FC" offset="0%"></stop>
            <stop stop-color="#E0E8FE" offset="100%"></stop>
        </linearGradient>
        <linearGradient x1="50%" y1="0%" x2="50%" y2="88.0272486%" id="linearGradient-8">
            <stop stop-color="#D0DDFC" offset="0%"></stop>
            <stop stop-color="#F3F4F8" offset="100%"></stop>
        </linearGradient>
        <linearGradient x1="50%" y1="0%" x2="50%" y2="100%" id="linearGradient-9">
            <stop stop-color="#E8EDF8" offset="0%"></stop>
            <stop stop-color="#F4F5F6" offset="100%"></stop>
        </linearGradient>
        <linearGradient x1="50%" y1="0%" x2="50%" y2="88.0272486%" id="linearGradient-10">
            <stop stop-color="#D0DDFC" offset="0%"></stop>
            <stop stop-color="#F3F4F8" offset="100%"></stop>
        </linearGradient>
        <linearGradient x1="50%" y1="0%" x2="50%" y2="100%" id="linearGradient-11">
            <stop stop-color="#E8EDF8" offset="0%"></stop>
            <stop stop-color="#F4F5F6" offset="100%"></stop>
        </linearGradient>
        <linearGradient x1="51.503123%" y1="45.4855527%" x2="50%" y2="54.8995405%" id="linearGradient-12">
            <stop stop-color="#DBE7FC" offset="0%"></stop>
            <stop stop-color="#F3F5F6" offset="100%"></stop>
        </linearGradient>
        <linearGradient x1="42.1103093%" y1="47.9130535%" x2="58.7259515%" y2="51.4509083%" id="linearGradient-13">
            <stop stop-color="#9EBFF9" offset="0%"></stop>
            <stop stop-color="#78A1EA" offset="100%"></stop>
        </linearGradient>
        <linearGradient x1="50%" y1="87.4550228%" x2="51.9963458%" y2="17.3826499%" id="linearGradient-14">
            <stop stop-color="#719CE9" stop-opacity="0" offset="0%"></stop>
            <stop stop-color="#98B9FE" offset="100%"></stop>
        </linearGradient>
        <linearGradient x1="54.327733%" y1="91.2620919%" x2="56.0118032%" y2="15.5529292%" id="linearGradient-15">
            <stop stop-color="#7CA7F5" stop-opacity="0" offset="0%"></stop>
            <stop stop-color="#93B6F2" offset="100%"></stop>
        </linearGradient>
        <linearGradient x1="50%" y1="44.4349153%" x2="58.7259515%" y2="53.8690151%" id="linearGradient-16">
            <stop stop-color="#9EBFF9" offset="0%"></stop>
            <stop stop-color="#78A1EA" offset="100%"></stop>
        </linearGradient>
        <linearGradient x1="50.0045387%" y1="100%" x2="50%" y2="16.2348301%" id="linearGradient-17">
            <stop stop-color="#E5EDF8" offset="0%"></stop>
            <stop stop-color="#78A1EA" offset="100%"></stop>
        </linearGradient>
        <linearGradient x1="52.8277441%" y1="79.1955047%" x2="52.3665872%" y2="15.5529292%" id="linearGradient-18">
            <stop stop-color="#DDE7F7" offset="0%"></stop>
            <stop stop-color="#78A1EA" offset="100%"></stop>
        </linearGradient>
        <linearGradient x1="-7.03846309%" y1="50%" x2="88.4026093%" y2="50%" id="linearGradient-19">
            <stop stop-color="#EAEEF6" offset="0%"></stop>
            <stop stop-color="#B0CBFD" offset="100%"></stop>
        </linearGradient>
        <linearGradient x1="-7.03846309%" y1="50%" x2="88.4026093%" y2="50%" id="linearGradient-20">
            <stop stop-color="#EAEEF6" offset="0%"></stop>
            <stop stop-color="#C6D8F9" offset="100%"></stop>
        </linearGradient>
        <linearGradient x1="0%" y1="51.4121988%" x2="100%" y2="50%" id="linearGradient-21">
            <stop stop-color="#D5E0FA" offset="0%"></stop>
            <stop stop-color="#ABC6FC" offset="100%"></stop>
        </linearGradient>
        <linearGradient x1="0%" y1="50.4716658%" x2="100%" y2="50%" id="linearGradient-22">
            <stop stop-color="#D5E0FA" offset="0%"></stop>
            <stop stop-color="#ABC6FC" offset="100%"></stop>
        </linearGradient>
    </defs>
    <g id="页面-1" stroke="none" stroke-width="1" fill="none" fill-rule="evenodd">
        <g id="画板备份" transform="translate(-3105.000000, -1797.000000)">
            <g id="9暂无消息" transform="translate(3105.000000, 1797.000000)">
                <g id="编组-37">
                    <rect id="矩形备份-20" fill="#F5F5F5" x="0" y="0" width="1238" height="1116"></rect>
                    <text id="暂无消息" font-family="PingFangSC-Medium, PingFang SC" font-size="48" font-weight="400" fill="#5480E5">
                        <tspan x="476" y="947">暂无消息</tspan>
                    </text>
                    <g id="编组-4备份-5" transform="translate(161.000000, 103.000000)">
                        <g id="编组-14" opacity="0.352608817" transform="translate(123.000000, 20.000000)">
                            <polygon id="矩形" fill="url(#linearGradient-1)" points="-2.20268248e-13 194.199911 65.1873801 9.09494702e-13 65.1873801 194.199911"></polygon>
                            <polygon id="矩形备份-12" fill="url(#linearGradient-2)" points="63.1873801 0.199911087 152 127 139.578533 160.122877 63.1873801 194.199911"></polygon>
                        </g>
                        <g id="编组-14备份-5" transform="translate(512.000000, 15.000000)">
                            <polygon id="矩形" fill="url(#linearGradient-3)" points="-3.91928555e-13 131.831855 100.92048 2 92 159"></polygon>
                            <polygon id="矩形备份-12" fill="url(#linearGradient-4)" points="100.92048 0 252 174 92 159.640023"></polygon>
                        </g>
                        <g id="编组-14备份-9" transform="translate(690.000000, 151.000000)">
                            <polygon id="矩形" fill="url(#linearGradient-5)" points="1.03739239e-12 131.831855 73 2 66.5474442 159"></polygon>
                            <polygon id="矩形备份-12" fill="url(#linearGradient-6)" points="73.4673478 0 183 174 67 159.640023"></polygon>
                        </g>
                        <g id="编组-24" opacity="0.652297247" transform="translate(372.000000, 0.000000)">
                            <g id="编组-23" transform="translate(0.000000, 87.000998)">
                                <path d="M41.5999769,10.9990016 L106.407312,10.9990016 L106.407312,40.2100015 L106.407312,66.583486 L112.579439,107.380182 L150,233.31403 C123.383172,247.770678 97.8518025,254.999002 73.4058916,254.999002 C48.9599808,254.999002 24.4913502,247.770678 0,233.31403 L33.8848181,107.380182 L41.5999769,65.8599476 L41.5999769,39.4524941 L41.5999769,10.9990016 Z" id="矩形" fill="url(#linearGradient-7)"></path>
                                <ellipse id="椭圆形" fill="#E1E7FF" cx="75" cy="10.9990016" rx="33" ry="10"></ellipse>
                                <path d="M42,48.9990016 C42,54.5218491 56.326888,58.9990016 74,58.9990016 C91.673112,58.9990016 106,54.5218491 106,48.9990016" id="路径" stroke="#AEACEB" stroke-width="2" opacity="0.421526228"></path>
                                <path d="M42,72.9990016 C42,78.5218491 56.326888,82.9990016 74,82.9990016 C91.673112,82.9990016 106,78.5218491 106,72.9990016" id="路径" stroke="#AEACEB" stroke-width="2" opacity="0.421526228"></path>
                                <path d="M36,96.9990016 C36,102.521849 52.5654643,106.999002 73,106.999002 C93.4345357,106.999002 110,102.521849 110,96.9990016" id="路径" stroke="#AEACEB" stroke-width="2" opacity="0.421526228"></path>
                            </g>
                            <g id="编组-22" transform="translate(54.000000, 0.000000)">
                                <path d="M26.460902,98 C40.2118764,98 19.819388,66.6644124 51.3592436,56.9468964 C73.9007543,50.0017951 93.2496161,75.6817352 99.450994,59.7196929 C120.05186,6.69407566 152.151166,19.4223547 142.098797,9.19111212 C132.046428,-1.0401305 60.3514975,-4.93361032 26.460902,9.19111212 C6.18672593,17.6408636 0,41.5151636 0,50.0017951 C0,72.6747981 12.7099276,98 26.460902,98 Z" id="椭圆形" fill="#E0E8FF"></path>
                                <path d="M26.1569279,98 C39.7499356,98 19.5917094,70.6448739 50.7692456,62.1617434 C73.0518068,56.0988566 93.2534239,76.0961775 99.3835624,62.1617434 C119.747772,15.8718041 154.600469,12 133.390409,12 C126.837496,12 108.541781,41.8239126 92.5473605,49.1785667 C85.367599,52.4800095 71.08884,32.1225663 60.7095678,35.942769 C55.3160567,37.9279088 34.3797608,41.3258547 26.1569279,55.0682382 C19.9949567,65.3664131 0,50.6840594 0,56.0988566 C0,75.8917791 12.5639202,98 26.1569279,98 Z" id="椭圆形备份-7" fill="#D7DDF3"></path>
                            </g>
                        </g>
                        <g id="编组-13" opacity="0.733537946" transform="translate(20.000000, 208.000000)">
                            <polygon id="矩形" fill="url(#linearGradient-8)" points="78 1 78 270 0 270"></polygon>
                            <polygon id="矩形备份-11" fill="url(#linearGradient-9)" points="78.5442943 0 252 221.039529 113.757033 265.973538 78 270"></polygon>
                        </g>
                        <g id="编组-13备份" opacity="0.456287202" transform="translate(201.000000, 139.000000)">
                            <path d="M0.25890935,121.274772 C2.66644392,89.2119741 22.4935368,48.78705 59.740188,0 L65,221 L43.4072214,217.517379 C12.2341455,185.418439 -2.14862522,153.33757 0.25890935,121.274772 Z" id="矩形" fill="url(#linearGradient-10)"></path>
                            <polygon id="矩形备份-11" fill="url(#linearGradient-11)" points="60 0 162 90.7384369 143.92612 169.173357 60 223.001243"></polygon>
                        </g>
                        <ellipse id="椭圆形" fill="url(#linearGradient-12)" cx="471" cy="387" rx="471" ry="172"></ellipse>
                        <g id="编组" transform="translate(100.000000, 309.000000)" fill-rule="nonzero">
                            <polygon id="路径" fill="#B3CCFF" points="16 48 28 48 28 68 16 68"></polygon>
                            <polygon id="路径" fill="#A8C4FC" points="23.0004343 52 46 52 34.5006514 31.999564 23.0004343 12 11.5002171 31.999564 0 52"></polygon>
                            <polygon id="路径" fill="#B9D1FF" points="22 42 42 42 32 25 22 8 12 25 2 42"></polygon>
                            <polygon id="路径" fill="#CADDFD" points="23 30 40 30 31.5 14.9995694 23 0 14.5 14.9995694 6 30"></polygon>
                        </g>
                        <g id="编组备份-5" opacity="0.576892671" transform="translate(775.000000, 294.000000)" fill-rule="nonzero">
                            <polygon id="路径" fill="#B3CCFF" points="16 48 28 48 28 68 16 68"></polygon>
                            <polygon id="路径" fill="#A8C4FC" points="23.0004343 52 46 52 34.5006514 31.999564 23.0004343 12 11.5002171 31.999564 0 52"></polygon>
                            <polygon id="路径" fill="#B9D1FF" points="22 42 42 42 32 25 22 8 12 25 2 42"></polygon>
                            <polygon id="路径" fill="#CADDFD" points="23 30 40 30 31.5 14.9995694 23 0 14.5 14.9995694 6 30"></polygon>
                        </g>
                    </g>
                </g>
                <g id="编组-44" transform="translate(415.000000, 99.000000)">
                    <g id="编组-35" transform="translate(5.000000, 48.000000)">
                        <g id="编组" opacity="0.688964844"></g>
                        <g id="编组-3" transform="translate(84.000000, 196.000000)">
                            <g id="编组备份">
                                <polygon id="路径-2" fill="url(#linearGradient-13)" points="2 18.9411522 97.3431413 38 188 18.9411522 97.3431413 -2.10942375e-15"></polygon>
                                <polygon id="路径-3" fill="url(#linearGradient-14)" points="0 18 94 37.2420622 94 266 0 252.588386"></polygon>
                                <polygon id="路径-4" fill="url(#linearGradient-15)" points="94 37.2420622 188 18 188 238.305373 94 266"></polygon>
                            </g>
                            <polygon id="路径-14" fill-opacity="0.463860358" fill="#5A84EA" points="112.078779 83.282932 112.078779 113.864071 128.035275 120.172996 128.035275 76.641466"></polygon>
                            <polygon id="路径-14备份" fill-opacity="0.463860358" fill="#5A84EA" points="112.078779 156.641466 112.078779 187.222605 128.035275 193.53153 128.035275 150"></polygon>
                        </g>
                        <g id="编组-36" transform="translate(86.000000, 80.000000)">
                            <g id="编组-2" transform="translate(0.000000, 5.760000)">
                                <path d="M79.4167768,52.9586834 L75.4229918,42.7639733 C67.1884401,41.4202045 63.0711642,37.6199135 63.0711642,31.3631002 C63.0711642,25.106287 63.9996344,18.2441605 65.8565748,10.7767209 C72.3754947,5.28172933 76.895562,3.40362726 79.4167768,5.14241471 C83.1985989,7.75059589 90.6633933,16.0281121 90.6633933,22.3825981 C90.6633933,26.6189221 89.7477083,29.6124228 87.9163384,31.3631002 L90.6633933,42.7639733 L92.8800828,46.3522064 L79.4167768,52.9586834 Z" id="路径-5" fill="#FFD2D2"></path>
                                <path d="M59.3797678,19.7744169 L87.8118524,19.7744169 L92.8800828,26.1216083 C96.258903,19.0862204 96.258903,13.3690308 92.8800828,8.97003963 C87.8118524,2.37155286 80.5745464,-1.40052255 77.9756235,0.485515153 C75.3767006,2.37155286 67.8431306,0.0609299041 65.4571474,4.51548476 C63.866492,7.48518801 61.8406988,12.5714987 59.3797678,19.7744169 Z" id="路径-6" fill="#3F3D3D"></path>
                                <path d="M75.3052798,49.1071969 C62.9829904,51.1519475 56.8218457,54.0691779 56.8218457,57.858888 C56.8218457,61.6485982 55.3343536,67.3353678 52.3593694,74.9191969 L67.5415762,74.9191969 L67.5415762,113.305222 C67.5415762,123.944274 67.5415762,129.2638 67.5415762,129.2638 C67.5415762,129.2638 81.7269781,129.2638 110.097782,129.2638 L110.097782,87.4482538 L113.806372,81.6724287 L116.359004,79.7321641 L110.097782,52.9586834 C105.149468,49.9298768 101.042773,48.0715956 97.7776968,47.3838399 C94.5126208,46.6960842 91.8471266,48.5543654 89.7812144,52.9586834 C85.6125873,54.2927895 82.1577747,54.2927895 79.4167768,52.9586834 C76.6757788,51.6245773 75.3052798,50.3407485 75.3052798,49.1071969 Z" id="路径-7" fill="#FFFFFF" opacity="0.997093564"></path>
                                <path d="M110.097782,129.2638 C110.468112,138.707214 109.398123,145.002383 106.887814,148.149306 C104.377506,151.296229 91.3996446,156.103906 67.9542296,162.572336 L63.0711642,218.063639 L49.519732,218.063639 L49.519732,153.47809 L79.8444637,129.2638 L110.097782,129.2638 Z" id="路径-10" fill="#3484FE"></path>
                                <path d="M56.0706049,121.300382 C67.9520253,126.609327 73.8927354,129.2638 73.8927354,129.2638 C73.8927354,129.2638 62.849936,145.653547 56.0706049,150.354092 C51.5510509,153.487789 45.6147494,155.179845 38.2617005,155.430258 L31.4119184,210.822811 L17.8657766,210.822811 L17.8657766,144.838821 C38.3873481,130.455909 49.8852124,122.609763 52.3593694,121.300382 C54.8335264,119.991001 56.0706049,119.991001 56.0706049,121.300382 Z" id="路径-11" fill="#3484FE"></path>
                                <path d="M61.8192813,218.294461 C64.4409238,223.483033 64.4409238,226.07732 61.8192813,226.07732 C57.8868176,226.07732 51.9083251,235.878036 48.2678491,235.878036 C45.8408651,235.878036 39.7515821,235.878036 30,235.878036 L30,231.386264 C38.2413264,222.694703 43.1171174,218.330768 44.6273731,218.294461 C46.1376288,218.258154 48.2976666,218.24 51.1074865,218.24 L61.8192813,218.294461 Z" id="路径-12" fill="#3855A0"></path>
                                <path d="M31.2518829,212.946473 C32.5321666,218.366661 32.5321666,221.094908 31.2518829,221.131215 C29.3314574,221.185676 16.0101588,229.950233 14.0950237,229.950233 C12.818267,229.950233 8.11992578,229.950233 0,229.950233 L0,224.512672 L7.94225557,224.512672 L16.1060478,212.946473 L17.8657766,210.822811 L31.4119184,210.822811 L31.2518829,212.946473 Z" id="路径-13" fill="#3855A0"></path>
                                <path d="M69.3167702,78.24 C85.0256453,73.2231923 94.000069,73.2231923 96.2400414,78.24 C98.4800138,83.2568077 99.2,100.264741 98.4,129.2638 L67.2,129.2638 L69.3167702,78.24 Z" id="路径-75" fill="#3484FE"></path>
                                <polygon id="路径-9" fill="#FFD2D2" points="56.0706049 75.9098296 56.0706049 121.300382 56.0706049 129.2638 62.0124173 135.942811 67.9542296 129.2638 67.9542296 118.743783 67.9542296 98.374311 67.9542296 75.9098296"></polygon>
                                <path d="M113.806372,83.8534078 C112.33387,96.7805694 109.967285,104.645232 106.706617,107.447396 C103.44595,110.249559 93.6760718,117.521694 77.3969829,129.2638 C76.5095135,132.940647 74.2859906,135.34647 70.7264141,136.481266 C65.3870492,138.183462 57.6749273,138.512791 59.3797678,136.481266 C60.5163282,135.126917 62.5787135,132.721094 65.5669238,129.2638 L68.7160513,121.597969 L74.3966487,118.448841 L99.0553353,101.416307 L99.0553353,81.3100343 L113.806372,81.6724287 L113.806372,83.8534078 Z" id="路径-8" fill="#FFD2D2"></path>
                                <path d="M92.8800828,78.24 C93.429466,55.4971989 95.6694384,45.1653667 99.6,47.2445034" id="路径-76" stroke="#4A8EEB" stroke-width="4.8"></path>
                                <path d="M69.3167702,78.24 C69.2825742,76.5119654 69.2825742,75.254108 69.3167702,74.4664279 C70.0390563,57.8291012 70.2499807,50.421003 73.9199172,52.0606389" id="路径-76备份" stroke="#4A8EEB" stroke-width="4.8"></path>
                            </g>
                            <path d="M94.7520509,25.92 L97.9199989,25.92 C99.6480013,25.92 100.8,24.4388624 100.8,22.2171506 C100.8,19.9954388 99.6480013,18.5143012 97.9199989,18.5143012 L94.7519919,18.5143012 C93.3119871,8.1463164 86.3999779,0 77.7599409,0 C69.119904,0 62.2079201,8.14627301 60.76789,18.5143012 L57.6000011,18.5143012 C55.8719987,18.5143012 54.72,19.9954388 54.72,22.2171506 C54.72,24.4388624 55.8719987,25.92 57.6000011,25.92 L94.7520509,25.92 Z" id="形状备份-3" fill="#FBEA34" fill-rule="nonzero"></path>
                        </g>
                    </g>
                    <g id="编组" transform="translate(267.000000, 316.000000)">
                        <polygon id="路径-2" fill="url(#linearGradient-16)" points="-2.35544917e-12 12.1729962 42.3306615 28.244633 84.661323 12.1729962 43.3971854 -1.35567293e-15"></polygon>
                        <polygon id="路径-3" fill="url(#linearGradient-17)" points="2 12.1729962 44.3306615 28.711772 45 190.172996 2.66933848 178.645558"></polygon>
                        <polygon id="路径-4" fill="url(#linearGradient-18)" points="42.3306615 25 84.661323 12.1729962 84.661323 170.295401 42.3306615 190.172996"></polygon>
                    </g>
                    <polygon id="路径-14备份-2" fill-opacity="0.463860358" fill="#5A84EA" points="321 373.661603 321 390.521735 329 394 329 370"></polygon>
                    <polygon id="路径-14备份-3" fill-opacity="0.463860358" fill="#5A84EA" points="321 413.661603 321 430.521735 329 434 329 410"></polygon>
                    <g id="编组-8">
                        <rect id="矩形" fill="url(#linearGradient-19)" x="6" y="0" width="189" height="126" rx="17"></rect>
                        <rect id="矩形备份-3" fill="url(#linearGradient-20)" x="0" y="0" width="189" height="126" rx="17"></rect>
                        <g id="编组" transform="translate(119.000000, 21.000000)" fill="#B0CBFC" fill-rule="nonzero">
                            <path d="M17.4615419,13.0010698 L26.178895,4.60578184 C26.7035076,4.10694565 27,3.41821549 27,2.69841491 C27,1.97861433 26.7035076,1.28988417 26.178895,0.791047975 C25.0736077,-0.26320365 23.3230616,-0.26320365 22.2177743,0.791047975 L13.4996078,9.18472678 L4.78385248,0.791076709 C3.67846097,-0.263692236 1.9273099,-0.263692236 0.821918393,0.791076709 C0.297305773,1.28991291 0.000813383738,1.97864306 0.000813383738,2.69844364 C0.000813383738,3.41824423 0.297305773,4.10697438 0.821918393,4.60581058 L9.53930051,13.001041 L0.821105009,21.3963577 C0.296492389,21.8951939 0,22.583924 0,23.3037246 C0,24.0235252 0.296492389,24.7122553 0.821105009,25.2110915 C1.34608611,25.7168685 2.05919126,26.0023701 2.80204301,26 C3.5449238,26 4.25721556,25.7168685 4.78301005,25.2110915 L13.4995788,16.8158036 L22.2169319,25.2110915 C22.7411286,25.7168685 23.4542338,26.0023701 24.1970855,26 C24.9399663,26 25.6530715,25.7168685 26.1780526,25.2110915 C26.7026652,24.7122553 26.9991576,24.0235252 26.9991576,23.3037246 C26.9991576,22.583924 26.7026652,21.8951939 26.1780526,21.3963577 L17.4614838,13.0010698 L17.4615419,13.0010698 Z" id="路径"></path>
                        </g>
                        <rect id="矩形" fill="url(#linearGradient-21)" x="9" y="30" width="89" height="8" rx="4"></rect>
                        <rect id="矩形备份" fill="url(#linearGradient-22)" x="9" y="58" width="154" height="8" rx="4"></rect>
                        <rect id="矩形备份-2" fill="url(#linearGradient-22)" x="9" y="86" width="154" height="8" rx="4"></rect>
                    </g>
                </g>
            </g>
        </g>
    </g>
</svg>