<?xml version="1.0" encoding="UTF-8"?>
<svg width="1238px" height="1116px" viewBox="0 0 1238 1116" version="1.1" xmlns="http://www.w3.org/2000/svg" xmlns:xlink="http://www.w3.org/1999/xlink">
    <!-- Generator: Sketch 60.1 (88133) - https://sketch.com -->
    <title>8暂无订单</title>
    <desc>Created with Sketch.</desc>
    <defs>
        <linearGradient x1="50%" y1="0%" x2="50%" y2="86.0706991%" id="linearGradient-1">
            <stop stop-color="#D2DEFB" offset="0%"></stop>
            <stop stop-color="#F3F4F8" offset="100%"></stop>
        </linearGradient>
        <linearGradient x1="50%" y1="0%" x2="50%" y2="43.9096274%" id="linearGradient-2">
            <stop stop-color="#E5ECF8" offset="0%"></stop>
            <stop stop-color="#F3F4F6" offset="100%"></stop>
        </linearGradient>
        <linearGradient x1="50%" y1="0%" x2="50%" y2="86.0706991%" id="linearGradient-3">
            <stop stop-color="#D8E3FB" offset="0%"></stop>
            <stop stop-color="#F3F4F8" offset="100%"></stop>
        </linearGradient>
        <linearGradient x1="50%" y1="0%" x2="50%" y2="43.9096274%" id="linearGradient-4">
            <stop stop-color="#E5ECF8" offset="0%"></stop>
            <stop stop-color="#F3F4F6" offset="100%"></stop>
        </linearGradient>
        <linearGradient x1="50%" y1="0%" x2="50%" y2="86.0706991%" id="linearGradient-5">
            <stop stop-color="#D8E3FB" offset="0%"></stop>
            <stop stop-color="#F3F4F8" offset="100%"></stop>
        </linearGradient>
        <linearGradient x1="50%" y1="0%" x2="50%" y2="43.9096274%" id="linearGradient-6">
            <stop stop-color="#E5ECF8" offset="0%"></stop>
            <stop stop-color="#F3F4F6" offset="100%"></stop>
        </linearGradient>
        <linearGradient x1="50%" y1="0%" x2="50%" y2="100%" id="linearGradient-7">
            <stop stop-color="#D4E0FC" offset="0%"></stop>
            <stop stop-color="#E0E8FE" offset="100%"></stop>
        </linearGradient>
        <linearGradient x1="50%" y1="0%" x2="50%" y2="88.0272486%" id="linearGradient-8">
            <stop stop-color="#D0DDFC" offset="0%"></stop>
            <stop stop-color="#F3F4F8" offset="100%"></stop>
        </linearGradient>
        <linearGradient x1="50%" y1="0%" x2="50%" y2="100%" id="linearGradient-9">
            <stop stop-color="#E8EDF8" offset="0%"></stop>
            <stop stop-color="#F4F5F6" offset="100%"></stop>
        </linearGradient>
        <linearGradient x1="50%" y1="0%" x2="50%" y2="88.0272486%" id="linearGradient-10">
            <stop stop-color="#D0DDFC" offset="0%"></stop>
            <stop stop-color="#F3F4F8" offset="100%"></stop>
        </linearGradient>
        <linearGradient x1="50%" y1="0%" x2="50%" y2="100%" id="linearGradient-11">
            <stop stop-color="#E8EDF8" offset="0%"></stop>
            <stop stop-color="#F4F5F6" offset="100%"></stop>
        </linearGradient>
        <linearGradient x1="51.503123%" y1="45.4855527%" x2="50%" y2="54.8995405%" id="linearGradient-12">
            <stop stop-color="#DBE7FC" offset="0%"></stop>
            <stop stop-color="#F3F5F6" offset="100%"></stop>
        </linearGradient>
        <filter x="-4.7%" y="-32.6%" width="109.5%" height="165.2%" filterUnits="objectBoundingBox" id="filter-13">
            <feGaussianBlur stdDeviation="5" in="SourceGraphic"></feGaussianBlur>
        </filter>
        <linearGradient x1="39.4690666%" y1="17.4156442%" x2="50%" y2="91.556644%" id="linearGradient-14">
            <stop stop-color="#7CA7FF" offset="0%"></stop>
            <stop stop-color="#E2EBFA" offset="100%"></stop>
        </linearGradient>
        <linearGradient x1="50%" y1="0%" x2="50%" y2="91.556644%" id="linearGradient-15">
            <stop stop-color="#96B8FF" offset="0%"></stop>
            <stop stop-color="#E2EBFA" offset="100%"></stop>
        </linearGradient>
    </defs>
    <g id="页面-1" stroke="none" stroke-width="1" fill="none" fill-rule="evenodd">
        <g id="画板备份" transform="translate(-1647.000000, -1740.000000)">
            <g id="8暂无订单" transform="translate(1647.000000, 1740.000000)">
                <rect id="矩形备份-19" fill="#F6F6F6" x="0" y="0" width="1238" height="1116"></rect>
                <text id="暂无订单" font-family="PingFangSC-Medium, PingFang SC" font-size="48" font-weight="400" fill="#5480E5">
                    <tspan x="532" y="939">暂无订单</tspan>
                </text>
                <g id="编组-4备份-4" transform="translate(148.000000, 256.000000)">
                    <g id="编组-14" opacity="0.352608817" transform="translate(123.000000, 74.000000)">
                        <polygon id="矩形" fill="url(#linearGradient-1)" points="-2.20268248e-13 194.199911 65.1873801 9.09494702e-13 65.1873801 194.199911"></polygon>
                        <polygon id="矩形备份-12" fill="url(#linearGradient-2)" points="63.1873801 0.199911087 152 127 139.578533 160.122877 63.1873801 194.199911"></polygon>
                    </g>
                    <g id="编组-14备份-5" transform="translate(322.000000, 39.000000)">
                        <polygon id="矩形" fill="url(#linearGradient-3)" points="1.43529633e-12 201.469078 101 3 92.0724913 243"></polygon>
                        <polygon id="矩形备份-12" fill="url(#linearGradient-4)" points="100.92048 0 252 266 92 244.047392"></polygon>
                    </g>
                    <g id="编组-14备份-9" transform="translate(690.000000, 205.000000)">
                        <polygon id="矩形" fill="url(#linearGradient-5)" points="1.03739239e-12 131.831855 73 2 66.5474442 159"></polygon>
                        <polygon id="矩形备份-12" fill="url(#linearGradient-6)" points="73.4673478 0 183 174 67 159.640023"></polygon>
                    </g>
                    <g id="编组-24" opacity="0.409621466" transform="translate(574.000000, 0.000000)">
                        <g id="编组-23" transform="translate(0.000000, 87.000998)">
                            <path d="M41.5999769,10.9990016 L106.407312,10.9990016 L106.407312,40.2100015 L106.407312,66.583486 L112.579439,107.380182 L150,233.31403 C123.383172,247.770678 97.8518025,254.999002 73.4058916,254.999002 C48.9599808,254.999002 24.4913502,247.770678 0,233.31403 L33.8848181,107.380182 L41.5999769,65.8599476 L41.5999769,39.4524941 L41.5999769,10.9990016 Z" id="矩形" fill="url(#linearGradient-7)"></path>
                            <ellipse id="椭圆形" fill="#E1E7FF" cx="75" cy="10.9990016" rx="33" ry="10"></ellipse>
                            <path d="M42,48.9990016 C42,54.5218491 56.326888,58.9990016 74,58.9990016 C91.673112,58.9990016 106,54.5218491 106,48.9990016" id="路径" stroke="#AEACEB" stroke-width="2" opacity="0.421526228"></path>
                            <path d="M42,72.9990016 C42,78.5218491 56.326888,82.9990016 74,82.9990016 C91.673112,82.9990016 106,78.5218491 106,72.9990016" id="路径" stroke="#AEACEB" stroke-width="2" opacity="0.421526228"></path>
                            <path d="M36,96.9990016 C36,102.521849 52.5654643,106.999002 73,106.999002 C93.4345357,106.999002 110,102.521849 110,96.9990016" id="路径" stroke="#AEACEB" stroke-width="2" opacity="0.421526228"></path>
                        </g>
                        <g id="编组-22" transform="translate(54.000000, 0.000000)">
                            <path d="M26.460902,98 C40.2118764,98 19.819388,66.6644124 51.3592436,56.9468964 C73.9007543,50.0017951 93.2496161,75.6817352 99.450994,59.7196929 C120.05186,6.69407566 152.151166,19.4223547 142.098797,9.19111212 C132.046428,-1.0401305 60.3514975,-4.93361032 26.460902,9.19111212 C6.18672593,17.6408636 0,41.5151636 0,50.0017951 C0,72.6747981 12.7099276,98 26.460902,98 Z" id="椭圆形" fill="#E0E8FF"></path>
                            <path d="M26.1569279,98 C39.7499356,98 19.5917094,70.6448739 50.7692456,62.1617434 C73.0518068,56.0988566 93.2534239,76.0961775 99.3835624,62.1617434 C119.747772,15.8718041 154.600469,12 133.390409,12 C126.837496,12 108.541781,41.8239126 92.5473605,49.1785667 C85.367599,52.4800095 71.08884,32.1225663 60.7095678,35.942769 C55.3160567,37.9279088 34.3797608,41.3258547 26.1569279,55.0682382 C19.9949567,65.3664131 0,50.6840594 0,56.0988566 C0,75.8917791 12.5639202,98 26.1569279,98 Z" id="椭圆形备份-7" fill="#D7DDF3"></path>
                        </g>
                    </g>
                    <g id="编组-13" opacity="0.733537946" transform="translate(20.000000, 262.000000)">
                        <polygon id="矩形" fill="url(#linearGradient-8)" points="78 1 78 270 0 270"></polygon>
                        <polygon id="矩形备份-11" fill="url(#linearGradient-9)" points="78.5442943 0 252 221.039529 113.757033 265.973538 78 270"></polygon>
                    </g>
                    <g id="编组-13备份" opacity="0.456287202" transform="translate(201.000000, 193.000000)">
                        <path d="M0.25890935,121.274772 C2.66644392,89.2119741 22.4935368,48.78705 59.740188,0 L65,221 L43.4072214,217.517379 C12.2341455,185.418439 -2.14862522,153.33757 0.25890935,121.274772 Z" id="矩形" fill="url(#linearGradient-10)"></path>
                        <polygon id="矩形备份-11" fill="url(#linearGradient-11)" points="60 0 162 90.7384369 143.92612 169.173357 60 223.001243"></polygon>
                    </g>
                    <ellipse id="椭圆形" fill="url(#linearGradient-12)" cx="471" cy="441" rx="471" ry="172"></ellipse>
                    <g id="编组" transform="translate(100.000000, 363.000000)" fill-rule="nonzero">
                        <polygon id="路径" fill="#B3CCFF" points="16 48 28 48 28 68 16 68"></polygon>
                        <polygon id="路径" fill="#A8C4FC" points="23.0004343 52 46 52 34.5006514 31.999564 23.0004343 12 11.5002171 31.999564 0 52"></polygon>
                        <polygon id="路径" fill="#B9D1FF" points="22 42 42 42 32 25 22 8 12 25 2 42"></polygon>
                        <polygon id="路径" fill="#CADDFD" points="23 30 40 30 31.5 14.9995694 23 0 14.5 14.9995694 6 30"></polygon>
                    </g>
                    <g id="编组备份-5" opacity="0.576892671" transform="translate(775.000000, 348.000000)" fill-rule="nonzero">
                        <polygon id="路径" fill="#B3CCFF" points="16 48 28 48 28 68 16 68"></polygon>
                        <polygon id="路径" fill="#A8C4FC" points="23.0004343 52 46 52 34.5006514 31.999564 23.0004343 12 11.5002171 31.999564 0 52"></polygon>
                        <polygon id="路径" fill="#B9D1FF" points="22 42 42 42 32 25 22 8 12 25 2 42"></polygon>
                        <polygon id="路径" fill="#CADDFD" points="23 30 40 30 31.5 14.9995694 23 0 14.5 14.9995694 6 30"></polygon>
                    </g>
                </g>
                <g id="编组-7" transform="translate(411.000000, 420.000000)">
                    <ellipse id="椭圆形备份-16" fill="#B0C8F8" opacity="0.191080729" filter="url(#filter-13)" cx="158" cy="351" rx="158" ry="23"></ellipse>
                    <g id="编组-6" transform="translate(20.000000, 0.000000)">
                        <g id="编组备份-18" fill-rule="nonzero">
                            <g id="编组-34">
                                <path d="M39.7098049,45.9060403 L39.7098049,61.9002215 C39.7098049,70.7373426 46.8115584,77.8944027 55.5803902,77.8944027 L55.5803902,77.8944027 L214.41961,77.8944027 C223.188442,77.8944027 230.290195,70.7373426 230.290195,61.9002215 L230.290195,61.9002215 L230.290195,45.9060403 L254.129415,45.9060403 C262.898246,45.9060403 270,53.0631003 270,61.9002215 L270,61.9002215 L270,326.005819 C270,334.84294 262.898246,342 254.129415,342 L254.129415,342 L15.8705853,342 C7.10175352,342 0,334.84294 0,326.005819 L0,326.005819 L0,61.9002215 C0,53.0631003 7.10175352,45.9060403 15.8705853,45.9060403 L15.8705853,45.9060403 L39.7098049,45.9060403 Z M218.353915,258.534567 L51.6460855,258.534567 C46.1113855,258.534567 41.6436157,263.037131 41.6436157,268.614933 C41.6436157,274.192736 46.1113855,278.6953 51.6460855,278.6953 L51.6460855,278.6953 L218.353915,278.6953 C223.888614,278.6953 228.356384,274.192736 228.356384,268.614933 C228.356384,263.037131 223.888614,258.534567 218.353915,258.534567 L218.353915,258.534567 Z M171.675722,198.052369 L51.6460855,198.052369 C46.1113855,198.052369 41.6436157,202.554933 41.6436157,208.132735 C41.6436157,213.676937 46.1113855,218.213102 51.6460855,218.213102 L51.6460855,218.213102 L171.675722,218.213102 C177.210422,218.213102 181.678192,213.710538 181.678192,208.132735 C181.678192,202.554933 177.210422,198.052369 171.675722,198.052369 L171.675722,198.052369 Z M131.665843,137.570171 L51.6460855,137.570171 C46.1113855,137.570171 41.6436157,142.072735 41.6436157,147.650538 C41.6436157,153.194739 46.1113855,157.730904 51.6460855,157.730904 L51.6460855,157.730904 L131.665843,157.730904 C137.200543,157.730904 141.668313,153.22834 141.668313,147.650538 C141.668313,142.072735 137.200543,137.570171 131.665843,137.570171 L131.665843,137.570171 Z M135.016687,0 C150.40206,0 162.850529,12.4635156 162.850529,27.8674854 L162.850529,27.8674854 L202.565484,27.8674854 C206.937466,27.8674854 210.508475,31.4428102 210.508475,35.8200771 L210.508475,35.8200771 L210.508475,51.7252606 C210.508475,56.1025275 206.937466,59.6778523 202.565484,59.6778523 L202.565484,59.6778523 L67.4345163,59.6778523 C63.0625339,59.6778523 59.4915254,56.1025275 59.4915254,51.7252606 L59.4915254,51.7252606 L59.4915254,35.8200771 C59.4915254,31.4428102 63.0625339,27.8674854 67.4345163,27.8674854 L67.4345163,27.8674854 L107.182845,27.8674854 C107.182845,12.4635156 119.631314,0 135.016687,0 Z M135.016687,19.8814794 C130.644705,19.8814794 127.073696,23.4568042 127.073696,27.8340711 C127.073696,32.211338 130.644705,35.7866629 135.016687,35.7866629 C139.388669,35.7866629 142.959678,32.211338 142.959678,27.8340711 C142.959678,23.4568042 139.388669,19.8814794 135.016687,19.8814794 Z" id="形状结合" fill="url(#linearGradient-14)"></path>
                                <path d="M47.7098049,45.9060403 L47.7098049,61.9002215 C47.7098049,70.7373426 54.8115584,77.8944027 63.5803902,77.8944027 L63.5803902,77.8944027 L222.41961,77.8944027 C231.188442,77.8944027 238.290195,70.7373426 238.290195,61.9002215 L238.290195,61.9002215 L238.290195,45.9060403 L262.129415,45.9060403 C270.898246,45.9060403 278,53.0631003 278,61.9002215 L278,61.9002215 L278,326.005819 C278,334.84294 270.898246,342 262.129415,342 L262.129415,342 L23.8705853,342 C15.1017535,342 8,334.84294 8,326.005819 L8,326.005819 L8,61.9002215 C8,53.0631003 15.1017535,45.9060403 23.8705853,45.9060403 L23.8705853,45.9060403 L47.7098049,45.9060403 Z M226.353915,258.534567 L59.6460855,258.534567 C54.1113855,258.534567 49.6436157,263.037131 49.6436157,268.614933 C49.6436157,274.192736 54.1113855,278.6953 59.6460855,278.6953 L59.6460855,278.6953 L226.353915,278.6953 C231.888614,278.6953 236.356384,274.192736 236.356384,268.614933 C236.356384,263.037131 231.888614,258.534567 226.353915,258.534567 L226.353915,258.534567 Z M179.675722,198.052369 L59.6460855,198.052369 C54.1113855,198.052369 49.6436157,202.554933 49.6436157,208.132735 C49.6436157,213.676937 54.1113855,218.213102 59.6460855,218.213102 L59.6460855,218.213102 L179.675722,218.213102 C185.210422,218.213102 189.678192,213.710538 189.678192,208.132735 C189.678192,202.554933 185.210422,198.052369 179.675722,198.052369 L179.675722,198.052369 Z M139.665843,137.570171 L59.6460855,137.570171 C54.1113855,137.570171 49.6436157,142.072735 49.6436157,147.650538 C49.6436157,153.194739 54.1113855,157.730904 59.6460855,157.730904 L59.6460855,157.730904 L139.665843,157.730904 C145.200543,157.730904 149.668313,153.22834 149.668313,147.650538 C149.668313,142.072735 145.200543,137.570171 139.665843,137.570171 L139.665843,137.570171 Z M143.016687,0 C158.40206,0 170.850529,12.4635156 170.850529,27.8674854 L170.850529,27.8674854 L210.565484,27.8674854 C214.937466,27.8674854 218.508475,31.4428102 218.508475,35.8200771 L218.508475,35.8200771 L218.508475,51.7252606 C218.508475,56.1025275 214.937466,59.6778523 210.565484,59.6778523 L210.565484,59.6778523 L75.4345163,59.6778523 C71.0625339,59.6778523 67.4915254,56.1025275 67.4915254,51.7252606 L67.4915254,51.7252606 L67.4915254,35.8200771 C67.4915254,31.4428102 71.0625339,27.8674854 75.4345163,27.8674854 L75.4345163,27.8674854 L115.182845,27.8674854 C115.182845,12.4635156 127.631314,0 143.016687,0 Z M143.016687,19.8814794 C138.644705,19.8814794 135.073696,23.4568042 135.073696,27.8340711 C135.073696,32.211338 138.644705,35.7866629 143.016687,35.7866629 C147.388669,35.7866629 150.959678,32.211338 150.959678,27.8340711 C150.959678,23.4568042 147.388669,19.8814794 143.016687,19.8814794 Z" id="形状结合备份-2" fill="url(#linearGradient-15)"></path>
                            </g>
                        </g>
                        <g id="编组-41" transform="translate(312.000000, 72.000000)">
                            <g id="编组-39">
                                <g id="编组-8备份" transform="translate(0.000000, 7.600000)">
                                    <path d="M63.3336733,11.0732859 C59.0529937,20.1654835 59.0529937,27.1711328 63.3336733,32.0902339 C67.614353,37.009335 71.1334557,41.9406263 73.8909815,46.8841078 C83.6456652,46.341945 88.5230071,44.6949309 88.5230071,41.9430654 C88.5230071,39.1911999 86.4647712,37.123604 82.3482995,35.7402777 C82.3482995,32.9969056 82.3482995,30.3154647 82.3482995,27.6959549 C82.3482995,26.2129248 86.7776138,23.2405834 86.7776138,20.8704366 C86.7776138,16.9609171 82.3482995,13.3708032 82.3482995,11.0732859 C82.3482995,8.61302756 78.9473957,7.19887446 72.1455883,6.8308266 L63.3336733,11.0732859 Z" id="路径-38" fill="#FFD2D2"></path>
                                    <path d="M60.1231636,14.7020962 L77.443354,10.6231351 L86.7776138,20.8704366 L82.3482995,27.6959549 L86.7776138,25.5747252 C89.1048048,16.732557 89.1048048,10.4845908 86.7776138,6.8308266 C84.4504228,3.17706246 80.0080145,0.900120254 73.4503887,2.18580709e-12 L60.1231636,6.8308266 L60.1231636,14.7020962 Z" id="路径-39" fill="#323232"></path>
                                    <path d="M78.4821163,43.9316192 C82.9836805,42.1327478 85.9683369,40.5000414 87.4360854,39.0335001 C89.6377082,36.8336882 97.5117174,40.4066502 100.414443,44.3186238 C102.349594,46.9266062 106.242224,52.2452907 112.092333,60.2746771 L104.927066,68.8779101 L100.414443,72.3187567 L100.414443,131.28875 L48.5427315,131.28875 L54.8148523,72.3187567 L44.8718996,63.427484 C51.4986091,54.3948068 56.5823638,48.0251867 60.1231636,44.3186238 C63.2919722,41.001467 65.6710935,41.5973341 68.8762927,42.2458641 C70.3209556,42.5381727 73.5228968,43.1000911 78.4821163,43.9316192 Z" id="路径-40" fill="#FFFFFF"></path>
                                    <path d="M55.2,73.2021835 C47.6253884,85.8956642 42.3822539,90.9429485 39.4705966,88.3440366 C36.5589392,85.7451246 30.0158973,76.2145079 19.8414709,59.7521864 L-4.56523708e-12,56.0791208 C3.54847353,54.372784 7.74250372,53.333013 12.5820906,52.9598078 C17.4216774,52.5866026 22.0549854,52.5866026 26.4820146,52.9598078 L30.1506136,59.7521864 L39.4705966,73.2021835 C43.8893953,67.9013286 47.1251267,65.2509012 49.1777909,65.2509012 C51.2304552,65.2509012 53.2378582,67.9013286 55.2,73.2021835 Z" id="路径-41" fill="#FFD2D2"></path>
                                    <path d="M100.414443,72.3187567 C110.321353,76.5774089 116.328285,78.706735 118.435237,78.706735 C120.54219,78.706735 123.912617,75.8806273 128.546519,70.2284119 L138.150024,58.8434099 L151.21315,58.8434099 L160.414443,52.4 C158.033688,52.4 154.356241,52.4 149.382104,52.4 C144.407967,52.4 142.546856,52.0503426 143.798773,51.3510278 L140.940703,50.6631182 L138.150024,51.3510278 L131.910274,55.4137276 L118.435237,65.9942717 L108.030041,63.1248049 L100.414443,72.3187567 Z" id="路径-42" fill="#FFD2D2"></path>
                                    <path d="M50.7188127,113.279132 C50.7188127,156.337404 50.7188127,181.961731 50.7188127,190.152112 C50.7188127,198.342494 55.8138041,215.683052 66.0037868,242.173787 L74.589321,242.173787 L66.0037868,194.540876 L73.2,137.826132 L75.6018636,149.134503 L75.6018636,207.34539 L76.4821163,248.971614 L82,251.231768 L88.2067601,248.971614 L100.414443,113.279132 L50.7188127,113.279132 Z" id="路径-43" fill="#3484FE"></path>
                                    <polyline id="路径-44" fill="#3D4A6C" points="61.5816488 242.162098 50.8767245 254.467269 47.8167325 257.346656 50.8767245 260.301437 57.8296223 260.301437 61.5816488 260.301437 73.8130305 251.231768 76.4821163 244.52382 71.4040841 242.162098 63.8927226 244.52382"></polyline>
                                    <path d="M88.2067601,251.231768 L88.2067601,260.301437 C83.7756857,263.780229 79.8674711,265.519626 76.4821163,265.519626 C73.0967615,265.519626 68.3191975,265.519626 62.1494244,265.519626 L61.5816488,260.301437 L71.4040841,251.954798 L76.4821163,251.231768 L82.2458664,251.231768 L88.2067601,251.231768 Z" id="路径-45" fill="#3D4A6C"></path>
                                </g>
                                <path d="M87.3600425,19.2 L90,19.2 C91.4400011,19.2 92.4,18.102861 92.4,16.4571486 C92.4,14.8114361 91.4400011,13.7142972 90,13.7142972 L87.3599932,13.7142972 C86.1599893,6.03430844 80.3999815,-7.27418126e-13 73.1999508,-7.27418126e-13 C65.99992,-7.27418126e-13 60.2399334,6.0342763 59.0399083,13.7142972 L56.4000009,13.7142972 C54.9599989,13.7142972 54,14.8114361 54,16.4571486 C54,18.102861 54.9599989,19.2 56.4000009,19.2 L87.3600425,19.2 Z" id="形状备份-7" fill="#FBEA34" fill-rule="nonzero"></path>
                            </g>
                            <path d="M52,126 C54.1385235,92.6157836 55.7050542,76.2092648 56.6995922,76.7804434 C58.1913991,77.6372114 63.0738365,71.1524797 74.5807795,70.18258 C82.2520748,69.5359803 89.0325863,72.2895303 94.9223142,78.4432302 L94.9223142,116 L94.9223142,126 L52,126 Z" id="路径-71备份" fill="#3484FE"></path>
                            <polygon id="路径-72备份-2" fill="#3484FE" points="63.6496682 74.3180621 64.5594869 50.3180621 60 52.2127349 60 74.3180621"></polygon>
                            <polygon id="路径-72备份-3" fill="#3484FE" points="87.6496682 74.3180621 94.9223142 48.8652101 91.0066602 46.328392 84 74.3180621"></polygon>
                        </g>
                    </g>
                </g>
            </g>
        </g>
    </g>
</svg>