<?xml version="1.0" encoding="UTF-8"?>
<svg width="1238px" height="1116px" viewBox="0 0 1238 1116" version="1.1" xmlns="http://www.w3.org/2000/svg" xmlns:xlink="http://www.w3.org/1999/xlink">
    <!-- Generator: Sketch 60.1 (88133) - https://sketch.com -->
    <title>4暂无权限</title>
    <desc>Created with Sketch.</desc>
    <defs>
        <linearGradient x1="50%" y1="0%" x2="50%" y2="86.0706991%" id="linearGradient-1">
            <stop stop-color="#D2DEFB" offset="0%"></stop>
            <stop stop-color="#F3F4F8" offset="100%"></stop>
        </linearGradient>
        <linearGradient x1="50%" y1="0%" x2="50%" y2="43.9096274%" id="linearGradient-2">
            <stop stop-color="#E5ECF8" offset="0%"></stop>
            <stop stop-color="#F3F4F6" offset="100%"></stop>
        </linearGradient>
        <linearGradient x1="50%" y1="0%" x2="50%" y2="86.0706991%" id="linearGradient-3">
            <stop stop-color="#D8E3FB" offset="0%"></stop>
            <stop stop-color="#F3F4F8" offset="100%"></stop>
        </linearGradient>
        <linearGradient x1="50%" y1="0%" x2="50%" y2="43.9096274%" id="linearGradient-4">
            <stop stop-color="#E5ECF8" offset="0%"></stop>
            <stop stop-color="#F3F4F6" offset="100%"></stop>
        </linearGradient>
        <linearGradient x1="50%" y1="0%" x2="50%" y2="86.0706991%" id="linearGradient-5">
            <stop stop-color="#D8E3FB" offset="0%"></stop>
            <stop stop-color="#F3F4F8" offset="100%"></stop>
        </linearGradient>
        <linearGradient x1="50%" y1="0%" x2="50%" y2="43.9096274%" id="linearGradient-6">
            <stop stop-color="#E5ECF8" offset="0%"></stop>
            <stop stop-color="#F3F4F6" offset="100%"></stop>
        </linearGradient>
        <linearGradient x1="50%" y1="0%" x2="50%" y2="100%" id="linearGradient-7">
            <stop stop-color="#D4E0FC" offset="0%"></stop>
            <stop stop-color="#E0E8FE" offset="100%"></stop>
        </linearGradient>
        <linearGradient x1="50%" y1="0%" x2="50%" y2="88.0272486%" id="linearGradient-8">
            <stop stop-color="#D0DDFC" offset="0%"></stop>
            <stop stop-color="#F3F4F8" offset="100%"></stop>
        </linearGradient>
        <linearGradient x1="50%" y1="0%" x2="50%" y2="100%" id="linearGradient-9">
            <stop stop-color="#E8EDF8" offset="0%"></stop>
            <stop stop-color="#F4F5F6" offset="100%"></stop>
        </linearGradient>
        <linearGradient x1="50%" y1="0%" x2="50%" y2="88.0272486%" id="linearGradient-10">
            <stop stop-color="#D0DDFC" offset="0%"></stop>
            <stop stop-color="#F3F4F8" offset="100%"></stop>
        </linearGradient>
        <linearGradient x1="50%" y1="0%" x2="50%" y2="100%" id="linearGradient-11">
            <stop stop-color="#E8EDF8" offset="0%"></stop>
            <stop stop-color="#F4F5F6" offset="100%"></stop>
        </linearGradient>
        <linearGradient x1="51.503123%" y1="45.4855527%" x2="50%" y2="54.8995405%" id="linearGradient-12">
            <stop stop-color="#DBE7FC" offset="0%"></stop>
            <stop stop-color="#F3F5F6" offset="100%"></stop>
        </linearGradient>
        <linearGradient x1="50%" y1="0%" x2="51.5399684%" y2="68.3677526%" id="linearGradient-13">
            <stop stop-color="#B0CAFF" offset="0%"></stop>
            <stop stop-color="#D6E5FF" offset="100%"></stop>
        </linearGradient>
        <linearGradient x1="100.227902%" y1="76.5395178%" x2="12.241261%" y2="16.4443479%" id="linearGradient-14">
            <stop stop-color="#DFEAFF" offset="0%"></stop>
            <stop stop-color="#95B8FF" offset="100%"></stop>
        </linearGradient>
        <linearGradient x1="72.5611637%" y1="49.1821314%" x2="16.6583555%" y2="50%" id="linearGradient-15">
            <stop stop-color="#D0DEFC" offset="0%"></stop>
            <stop stop-color="#BFD5FE" offset="100%"></stop>
        </linearGradient>
        <linearGradient x1="79.7028847%" y1="55.2690832%" x2="11.4328971%" y2="37.4344639%" id="linearGradient-16">
            <stop stop-color="#C3D4FA" offset="0%"></stop>
            <stop stop-color="#BACEF9" offset="100%"></stop>
        </linearGradient>
        <linearGradient x1="50%" y1="0%" x2="50%" y2="88.6415906%" id="linearGradient-17">
            <stop stop-color="#E2EBFF" offset="0%"></stop>
            <stop stop-color="#D1DFFF" offset="19.8971315%"></stop>
            <stop stop-color="#D4E1FE" offset="27.4888509%"></stop>
            <stop stop-color="#BACEF9" offset="100%"></stop>
        </linearGradient>
    </defs>
    <g id="页面-1" stroke="none" stroke-width="1" fill="none" fill-rule="evenodd">
        <g id="画板备份" transform="translate(-4475.000000, -346.000000)">
            <g id="4暂无权限" transform="translate(4475.000000, 346.000000)">
                <rect id="矩形备份-17" fill="#F6F6F6" x="0" y="0" width="1238" height="1116"></rect>
                <text id="暂无权限" font-family="PingFangSC-Medium, PingFang SC" font-size="48" font-weight="400" fill="#5480E5">
                    <tspan x="558" y="939">暂无权限</tspan>
                </text>
                <g id="编组-4备份-2" transform="translate(148.000000, 141.000000)">
                    <g id="编组-14" opacity="0.352608817" transform="translate(123.000000, 129.000000)">
                        <polygon id="矩形" fill="url(#linearGradient-1)" points="-2.20268248e-13 194.199911 65.1873801 9.09494702e-13 65.1873801 194.199911"></polygon>
                        <polygon id="矩形备份-12" fill="url(#linearGradient-2)" points="63.1873801 0.199911087 152 127 139.578533 160.122877 63.1873801 194.199911"></polygon>
                    </g>
                    <g id="编组-14备份-5" transform="translate(512.000000, 124.000000)">
                        <polygon id="矩形" fill="url(#linearGradient-3)" points="-3.91928555e-13 131.831855 100.92048 2 92 159"></polygon>
                        <polygon id="矩形备份-12" fill="url(#linearGradient-4)" points="100.92048 0 252 174 92 159.640023"></polygon>
                    </g>
                    <g id="编组-14备份-9" transform="translate(690.000000, 260.000000)">
                        <polygon id="矩形" fill="url(#linearGradient-5)" points="1.03739239e-12 131.831855 73 2 66.5474442 159"></polygon>
                        <polygon id="矩形备份-12" fill="url(#linearGradient-6)" points="73.4673478 0 183 174 67 159.640023"></polygon>
                    </g>
                    <g id="编组-24" opacity="0.652297247" transform="translate(336.000000, 0.000000)">
                        <g id="编组-23" transform="translate(0.000000, 87.000998)">
                            <path d="M41.5999769,10.9990016 L106.407312,10.9990016 L106.407312,40.2100015 L106.407312,66.583486 L112.579439,107.380182 L150,233.31403 C123.383172,247.770678 97.8518025,254.999002 73.4058916,254.999002 C48.9599808,254.999002 24.4913502,247.770678 0,233.31403 L33.8848181,107.380182 L41.5999769,65.8599476 L41.5999769,39.4524941 L41.5999769,10.9990016 Z" id="矩形" fill="url(#linearGradient-7)"></path>
                            <ellipse id="椭圆形" fill="#E1E7FF" cx="75" cy="10.9990016" rx="33" ry="10"></ellipse>
                            <path d="M42,48.9990016 C42,54.5218491 56.326888,58.9990016 74,58.9990016 C91.673112,58.9990016 106,54.5218491 106,48.9990016" id="路径" stroke="#AEACEB" stroke-width="2" opacity="0.421526228"></path>
                            <path d="M42,72.9990016 C42,78.5218491 56.326888,82.9990016 74,82.9990016 C91.673112,82.9990016 106,78.5218491 106,72.9990016" id="路径" stroke="#AEACEB" stroke-width="2" opacity="0.421526228"></path>
                            <path d="M36,96.9990016 C36,102.521849 52.5654643,106.999002 73,106.999002 C93.4345357,106.999002 110,102.521849 110,96.9990016" id="路径" stroke="#AEACEB" stroke-width="2" opacity="0.421526228"></path>
                        </g>
                        <g id="编组-22" transform="translate(54.000000, 0.000000)">
                            <path d="M26.460902,98 C40.2118764,98 19.819388,66.6644124 51.3592436,56.9468964 C73.9007543,50.0017951 93.2496161,75.6817352 99.450994,59.7196929 C120.05186,6.69407566 152.151166,19.4223547 142.098797,9.19111212 C132.046428,-1.0401305 60.3514975,-4.93361032 26.460902,9.19111212 C6.18672593,17.6408636 0,41.5151636 0,50.0017951 C0,72.6747981 12.7099276,98 26.460902,98 Z" id="椭圆形" fill="#E0E8FF"></path>
                            <path d="M26.1569279,98 C39.7499356,98 19.5917094,70.6448739 50.7692456,62.1617434 C73.0518068,56.0988566 93.2534239,76.0961775 99.3835624,62.1617434 C119.747772,15.8718041 154.600469,12 133.390409,12 C126.837496,12 108.541781,41.8239126 92.5473605,49.1785667 C85.367599,52.4800095 71.08884,32.1225663 60.7095678,35.942769 C55.3160567,37.9279088 34.3797608,41.3258547 26.1569279,55.0682382 C19.9949567,65.3664131 0,50.6840594 0,56.0988566 C0,75.8917791 12.5639202,98 26.1569279,98 Z" id="椭圆形备份-7" fill="#D7DDF3"></path>
                        </g>
                    </g>
                    <g id="编组-13" opacity="0.733537946" transform="translate(20.000000, 317.000000)">
                        <polygon id="矩形" fill="url(#linearGradient-8)" points="78 1 78 270 0 270"></polygon>
                        <polygon id="矩形备份-11" fill="url(#linearGradient-9)" points="78.5442943 0 252 221.039529 113.757033 265.973538 78 270"></polygon>
                    </g>
                    <g id="编组-13备份" opacity="0.456287202" transform="translate(201.000000, 248.000000)">
                        <path d="M0.25890935,121.274772 C2.66644392,89.2119741 22.4935368,48.78705 59.740188,0 L65,221 L43.4072214,217.517379 C12.2341455,185.418439 -2.14862522,153.33757 0.25890935,121.274772 Z" id="矩形" fill="url(#linearGradient-10)"></path>
                        <polygon id="矩形备份-11" fill="url(#linearGradient-11)" points="60 0 162 90.7384369 143.92612 169.173357 60 223.001243"></polygon>
                    </g>
                    <ellipse id="椭圆形" fill="url(#linearGradient-12)" cx="471" cy="496" rx="471" ry="172"></ellipse>
                    <g id="编组" transform="translate(100.000000, 418.000000)" fill-rule="nonzero">
                        <polygon id="路径" fill="#B3CCFF" points="16 48 28 48 28 68 16 68"></polygon>
                        <polygon id="路径" fill="#A8C4FC" points="23.0004343 52 46 52 34.5006514 31.999564 23.0004343 12 11.5002171 31.999564 0 52"></polygon>
                        <polygon id="路径" fill="#B9D1FF" points="22 42 42 42 32 25 22 8 12 25 2 42"></polygon>
                        <polygon id="路径" fill="#CADDFD" points="23 30 40 30 31.5 14.9995694 23 0 14.5 14.9995694 6 30"></polygon>
                    </g>
                    <g id="编组备份-5" opacity="0.576892671" transform="translate(775.000000, 403.000000)" fill-rule="nonzero">
                        <polygon id="路径" fill="#B3CCFF" points="16 48 28 48 28 68 16 68"></polygon>
                        <polygon id="路径" fill="#A8C4FC" points="23.0004343 52 46 52 34.5006514 31.999564 23.0004343 12 11.5002171 31.999564 0 52"></polygon>
                        <polygon id="路径" fill="#B9D1FF" points="22 42 42 42 32 25 22 8 12 25 2 42"></polygon>
                        <polygon id="路径" fill="#CADDFD" points="23 30 40 30 31.5 14.9995694 23 0 14.5 14.9995694 6 30"></polygon>
                    </g>
                </g>
                <g id="编组-29" transform="translate(450.000000, 354.000000)">
                    <polygon id="矩形" fill="url(#linearGradient-13)" points="7.77754744e-12 110 64 138 64.0057808 333.007984 7.77754744e-12 302.232512"></polygon>
                    <polygon id="矩形" fill="url(#linearGradient-14)" points="64 138 274.942493 110.824464 276 303.098826 64 333.007984"></polygon>
                    <g id="编组-28" transform="translate(148.000000, 176.000000)" fill="#9ABCFE">
                        <ellipse id="椭圆形" cx="22" cy="25" rx="22" ry="25"></ellipse>
                        <polygon id="路径-74" points="10.2244979 40.5543119 10.2244979 88.0411245 34.9040303 82.2431271 34.9040303 29.4729727"></polygon>
                    </g>
                    <polygon id="矩形" fill="url(#linearGradient-15)" points="2 111.509558 201.591843 86 276 111.509558 64 139.411388"></polygon>
                    <g id="编组-27" transform="translate(58.000000, 0.000000)">
                        <path d="M79.3237767,-1.9468871e-12 C126.576538,-1.9468871e-12 155.329397,44.771525 155.329397,100 C155.329397,101.827643 155.406464,103.99935 155.393967,106.001424 L118.668028,105.999863 C118.81738,88.6434998 118.322638,72.7965465 113.882689,60.6512108 C107.073656,42.0253257 91.3758111,33.9780171 78.904445,33.9780171 C67.6936522,33.9780171 52.1428207,38.4903081 45.3299617,54.8729317 C37.5376138,73.6108952 38.3494838,98.1398564 38.507906,125.533991 L0.0138138333,125.53505 C-0.121864051,117.15991 0.786607305,108.242075 0.786607305,100 C0.786607305,44.771525 32.0710149,-1.9468871e-12 79.3237767,-1.9468871e-12 Z" id="形状结合" fill="url(#linearGradient-16)"></path>
                        <path d="M85.3237767,-1.39266376e-12 C132.576538,-1.39266376e-12 161.329397,44.771525 161.329397,100 C161.329397,101.827643 161.406464,103.99935 161.393967,106.001424 L124.690063,106.000116 C124.673365,91.3523941 123.864723,78.0441014 119.882689,67.5926475 C113.073656,49.7213076 97.3758111,42 84.904445,42 C73.6936522,42 58.1428207,46.3294956 51.3299617,62.0484498 C43.9663119,79.0382148 44.2861955,100.989825 44.4773673,125.534291 L8.93978105,125.534846 C7.69789769,116.53135 7.58597027,106.540844 7.57588257,97.9283337 L7.57488333,95.4118661 C7.57488333,40.1833911 38.0710149,-1.39266376e-12 85.3237767,-1.39266376e-12 Z" id="形状结合备份" fill="url(#linearGradient-17)"></path>
                    </g>
                </g>
                <g id="编组-4" transform="translate(678.000000, 544.000000)">
                    <g id="编组-9备份" transform="translate(50.600000, 98.845327) scale(-1, 1) translate(-50.600000, -98.845327) translate(0.100000, 17.845327)">
                        <path d="M55.2147936,7.60671977 C49.7211185,11.3324647 45.1,25.0160491 47.317943,28.4049304 C48.7965717,30.6641845 51.4288552,34.4375435 55.2147936,39.7250074 L56.3452196,48.2145752 L71.477566,45.3010411 L70.34714,31.8100581 L72.9721315,16.6458688 L70.34714,7.60671977 C63.9213591,5.12288979 58.8772436,5.12288979 55.2147936,7.60671977 Z" id="路径-46" fill="#FFD8C9"></path>
                        <path d="M70.34714,33.2917376 C78.0820219,28.4739251 81.5382622,23.20845 80.715861,17.4953122 C79.4822593,8.92560546 73.714515,0 66.8265075,0 C59.9385001,0 47.317943,3.07684613 47.317943,6.20857203 C47.317943,8.2963893 48.5156884,9.33759075 50.9111793,9.33217637 L61.6487207,9.33217637 C68.2406558,12.2291182 71.5366233,15.4241975 71.5366233,18.917414 C71.5366233,22.4106306 71.1401289,27.2020718 70.34714,33.2917376 Z" id="路径-47" fill="#353535"></path>
                        <path d="M26.5693673,57.2751178 C34.1716783,48.1628011 40.3467586,42.8057556 45.0946085,41.2039812 C52.2163832,38.8013195 53.1118989,38.1197114 54.1633463,41.2039812 C55.2147936,44.288251 67.6908382,47.3725208 70.34714,44.288251 C72.1180078,42.2320711 72.1180078,40.5600377 70.34714,39.2721508 C82.649985,40.6568892 89.9917702,43.3311955 92.3724953,47.2950699 C95.9435831,53.2408813 99.7021654,70.733748 99.7021654,74.2973856 C99.7021654,76.673144 99.7021654,89.0477827 99.7021654,111.421301 L99.7021654,113.761879 L85.2712954,113.761879 C82.3133764,103.254735 80.8344168,96.874127 80.8344168,94.6200537 C80.8344168,91.2389439 70.131423,71.4936595 66.6335947,71.4936595 C63.1357664,71.4936595 56.6256088,68.6899335 54.1633463,71.4936595 C52.5218379,73.3628103 50.9974619,74.7110739 49.5902182,75.5384504 C48.7275446,70.1722991 47.229008,67.4892235 45.0946085,67.4892235 C42.960209,67.4892235 38.1754026,68.0624684 30.7401892,69.208958 L32.4822741,64.0956968 L26.5693673,57.2751178 Z" id="路径-48" fill="#FFFFFF" opacity="0.871163504"></path>
                        <polygon id="矩形" fill="#2172EF" points="41.6984947 55.4269276 70.4 55.4269276 66.1636303 79.563994 34.3498 76.4501915"></polygon>
                        <path d="M41.6984947,59.7188485 L52.3749,39.2721508 L41.6984947,59.7188485 Z" id="路径-84" stroke="#2172EF" stroke-width="4.4"></path>
                        <polygon id="路径-85" stroke="#2172EF" stroke-width="4.4" stroke-linecap="round" points="64.0761799 59.7188485 67.623757 52.7021242 77.2290466 41.2162692"></polygon>
                        <path d="M83.620428,105.315487 C87.1666269,108.195922 92.6598176,108.195922 100.1,105.315487 C99.1169407,116.398217 97.474613,124.093077 95.1730169,128.400068 C91.7206227,134.860555 87.6288246,137.925414 78.7835095,137.925414 C69.9381944,137.925414 61.3361407,140.139545 55.5615511,129.730235 C51.7118247,122.790695 49.9011845,119.782811 50.1296303,120.706584 L45.8694164,145.531604 L43.6460819,148.44584 L27.0243448,140.469252 C28.9199848,121.873769 29.8678048,112.576027 29.8678048,112.576027 C29.8678048,112.576027 32.5344458,99.4380882 43.6460819,77.3475999 C44.405867,75.8371092 46.5670498,74.1527441 50.1296303,72.2945045 C57.3484587,69.6459892 62.2813297,69.6459892 64.9282432,72.2945045 C67.5751567,74.9430199 68.8986134,77.5021339 68.8986134,79.9718466 C75.1669576,93.9871709 80.0742292,102.435051 83.620428,105.315487 Z" id="路径-51" fill="#3580F5"></path>
                        <path d="M16.0577776,134.96486 L27.0243448,140.469252 C34.9189159,100.732002 41.7672259,78.5774336 47.5692746,74.0055473 C56.2723477,67.1477177 36.9964265,67.0791081 32.8639858,67.4954608 C28.7315452,67.9118135 31.1123476,53.5404788 24.8304002,76.4501915 C18.5484528,99.3599042 16.0577776,128.786232 16.0577776,128.786232 C16.0577776,128.786232 16.0577776,130.845775 16.0577776,134.96486 Z" id="路径-52" fill="#2675EF"></path>
                        <path d="M74.9831187,79.4467492 L85.9099519,85.3695895 L87.6557619,85.3695895 C82.3582239,98.3498321 76.6063033,106.352295 70.4,109.376979 C61.090545,113.914005 46.2281543,107.342458 43.4418212,104.6331 C41.5842659,102.826861 36.5339167,99.3944283 28.2907736,94.3358012 C21.9614213,95.93592 19.4970893,93.8544411 20.8977776,88.0913643 C22.2984659,82.3282876 24.1889958,80.0978328 26.5693673,81.4 C24.1889958,80.9615331 27.3727623,83.1919879 36.1206668,88.0913643 C44.8685713,92.9907408 54.1870757,96.7898948 64.0761799,99.4888263 L74.9831187,79.4467492 Z" id="路径-49" fill="#FFD8C9"></path>
                        <polygon id="路径-50" fill="#FFE1D5" points="34.2036804 64.4397371 28.2907736 75.8824907 46.8160148 87.8231602 62.4992117 97.669727 59.4422806 101.217223 38.1336153 94.3358012 28.2907736 87.8231602 20.8977776 79.4467492 22.8621242 69.5865239 28.2907736 59.7188485"></polygon>
                        <path d="M41.6984947,148.44584 L45.0946085,149.779578 C34.9080924,156.912011 29.2739231,160.478227 28.1921008,160.478227 C26.5693673,160.478227 13.084919,163.307636 13.084919,160.478227 C13.084919,158.591954 17.5797351,153.266955 26.5693673,144.503231 L29.0897638,140.469252 L36.7990268,144.503231 L41.6984947,148.44584 Z" id="路径-53" fill="#36608E"></path>
                        <polygon id="路径-54" fill="#36608E" points="-8.8817842e-16 148.44584 4.27049132 152.532493 13.084919 152.532493 23.3755986 146.022566 27.0243448 140.469252 17.2006633 134.860555 4.27049132 146.022566"></polygon>
                    </g>
                    <path d="M51.3037569,43.1090355 L54.7641372,43.9084394 C56.651651,44.3444856 58.2416985,43.1960919 58.7400197,41.0376259 C59.2383409,38.8791598 58.3117095,37.1493725 56.4241958,36.7133263 L52.963751,35.9139075 C53.7149033,25.4773702 47.9909236,15.8185145 38.5533274,13.638277 C29.1157312,11.4580395 19.7396386,17.6284897 15.8425866,27.3383176 L12.3822708,26.5389287 C10.4947571,26.1028824 8.90470951,27.2512761 8.40638835,29.4097422 C7.90806719,31.5682083 8.83469851,33.2979956 10.7222122,33.7340418 L51.3037569,43.1090355 Z" id="形状备份-8" fill="#FBEA34" fill-rule="nonzero" transform="translate(33.573204, 28.599998) rotate(-43.000000) translate(-33.573204, -28.599998) "></path>
                </g>
            </g>
        </g>
    </g>
</svg>