<?xml version="1.0" encoding="UTF-8"?>
<svg width="1238px" height="1116px" viewBox="0 0 1238 1116" version="1.1" xmlns="http://www.w3.org/2000/svg" xmlns:xlink="http://www.w3.org/1999/xlink">
    <!-- Generator: Sketch 60.1 (88133) - https://sketch.com -->
    <title>2暂无任务/内容</title>
    <desc>Created with Sketch.</desc>
    <defs>
        <linearGradient x1="50%" y1="0%" x2="50%" y2="86.0706991%" id="linearGradient-1">
            <stop stop-color="#D2DEFB" offset="0%"></stop>
            <stop stop-color="#F3F4F8" offset="100%"></stop>
        </linearGradient>
        <linearGradient x1="50%" y1="0%" x2="50%" y2="43.9096274%" id="linearGradient-2">
            <stop stop-color="#E5ECF8" offset="0%"></stop>
            <stop stop-color="#F3F4F6" offset="100%"></stop>
        </linearGradient>
        <linearGradient x1="50%" y1="0%" x2="50%" y2="86.0706991%" id="linearGradient-3">
            <stop stop-color="#D8E3FB" offset="0%"></stop>
            <stop stop-color="#F3F4F8" offset="100%"></stop>
        </linearGradient>
        <linearGradient x1="50%" y1="0%" x2="50%" y2="43.9096274%" id="linearGradient-4">
            <stop stop-color="#E5ECF8" offset="0%"></stop>
            <stop stop-color="#F3F4F6" offset="100%"></stop>
        </linearGradient>
        <linearGradient x1="50%" y1="0%" x2="50%" y2="86.0706991%" id="linearGradient-5">
            <stop stop-color="#D8E3FB" offset="0%"></stop>
            <stop stop-color="#F3F4F8" offset="100%"></stop>
        </linearGradient>
        <linearGradient x1="50%" y1="0%" x2="50%" y2="43.9096274%" id="linearGradient-6">
            <stop stop-color="#E5ECF8" offset="0%"></stop>
            <stop stop-color="#F3F4F6" offset="100%"></stop>
        </linearGradient>
        <linearGradient x1="50%" y1="0%" x2="50%" y2="100%" id="linearGradient-7">
            <stop stop-color="#D4E0FC" offset="0%"></stop>
            <stop stop-color="#E0E8FE" offset="100%"></stop>
        </linearGradient>
        <linearGradient x1="50%" y1="0%" x2="50%" y2="88.0272486%" id="linearGradient-8">
            <stop stop-color="#D0DDFC" offset="0%"></stop>
            <stop stop-color="#F3F4F8" offset="100%"></stop>
        </linearGradient>
        <linearGradient x1="50%" y1="0%" x2="50%" y2="100%" id="linearGradient-9">
            <stop stop-color="#E8EDF8" offset="0%"></stop>
            <stop stop-color="#F4F5F6" offset="100%"></stop>
        </linearGradient>
        <linearGradient x1="50%" y1="0%" x2="50%" y2="88.0272486%" id="linearGradient-10">
            <stop stop-color="#D0DDFC" offset="0%"></stop>
            <stop stop-color="#F3F4F8" offset="100%"></stop>
        </linearGradient>
        <linearGradient x1="50%" y1="0%" x2="50%" y2="100%" id="linearGradient-11">
            <stop stop-color="#E8EDF8" offset="0%"></stop>
            <stop stop-color="#F4F5F6" offset="100%"></stop>
        </linearGradient>
        <linearGradient x1="51.503123%" y1="45.4855527%" x2="50%" y2="54.8995405%" id="linearGradient-12">
            <stop stop-color="#DBE7FC" offset="0%"></stop>
            <stop stop-color="#F3F5F6" offset="100%"></stop>
        </linearGradient>
        <filter x="-7.1%" y="-20.1%" width="114.3%" height="140.3%" filterUnits="objectBoundingBox" id="filter-13">
            <feGaussianBlur stdDeviation="9" in="SourceGraphic"></feGaussianBlur>
        </filter>
        <filter x="-15.3%" y="-55.1%" width="130.5%" height="210.2%" filterUnits="objectBoundingBox" id="filter-14">
            <feGaussianBlur stdDeviation="9" in="SourceGraphic"></feGaussianBlur>
        </filter>
        <linearGradient x1="35.9420191%" y1="16.5971959%" x2="59.7029676%" y2="13.3258245%" id="linearGradient-15">
            <stop stop-color="#C2D6FF" offset="0%"></stop>
            <stop stop-color="#D4E1FC" offset="100%"></stop>
        </linearGradient>
        <linearGradient x1="50%" y1="34.0430045%" x2="50%" y2="100%" id="linearGradient-16">
            <stop stop-color="#DBE6FD" offset="0%"></stop>
            <stop stop-color="#B9D0FE" offset="100%"></stop>
        </linearGradient>
        <linearGradient x1="50%" y1="0%" x2="62.0816312%" y2="74.5544307%" id="linearGradient-17">
            <stop stop-color="#D7E3FB" offset="0%"></stop>
            <stop stop-color="#C4D7FF" offset="48.1247168%"></stop>
            <stop stop-color="#C4D7FF" offset="100%"></stop>
        </linearGradient>
        <linearGradient x1="19.842173%" y1="36.0862893%" x2="50%" y2="68.5057168%" id="linearGradient-18">
            <stop stop-color="#CDE0FE" offset="0%"></stop>
            <stop stop-color="#E0EAFD" offset="100%"></stop>
        </linearGradient>
        <linearGradient x1="54.1142829%" y1="18.9830254%" x2="54.1142829%" y2="81.1449522%" id="linearGradient-19">
            <stop stop-color="#9EBDFD" offset="0%"></stop>
            <stop stop-color="#C6D8FF" offset="100%"></stop>
        </linearGradient>
        <linearGradient x1="12.3230927%" y1="40.0796044%" x2="105.217126%" y2="52.9107624%" id="linearGradient-20">
            <stop stop-color="#DAE5FC" offset="0%"></stop>
            <stop stop-color="#AAC6FE" offset="100%"></stop>
        </linearGradient>
    </defs>
    <g id="页面-1" stroke="none" stroke-width="1" fill="none" fill-rule="evenodd">
        <g id="画板备份" transform="translate(-1663.000000, -340.000000)">
            <g id="2暂无任务/内容" transform="translate(1663.000000, 340.000000)">
                <rect id="矩形备份-15" fill="#F6F6F6" x="0" y="0" width="1238" height="1116"></rect>
                <g id="编组-4" transform="translate(141.000000, 164.000000)">
                    <g id="编组-14" opacity="0.352608817" transform="translate(123.000000, 129.000000)">
                        <polygon id="矩形" fill="url(#linearGradient-1)" points="-2.20268248e-13 194.199911 65.1873801 9.09494702e-13 65.1873801 194.199911"></polygon>
                        <polygon id="矩形备份-12" fill="url(#linearGradient-2)" points="63.1873801 0.199911087 152 127 139.578533 160.122877 63.1873801 194.199911"></polygon>
                    </g>
                    <g id="编组-14备份-5" transform="translate(512.000000, 124.000000)">
                        <polygon id="矩形" fill="url(#linearGradient-3)" points="-3.91928555e-13 131.831855 100.92048 2 92 159"></polygon>
                        <polygon id="矩形备份-12" fill="url(#linearGradient-4)" points="100.92048 0 252 174 92 159.640023"></polygon>
                    </g>
                    <g id="编组-14备份-9" transform="translate(690.000000, 260.000000)">
                        <polygon id="矩形" fill="url(#linearGradient-5)" points="1.03739239e-12 131.831855 73 2 66.5474442 159"></polygon>
                        <polygon id="矩形备份-12" fill="url(#linearGradient-6)" points="73.4673478 0 183 174 67 159.640023"></polygon>
                    </g>
                    <g id="编组-24" opacity="0.652297247" transform="translate(336.000000, 0.000000)">
                        <g id="编组-23" transform="translate(0.000000, 87.000998)">
                            <path d="M41.5999769,10.9990016 L106.407312,10.9990016 L106.407312,40.2100015 L106.407312,66.583486 L112.579439,107.380182 L150,233.31403 C123.383172,247.770678 97.8518025,254.999002 73.4058916,254.999002 C48.9599808,254.999002 24.4913502,247.770678 0,233.31403 L33.8848181,107.380182 L41.5999769,65.8599476 L41.5999769,39.4524941 L41.5999769,10.9990016 Z" id="矩形" fill="url(#linearGradient-7)"></path>
                            <ellipse id="椭圆形" fill="#E1E7FF" cx="75" cy="10.9990016" rx="33" ry="10"></ellipse>
                            <path d="M42,48.9990016 C42,54.5218491 56.326888,58.9990016 74,58.9990016 C91.673112,58.9990016 106,54.5218491 106,48.9990016" id="路径" stroke="#AEACEB" stroke-width="2" opacity="0.421526228"></path>
                            <path d="M42,72.9990016 C42,78.5218491 56.326888,82.9990016 74,82.9990016 C91.673112,82.9990016 106,78.5218491 106,72.9990016" id="路径" stroke="#AEACEB" stroke-width="2" opacity="0.421526228"></path>
                            <path d="M36,96.9990016 C36,102.521849 52.5654643,106.999002 73,106.999002 C93.4345357,106.999002 110,102.521849 110,96.9990016" id="路径" stroke="#AEACEB" stroke-width="2" opacity="0.421526228"></path>
                        </g>
                        <g id="编组-22" transform="translate(54.000000, 0.000000)">
                            <path d="M26.460902,98 C40.2118764,98 19.819388,66.6644124 51.3592436,56.9468964 C73.9007543,50.0017951 93.2496161,75.6817352 99.450994,59.7196929 C120.05186,6.69407566 152.151166,19.4223547 142.098797,9.19111212 C132.046428,-1.0401305 60.3514975,-4.93361032 26.460902,9.19111212 C6.18672593,17.6408636 0,41.5151636 0,50.0017951 C0,72.6747981 12.7099276,98 26.460902,98 Z" id="椭圆形" fill="#E0E8FF"></path>
                            <path d="M26.1569279,98 C39.7499356,98 19.5917094,70.6448739 50.7692456,62.1617434 C73.0518068,56.0988566 93.2534239,76.0961775 99.3835624,62.1617434 C119.747772,15.8718041 154.600469,12 133.390409,12 C126.837496,12 108.541781,41.8239126 92.5473605,49.1785667 C85.367599,52.4800095 71.08884,32.1225663 60.7095678,35.942769 C55.3160567,37.9279088 34.3797608,41.3258547 26.1569279,55.0682382 C19.9949567,65.3664131 0,50.6840594 0,56.0988566 C0,75.8917791 12.5639202,98 26.1569279,98 Z" id="椭圆形备份-7" fill="#D7DDF3"></path>
                        </g>
                    </g>
                    <g id="编组-13" opacity="0.733537946" transform="translate(20.000000, 317.000000)">
                        <polygon id="矩形" fill="url(#linearGradient-8)" points="78 1 78 270 0 270"></polygon>
                        <polygon id="矩形备份-11" fill="url(#linearGradient-9)" points="78.5442943 0 252 221.039529 113.757033 265.973538 78 270"></polygon>
                    </g>
                    <g id="编组-13备份" opacity="0.456287202" transform="translate(201.000000, 248.000000)">
                        <path d="M0.25890935,121.274772 C2.66644392,89.2119741 22.4935368,48.78705 59.740188,0 L65,221 L43.4072214,217.517379 C12.2341455,185.418439 -2.14862522,153.33757 0.25890935,121.274772 Z" id="矩形" fill="url(#linearGradient-10)"></path>
                        <polygon id="矩形备份-11" fill="url(#linearGradient-11)" points="60 0 162 90.7384369 143.92612 169.173357 60 223.001243"></polygon>
                    </g>
                    <ellipse id="椭圆形" fill="url(#linearGradient-12)" cx="471" cy="496" rx="471" ry="172"></ellipse>
                    <g id="编组" transform="translate(100.000000, 418.000000)" fill-rule="nonzero">
                        <polygon id="路径" fill="#B3CCFF" points="16 48 28 48 28 68 16 68"></polygon>
                        <polygon id="路径" fill="#A8C4FC" points="23.0004343 52 46 52 34.5006514 31.999564 23.0004343 12 11.5002171 31.999564 0 52"></polygon>
                        <polygon id="路径" fill="#B9D1FF" points="22 42 42 42 32 25 22 8 12 25 2 42"></polygon>
                        <polygon id="路径" fill="#CADDFD" points="23 30 40 30 31.5 14.9995694 23 0 14.5 14.9995694 6 30"></polygon>
                    </g>
                    <g id="编组备份-5" opacity="0.576892671" transform="translate(775.000000, 403.000000)" fill-rule="nonzero">
                        <polygon id="路径" fill="#B3CCFF" points="16 48 28 48 28 68 16 68"></polygon>
                        <polygon id="路径" fill="#A8C4FC" points="23.0004343 52 46 52 34.5006514 31.999564 23.0004343 12 11.5002171 31.999564 0 52"></polygon>
                        <polygon id="路径" fill="#B9D1FF" points="22 42 42 42 32 25 22 8 12 25 2 42"></polygon>
                        <polygon id="路径" fill="#CADDFD" points="23 30 40 30 31.5 14.9995694 23 0 14.5 14.9995694 6 30"></polygon>
                    </g>
                </g>
                <text id="暂无任务/内容" font-family="PingFangSC-Medium, PingFang SC" font-size="48" font-weight="400" fill="#5480E5">
                    <tspan x="434" y="973">暂无任务/内容</tspan>
                </text>
                <g id="编组-25" transform="translate(341.000000, 402.000000)">
                    <ellipse id="椭圆形" fill="#D2E0F9" opacity="0.707356771" filter="url(#filter-13)" cx="335" cy="263" rx="189" ry="67"></ellipse>
                    <ellipse id="椭圆形备份" fill="#D2E0F9" opacity="0.707356771" filter="url(#filter-14)" transform="translate(89.503351, 285.883953) rotate(-1.000000) translate(-89.503351, -285.883953) " cx="89.5033507" cy="285.883953" rx="88.5" ry="24.5"></ellipse>
                    <polygon id="矩形" fill="url(#linearGradient-15)" points="146 47.8453315 292.855949 0 292.855949 199.881455 150.493231 249.845331"></polygon>
                    <polygon id="路径-67" fill="url(#linearGradient-16)" points="146 52 150.687138 252.883001 339.791851 312.461099 339.791851 105.157738"></polygon>
                    <polygon id="矩形" fill="url(#linearGradient-17)" points="292 1.8189894e-12 490 51.183707 481.386917 253.367792 292.855949 200.036123"></polygon>
                    <polygon id="路径-66" fill="url(#linearGradient-18)" points="112 133.708001 305.132722 190.321171 339.363477 105.157738 145.571626 52"></polygon>
                    <polygon id="矩形" fill="url(#linearGradient-19)" points="340 110.816293 490.323372 58 482.813255 252.200838 340 316.816293"></polygon>
                    <polygon id="矩形" fill="url(#linearGradient-20)" points="340 106.73041 493.088116 56 523.3918 131.112402 378.031787 195.063238"></polygon>
                </g>
                <g id="编组-42" transform="translate(341.000000, 528.000000)">
                    <g id="编组" transform="translate(0.000000, 11.000000)" fill-rule="nonzero">
                        <polygon id="路径" fill="#FFB9B9" points="34.9010991 117.44545 24 116.757278 27.6483517 132.757278 40 127.768031"></polygon>
                        <polygon id="路径" fill="#2F2E41" points="139.674831 84.2708733 113.123502 58.7572783 97.944763 70.3584868 68 105.977822 71.3934339 111.23462 107.804065 86.8539549 132.475247 118.757278 156 107.110753"></polygon>
                        <polygon id="路径" fill="#2172EF" points="139.674831 84.2708733 113.123502 58.7572783 97.944763 70.3584868 68 105.977822 71.3934339 111.23462 107.804065 86.8539549 132.475247 118.757278 156 107.110753"></polygon>
                        <path d="M140,102.061204 L136.636364,104.757278 L109.181818,95.1350829 L102.772727,92.4390089 L90,95.1350829 C90,95.1350829 90,84.3507865 102.045454,84.7691429 L114.454545,87.8370894 L129.136364,88.9991901 L140,102.061204 L140,102.061204 Z" id="路径" fill="#FFD2D2"></path>
                        <path d="M178.409864,106.757278 C183.469955,102.757278 184.666667,108.090612 182,122.757278 C179.333333,137.423945 167.984849,141.423945 147.954546,134.757278 L102.454545,117.797912 L35.8636364,129.833591 L34,115.518428 L94.9090908,88.7572783 L148.318182,106.446079 L164,88.7572783 L178.409864,106.757278 Z" id="路径" fill="#3484FE"></path>
                        <path d="M112.611679,63.6055183 L107.036679,64.7572783 L105.822768,63.2830256 C103.844542,60.9334354 103.439905,57.6163669 104.788695,54.8060727 L120.389702,33.8440421 C120.389702,33.8440421 124.84071,23.5703437 131.899379,27.7627497 C138.958048,31.9551558 125.964702,38.819645 125.964702,38.819645 L118.186678,51.4429338 L118.950993,57.9388596 L112.611679,63.6055183 Z" id="路径" fill="#FFD2D2"></path>
                        <path d="M132,23.7572783 C131.999264,29.1160169 134.858087,34.0680103 139.499406,36.747592 C144.140724,39.4271737 149.859276,39.4271737 154.500594,36.747592 C159.141913,34.0680103 162.000736,29.1160169 162,23.7572783 C162.000736,18.3985397 159.141913,13.4465462 154.500594,10.7669645 C149.859276,8.08738284 144.140724,8.08738284 139.499406,10.7669645 C134.858087,13.4465462 131.999264,18.3985397 132,23.7572783 L132,23.7572783 Z" id="路径" fill="#FFD2D2"></path>
                        <path d="M142,34.5614635 L148.491089,50.7572783 L164,43.9786928 C164,43.9786928 158.946535,31.1949179 158.946535,30.785473 C158.946535,30.3760281 142,34.5614635 142,34.5614635 L142,34.5614635 Z" id="路径" fill="#F8C8C8"></path>
                        <path d="M186,81.8027327 C186,90.6663691 184.743682,96.0300055 182,104.439097 L180.741276,107.120915 L146.033694,107.120915 L144.433213,104.439097 L138.762936,76.2572783 L117.179302,64.2572783 L110,63.1209146 L111.509025,58.9845509 L117.956679,50.3481874 L124.404332,49.57546 L126.279182,48.0754599 L127.788207,48.8481873 L133.824308,45.4845508 L135.699158,46.2572783 L146.765343,47.3027328 L153.487365,45.8936418 L163.135981,40.7572783 L167.11432,41.3936419 L180.741276,52.6663692 C184.216607,61.9390964 186,71.8481875 186,81.8027327 Z" id="路径" fill="#FFFFFF"></path>
                        <path d="M27.0639829,123.132727 C27.0639829,123.132727 30.3845763,117.273972 28.9935169,116.622999 C27.6024575,115.972026 21.6343642,113.22864 21.6343642,113.22864 L12.8841521,110.206266 C12.8841521,110.206266 0.274872358,90.7700773 0.00563507564,107.648873 C-0.263602207,124.527669 9.20457596,128.619498 9.20457596,128.619498 C9.20457596,128.619498 17.6406777,147.451212 22.4420761,144.428839 C27.2434744,141.406465 32,131.22339 32,131.22339 C32,131.22339 23.3395337,126.43409 27.0639829,123.132727 L27.0639829,123.132727 Z" id="路径" fill="#2F2E41"></path>
                        <polygon id="路径" fill="#000000" opacity="0.1" points="182 78.5391673 167.633987 87.8108324 146.176471 106.757278 144.529412 104.11463 140 81.8984662 141.143791 81.8984662 152.856209 60.7572783"></polygon>
                        <polygon id="路径" fill="#FFFFFF" points="152.70017 58.7572783 140.925042 80.1510462 136.739353 80.1510462 134.07155 87.6297995 128 89.1708759 144.32879 106.757278 167.55707 86.134049 182 76.7969384"></polygon>
                        <path d="M137.051257,12.5952853 L135.472739,13.2016672 C134.480528,12.5019955 134.209925,11.1026523 134.886433,10.0298227 C134.886433,10.0298227 134.886433,9.98317778 134.931533,9.98317778 L132,9.8432436 C139.306283,-0.185382886 153.107039,-2.23775287 162.80365,5.31870054 C163.525258,5.87843781 164.201766,6.48481999 164.833173,7.09120189 C164.968474,6.62475417 166.411691,7.55764961 166.997997,8.49054506 C167.178399,7.7442287 168.531414,11.4291659 169.02752,14.087918 C169.253023,13.2016672 170.109932,14.6476553 169.343224,16.0003538 C169.839329,15.9070643 170.019731,17.1664733 169.658927,17.8661447 C170.155033,17.6329207 170.109932,19.1255537 169.523626,20.1050938 C170.245234,20.0584489 163.70566,30.600168 161.04473,36.7572783 C160.278021,33.0723411 159.421111,29.2008249 156.895482,26.4954281 C156.489578,26.0289803 155.993472,25.6091772 155.542467,25.1893744 L153.016838,22.9037804 C150.085305,20.2450283 147.469476,16.9798942 143.590831,15.9537089 C140.929901,15.2540372 139.216082,15.114103 140.704399,11.9889031 C139.396484,12.5486404 138.17877,13.3882463 136.825755,13.9013389 C136.870855,13.5281808 137.051257,13.0150881 137.051257,12.5952853 Z" id="路径" fill="#2F2E41"></path>
                        <path d="M152,25.7572783 C152,27.4141325 153.343146,28.7572783 155,28.7572783 C156.656854,28.7572783 158,27.4141325 158,25.7572783 C158,24.100424 156.656854,22.7572783 155,22.7572783 C153.343146,22.7572783 152,24.100424 152,25.7572783 Z" id="路径" fill="#FFB9B9"></path>
                    </g>
                    <polygon id="矩形" fill="#2172EF" points="139.077709 66.8812418 158 68.2693578 144.756905 91.9742607 137.222927 89.5056188"></polygon>
                    <path d="M167.118684,27.1900323 L170.264485,27.9167631 C171.980406,28.3131688 173.425904,27.2691745 173.878923,25.3069326 C174.331943,23.3446907 173.48955,21.7721568 171.773629,21.3757512 L168.62777,20.6490068 C169.310636,11.1612457 164.107018,2.38046775 155.527385,0.398433666 C146.947752,-1.58360042 138.424031,4.02589973 134.881257,12.853016 L131.735515,12.1262988 C130.019594,11.7298931 128.574096,12.7738874 128.121077,14.7361293 C127.668057,16.6983712 128.51045,18.2709051 130.226371,18.6673107 L167.118684,27.1900323 Z" id="形状备份-8" fill="#FBEA34" fill-rule="nonzero"></path>
                    <path d="M164,103.056087 C166.666667,110.245551 167.333333,117.094392 166,123.60261 C164.666667,130.110828 161.444444,132.868048 156.333333,131.87427 L153,131.87427 L146,118.92111 L164,103.056087 Z" id="路径-83" fill="#3484FE"></path>
                    <path d="M156,66.8812418 C164.635146,59.6189659 169.301812,55.987828 170,55.987828 C170.698188,55.987828 166.031521,59.6189659 156,66.8812418 Z" id="路径-84" stroke="#2172EF" stroke-width="4"></path>
                    <line x1="139.077709" y1="66.8812418" x2="144.536444" y2="56.7572783" id="路径-85" stroke="#2172EF" stroke-width="4"></line>
                </g>
            </g>
        </g>
    </g>
</svg>