<?xml version="1.0" encoding="UTF-8"?>
<svg width="1238px" height="1116px" viewBox="0 0 1238 1116" version="1.1" xmlns="http://www.w3.org/2000/svg" xmlns:xlink="http://www.w3.org/1999/xlink">
    <!-- Generator: Sketch 60.1 (88133) - https://sketch.com -->
    <title>6图片加载失败</title>
    <desc>Created with Sketch.</desc>
    <defs>
        <linearGradient x1="50%" y1="0%" x2="50%" y2="86.0706991%" id="linearGradient-1">
            <stop stop-color="#D2DEFB" offset="0%"></stop>
            <stop stop-color="#F3F4F8" offset="100%"></stop>
        </linearGradient>
        <linearGradient x1="50%" y1="0%" x2="50%" y2="43.9096274%" id="linearGradient-2">
            <stop stop-color="#E5ECF8" offset="0%"></stop>
            <stop stop-color="#F3F4F6" offset="100%"></stop>
        </linearGradient>
        <linearGradient x1="50%" y1="0%" x2="50%" y2="86.0706991%" id="linearGradient-3">
            <stop stop-color="#D8E3FB" offset="0%"></stop>
            <stop stop-color="#F3F4F8" offset="100%"></stop>
        </linearGradient>
        <linearGradient x1="50%" y1="0%" x2="50%" y2="43.9096274%" id="linearGradient-4">
            <stop stop-color="#E5ECF8" offset="0%"></stop>
            <stop stop-color="#F3F4F6" offset="100%"></stop>
        </linearGradient>
        <linearGradient x1="50%" y1="0%" x2="50%" y2="100%" id="linearGradient-5">
            <stop stop-color="#D4E0FC" offset="0%"></stop>
            <stop stop-color="#E0E8FE" offset="100%"></stop>
        </linearGradient>
        <linearGradient x1="50%" y1="0%" x2="50%" y2="100%" id="linearGradient-6">
            <stop stop-color="#D4E0FC" offset="0%"></stop>
            <stop stop-color="#E0E8FE" offset="100%"></stop>
        </linearGradient>
        <linearGradient x1="50%" y1="0%" x2="50%" y2="86.0706991%" id="linearGradient-7">
            <stop stop-color="#D2DEFB" offset="0%"></stop>
            <stop stop-color="#F3F4F8" offset="100%"></stop>
        </linearGradient>
        <linearGradient x1="50%" y1="0%" x2="50%" y2="43.9096274%" id="linearGradient-8">
            <stop stop-color="#E5ECF8" offset="0%"></stop>
            <stop stop-color="#F3F4F6" offset="100%"></stop>
        </linearGradient>
        <linearGradient x1="50%" y1="0%" x2="50%" y2="88.0272486%" id="linearGradient-9">
            <stop stop-color="#D0DDFC" offset="0%"></stop>
            <stop stop-color="#F3F4F8" offset="100%"></stop>
        </linearGradient>
        <linearGradient x1="50%" y1="0%" x2="50%" y2="100%" id="linearGradient-10">
            <stop stop-color="#E8EDF8" offset="0%"></stop>
            <stop stop-color="#F4F5F6" offset="100%"></stop>
        </linearGradient>
        <linearGradient x1="50%" y1="0%" x2="50%" y2="88.0272486%" id="linearGradient-11">
            <stop stop-color="#D0DDFC" offset="0%"></stop>
            <stop stop-color="#F3F4F8" offset="100%"></stop>
        </linearGradient>
        <linearGradient x1="50%" y1="0%" x2="50%" y2="100%" id="linearGradient-12">
            <stop stop-color="#E8EDF8" offset="0%"></stop>
            <stop stop-color="#F4F5F6" offset="100%"></stop>
        </linearGradient>
        <linearGradient x1="50%" y1="0%" x2="50%" y2="100%" id="linearGradient-13">
            <stop stop-color="#D1DFFC" offset="0%"></stop>
            <stop stop-color="#EAEFF9" offset="100%"></stop>
        </linearGradient>
        <linearGradient x1="50%" y1="0%" x2="50%" y2="100%" id="linearGradient-14">
            <stop stop-color="#E6EDF8" offset="0%"></stop>
            <stop stop-color="#F1F2F6" offset="100%"></stop>
        </linearGradient>
        <linearGradient x1="51.503123%" y1="45.4855527%" x2="50%" y2="54.8995405%" id="linearGradient-15">
            <stop stop-color="#DBE7FC" offset="0%"></stop>
            <stop stop-color="#F3F5F6" offset="100%"></stop>
        </linearGradient>
        <filter x="-3.1%" y="-24.0%" width="106.2%" height="148.0%" filterUnits="objectBoundingBox" id="filter-16">
            <feGaussianBlur stdDeviation="4" in="SourceGraphic"></feGaussianBlur>
        </filter>
        <linearGradient x1="52.3114741%" y1="23.4547157%" x2="55.0265784%" y2="67.1799155%" id="linearGradient-17">
            <stop stop-color="#ADC4FC" offset="0%"></stop>
            <stop stop-color="#DEE7FF" offset="100%"></stop>
        </linearGradient>
        <linearGradient x1="52.3114741%" y1="23.4547157%" x2="55.0265784%" y2="67.1799155%" id="linearGradient-18">
            <stop stop-color="#D3DFFC" offset="0%"></stop>
            <stop stop-color="#F1F3F8" offset="100%"></stop>
        </linearGradient>
        <linearGradient x1="52.9841547%" y1="23.4547157%" x2="56.4894034%" y2="67.1799155%" id="linearGradient-19">
            <stop stop-color="#ADC4FC" offset="0%"></stop>
            <stop stop-color="#DEE7FF" offset="100%"></stop>
        </linearGradient>
        <linearGradient x1="50%" y1="7.70186176%" x2="50%" y2="100%" id="linearGradient-20">
            <stop stop-color="#D3DFFC" offset="0%"></stop>
            <stop stop-color="#F2F2F2" offset="100%"></stop>
        </linearGradient>
        <linearGradient x1="50%" y1="0%" x2="50%" y2="91.4439886%" id="linearGradient-21">
            <stop stop-color="#C3D4FC" offset="0%"></stop>
            <stop stop-color="#E9EFF8" offset="100%"></stop>
        </linearGradient>
        <linearGradient x1="50%" y1="0%" x2="50%" y2="100%" id="linearGradient-22">
            <stop stop-color="#C8D7FB" offset="0%"></stop>
            <stop stop-color="#E9EFF8" offset="100%"></stop>
        </linearGradient>
    </defs>
    <g id="页面-1" stroke="none" stroke-width="1" fill="none" fill-rule="evenodd">
        <g id="画板备份" transform="translate(-7323.000000, -340.000000)">
            <g id="6图片加载失败" transform="translate(7323.000000, 340.000000)">
                <rect id="矩形备份-25" fill="#F6F6F6" x="0" y="0" width="1238" height="1116"></rect>
                <text id="图片加载失败…" font-family="PingFangSC-Medium, PingFang SC" font-size="48" font-weight="400" fill="#5480E5">
                    <tspan x="476" y="947">图片加载失败…</tspan>
                </text>
                <g id="编组-14备份-32" transform="translate(230.000000, 384.000000)">
                    <polygon id="矩形" fill="url(#linearGradient-1)" points="-1.70352621e-12 8.19991109 41.1873801 1.16529009e-12 41.1873801 194.199911 -1.70352621e-12 200.199911"></polygon>
                    <polygon id="矩形备份-12" fill="url(#linearGradient-2)" points="39.1873801 0.199911087 115.578533 7.92649192 115.578533 160.122877 39.1873801 194.199911"></polygon>
                </g>
                <g id="编组-14备份-34" transform="translate(668.000000, 304.000000)">
                    <polygon id="矩形" fill="url(#linearGradient-3)" points="-1.70352621e-12 24.2215639 60 6.25277607e-13 60 217.00964 -1.70352621e-12 222.199911"></polygon>
                    <polygon id="矩形备份-12" fill="url(#linearGradient-4)" points="60 0 114.59369 11.8192235 116 188.897369 60 217.94555"></polygon>
                </g>
                <g id="编组-24备份-11" opacity="0.30594308" transform="translate(498.000000, 142.000000)">
                    <g id="编组-23" transform="translate(0.000000, 87.000998)">
                        <path d="M41.5999769,10.9990016 L106.407312,10.9990016 L106.407312,40.2100015 L106.407312,66.583486 L112.579439,107.380182 L150,233.31403 C123.383172,247.770678 97.8518025,254.999002 73.4058916,254.999002 C48.9599808,254.999002 24.4913502,247.770678 0,233.31403 L33.8848181,107.380182 L41.5999769,65.8599476 L41.5999769,39.4524941 L41.5999769,10.9990016 Z" id="矩形" fill="url(#linearGradient-5)"></path>
                        <ellipse id="椭圆形" fill="#E1E7FF" cx="75" cy="10.9990016" rx="33" ry="10"></ellipse>
                        <path d="M42,48.9990016 C42,54.5218491 56.326888,58.9990016 74,58.9990016 C91.673112,58.9990016 106,54.5218491 106,48.9990016" id="路径" stroke="#AEACEB" stroke-width="2" opacity="0.421526228"></path>
                        <path d="M42,72.9990016 C42,78.5218491 56.326888,82.9990016 74,82.9990016 C91.673112,82.9990016 106,78.5218491 106,72.9990016" id="路径" stroke="#AEACEB" stroke-width="2" opacity="0.421526228"></path>
                        <path d="M36,96.9990016 C36,102.521849 52.5654643,106.999002 73,106.999002 C93.4345357,106.999002 110,102.521849 110,96.9990016" id="路径" stroke="#AEACEB" stroke-width="2" opacity="0.421526228"></path>
                    </g>
                    <g id="编组-22" transform="translate(54.000000, 0.000000)">
                        <path d="M26.460902,98 C40.2118764,98 19.819388,66.6644124 51.3592436,56.9468964 C73.9007543,50.0017951 93.2496161,75.6817352 99.450994,59.7196929 C120.05186,6.69407566 152.151166,19.4223547 142.098797,9.19111212 C132.046428,-1.0401305 60.3514975,-4.93361032 26.460902,9.19111212 C6.18672593,17.6408636 0,41.5151636 0,50.0017951 C0,72.6747981 12.7099276,98 26.460902,98 Z" id="椭圆形" fill="#E0E8FF"></path>
                        <path d="M26.1569279,98 C39.7499356,98 19.5917094,70.6448739 50.7692456,62.1617434 C73.0518068,56.0988566 93.2534239,76.0961775 99.3835624,62.1617434 C119.747772,15.8718041 154.600469,12 133.390409,12 C126.837496,12 108.541781,41.8239126 92.5473605,49.1785667 C85.367599,52.4800095 71.08884,32.1225663 60.7095678,35.942769 C55.3160567,37.9279088 34.3797608,41.3258547 26.1569279,55.0682382 C19.9949567,65.3664131 0,50.6840594 0,56.0988566 C0,75.8917791 12.5639202,98 26.1569279,98 Z" id="椭圆形备份-7" fill="#D7DDF3"></path>
                    </g>
                </g>
                <g id="编组-24备份-12" opacity="0.30594308" transform="translate(806.000000, 308.000000)">
                    <g id="编组-23" transform="translate(0.000000, 55.000000)">
                        <path d="M26.6239852,7.29858369 L68.1006794,7.29858369 L68.1006794,25.6992135 L68.1006794,42.3124321 L72.0508407,68.0111383 L96,147.339546 C78.96523,156.446096 62.6251536,160.999371 46.9797706,160.999371 C31.3343877,160.999371 15.6744641,156.446096 0,147.339546 L21.6862836,68.0111383 L26.6239852,41.8566599 L26.6239852,25.2220436 L26.6239852,7.29858369 Z" id="矩形" fill="url(#linearGradient-6)"></path>
                        <ellipse id="椭圆形" fill="#E1E7FF" cx="48" cy="7.29858369" rx="21.12" ry="6.2992126"></ellipse>
                        <path d="M26.88,31.2355916 C26.88,34.7145506 36.0492083,37.5348042 47.36,37.5348042 C58.6707917,37.5348042 67.84,34.7145506 67.84,31.2355916" id="路径" stroke="#AEACEB" stroke-width="2" opacity="0.421526228"></path>
                        <path d="M26.88,46.3537018 C26.88,49.8326609 36.0492083,52.6529144 47.36,52.6529144 C58.6707917,52.6529144 67.84,49.8326609 67.84,46.3537018" id="路径" stroke="#AEACEB" stroke-width="2" opacity="0.421526228"></path>
                        <path d="M23.04,61.471812 C23.04,64.9507711 33.6418971,67.7710246 46.72,67.7710246 C59.7981029,67.7710246 70.4,64.9507711 70.4,61.471812" id="路径" stroke="#AEACEB" stroke-width="2" opacity="0.421526228"></path>
                    </g>
                    <g id="编组-22" transform="translate(34.000000, 0.000000)">
                        <path d="M16.9055763,62 C25.690921,62 12.6623868,42.1754446 32.8128501,36.0276283 C47.2143708,31.6337887 59.5761436,47.8802814 63.538135,37.7818465 C76.6997993,4.23502746 97.2076891,12.2876122 90.7853424,5.81478522 C84.3629957,-0.658041746 38.5579012,-3.12126367 16.9055763,5.81478522 C3.95263045,11.1605463 0,26.2646953 0,31.6337887 C0,45.9779335 8.12023153,62 16.9055763,62 Z" id="椭圆形" fill="#E0E8FF"></path>
                        <path d="M16.7113706,62 C25.3957922,62 12.5169254,44.6936957 32.4359069,39.3268173 C46.6719877,35.4911134 59.5785764,48.1424797 63.4950538,39.3268173 C76.5055212,10.0413455 98.772522,7.59183673 85.2216501,7.59183673 C81.0350671,7.59183673 69.3461377,26.4600263 59.1274803,31.1129708 C54.5404104,33.2016387 45.41787,20.3224399 38.7866683,22.7393029 C35.340814,23.9952076 21.9648472,26.1449285 16.7113706,34.8390895 C12.7745556,41.3542613 0,32.0654254 0,35.4911134 C0,48.0131664 8.02694899,62 16.7113706,62 Z" id="椭圆形备份-7" fill="#D7DDF3"></path>
                    </g>
                </g>
                <g id="编组-14备份-35" transform="translate(902.000000, 422.000000)">
                    <polygon id="矩形" fill="url(#linearGradient-7)" points="0 8.19172301 36 0 36 194.005991 0 200"></polygon>
                    <polygon id="矩形备份-12" fill="url(#linearGradient-8)" points="36 0 104 7.72658083 104 159.922966 36 194"></polygon>
                </g>
                <g id="编组-13备份-16" transform="translate(330.000000, 244.000000)">
                    <polygon id="矩形" fill="url(#linearGradient-9)" points="-1.93267624e-12 9.6708526 38.7119453 0.739480015 38.7119453 290.108615 1.12888741 291.806473"></polygon>
                    <polygon id="矩形备份-11" fill="url(#linearGradient-10)" points="39.1288874 -1.70530257e-12 66.102666 12.2505005 66.102666 285.782276 38.7119453 290.108615"></polygon>
                </g>
                <g id="编组-13备份-17" opacity="0.444196429" transform="translate(398.000000, 366.000000)">
                    <polygon id="矩形" fill="url(#linearGradient-11)" points="0.102666016 0.0843606028 19.4545012 0.0843606028 24.7119453 288.108615 3.12888741 283.569794"></polygon>
                    <polygon id="矩形备份-11" fill="url(#linearGradient-12)" points="20.4169422 -1.70530257e-12 102.345927 8.09176762 104 220 20.4169422 290"></polygon>
                </g>
                <g id="编组-15备份-8" transform="translate(476.000000, 434.000000)">
                    <polygon id="矩形" fill="url(#linearGradient-13)" points="0 9.47588708 50 -5.61328761e-13 50 98.2631182 0 98.2631182"></polygon>
                    <polygon id="矩形备份-13" fill="url(#linearGradient-14)" points="50.0132816 1.47792889e-12 115.44161 1.73900532 115.44161 87.9697844 50 98.2631182"></polygon>
                </g>
                <ellipse id="椭圆形备份-18" fill="url(#linearGradient-15)" cx="619" cy="656" rx="471" ry="172"></ellipse>
                <ellipse id="椭圆形备份" fill="#DEEAFF" filter="url(#filter-16)" transform="translate(657.000000, 694.000000) rotate(4.000000) translate(-657.000000, -694.000000) " cx="657" cy="694" rx="194" ry="25"></ellipse>
                <g id="编组备份-23" transform="translate(242.000000, 542.000000)" fill-rule="nonzero">
                    <polygon id="路径" fill="#B3CCFF" points="16 48 28 48 28 68 16 68"></polygon>
                    <polygon id="路径" fill="#A8C4FC" points="23.0004343 52 46 52 34.5006514 31.999564 23.0004343 12 11.5002171 31.999564 0 52"></polygon>
                    <polygon id="路径" fill="#B9D1FF" points="22 42 42 42 32 25 22 8 12 25 2 42"></polygon>
                    <polygon id="路径" fill="#CADDFD" points="23 30 40 30 31.5 14.9995694 23 0 14.5 14.9995694 6 30"></polygon>
                </g>
                <g id="编组备份-24" opacity="0.576892671" transform="translate(880.000000, 518.000000)" fill-rule="nonzero">
                    <polygon id="路径" fill="#B3CCFF" points="16 48 28 48 28 68 16 68"></polygon>
                    <polygon id="路径" fill="#A8C4FC" points="23.0004343 52 46 52 34.5006514 31.999564 23.0004343 12 11.5002171 31.999564 0 52"></polygon>
                    <polygon id="路径" fill="#B9D1FF" points="22 42 42 42 32 25 22 8 12 25 2 42"></polygon>
                    <polygon id="路径" fill="#CADDFD" points="23 30 40 30 31.5 14.9995694 23 0 14.5 14.9995694 6 30"></polygon>
                </g>
                <g id="编组-7" transform="translate(467.000000, 376.000000)">
                    <g id="编组-6" transform="translate(187.000000, 19.000000)">
                        <ellipse id="椭圆形" fill="#6C6969" cx="42.1898799" cy="273.049273" rx="13.3" ry="5.6"></ellipse>
                        <path d="M34.4898799,74.949273 C41.0620684,74.949273 46.3898799,69.6214616 46.3898799,63.049273 C46.3898799,56.4770845 41.0620684,51.149273 34.4898799,51.149273 C27.9176914,51.149273 22.3966795,51.9534615 22.3966795,63.4249414 C22.3966795,74.8964213 27.9176914,74.949273 34.4898799,74.949273 Z" id="椭圆形" fill="#FADFC4"></path>
                        <polygon id="路径-87" fill="url(#linearGradient-17)" points="114.916401 3.15494362 222.113723 31.0415175 154.135755 314.986048 20.3168782 271.002285 70.7118208 214.207391 46.2385546 96.856227"></polygon>
                        <polygon id="路径-87备份" fill="url(#linearGradient-18)" points="104.916401 0.154943623 212.113723 28.0415175 144.135755 311.986048 10.3168782 268.002285 60.7118208 211.207391 36.2385546 93.856227"></polygon>
                        <circle id="椭圆形" fill="#C9DCFF" cx="127.58988" cy="87.549273" r="32.9"></circle>
                        <path d="M29.0312832,74.949273 L34.3932797,82.7749174 C38.8508292,81.9516667 41.079604,80.2034094 41.079604,77.5301456 C41.079604,74.8568818 41.079604,73.1086245 41.079604,72.2853738 L29.0312832,72.2853738 L29.0312832,74.949273 Z" id="路径-89" fill="#FADFC4"></path>
                        <path d="M20.8250265,54.649273 L20.8250265,57.2240394 L22.3966795,59.6751465 L34.3932797,57.2240394 L41.079604,54.649273 C44.6197879,60.249273 46.3898799,63.049273 46.3898799,63.049273 C46.3898799,63.049273 46.3898799,65.2375102 46.3898799,69.6139844 C49.9300638,60.9517672 49.9300638,54.7968634 46.3898799,51.149273 C41.079604,45.6778875 35.7208487,43.6734833 29.0312832,46.2827304 C24.5715728,48.0222285 21.8361539,50.811076 20.8250265,54.649273 Z" id="路径-90" stroke="#979797" stroke-width="0.7" fill="#575757"></path>
                        <path d="M8.18071653,105.687226 L3.05418149,101.230352 C6.47187151,91.9008955 8.18071653,87.2361674 8.18071653,87.2361674 C8.18071653,87.2361674 20.9987497,79.1708352 26.0013418,77.5301456 C31.0039338,75.8894561 21.7378003,81.2946867 31.4087021,82.7749174 C37.85597,83.7617379 41.8693501,82.5603772 43.4488424,79.1708352 C52.2125223,79.5489757 57.683052,83.3338988 59.8604315,90.5256046 C63.1265009,101.313163 61.6268817,116.739569 56.9431866,116.739569 C53.8207232,116.739569 49.3226085,116.739569 43.4488424,116.739569 C48.8565301,128.318213 51.5603739,136.348246 51.5603739,140.829668 C51.5603739,145.311091 50.7219219,152.429914 49.0450179,162.18614 L22.3966795,162.18614 L3.05418149,157.070496 L8.18071653,105.687226 Z" id="路径-91" fill="#FFFFFF"></path>
                        <polyline id="路径-92" fill="#448DED" points="46.3898799 162.18614 46.3898799 267.671806 29.0312832 267.671806 26.0388327 162.18614"></polyline>
                        <path d="M56.9431866,116.739569 L44.4341219,143.068256 L5.4399451,116.739569 L0.720788884,107.112115 L3.05418149,101.230352 L5.4399451,98.9021522 C3.61276414,100.874072 3.61276414,102.497898 5.4399451,103.773629 C7.26712605,105.049361 9.01710432,107.29924 10.6898799,110.523267 C14.2805359,114.667468 16.0758639,116.739569 16.0758639,116.739569 C16.0758639,116.739569 24.4104439,120.542114 41.079604,128.147205 L46.3898799,112.808082 L56.9431866,116.739569 Z" id="路径-93" fill="#FADFC4"></path>
                    </g>
                    <polygon id="路径-15" fill="url(#linearGradient-19)" points="10 3 224.92236 3 180.059072 104.111754 224.92236 218.449273 191.781089 295.294409 10 295.294409"></polygon>
                    <polygon id="路径-15备份" fill="url(#linearGradient-20)" points="-2.27373675e-13 -1.19360335e-13 214.92236 -1.19360335e-13 170.059072 101.111754 214.92236 215.449273 181.781089 292.294409 -2.27373675e-13 292.294409"></polygon>
                    <polygon id="路径-65" fill="url(#linearGradient-21)" points="0.214356302 248.352525 129.520145 106.236167 223.214356 216.138295 190 292.294409 0.214356302 293.294409"></polygon>
                </g>
                <polygon id="路径-88" fill="url(#linearGradient-22)" points="805 680.18445 729.752747 552 705.44778 563.162918 714.333186 607.166759 664 663.992415 797.654887 708"></polygon>
                <path d="M706.929843,453.813979 L710.097791,453.813979 C711.825793,453.813979 712.977792,452.332842 712.977792,450.11113 C712.977792,447.889418 711.825793,446.408281 710.097791,446.408281 L706.929784,446.408281 C705.489779,436.040296 698.57777,427.893979 689.937733,427.893979 C681.297696,427.893979 674.385712,436.040252 672.945682,446.408281 L669.777793,446.408281 C668.049791,446.408281 666.897792,447.889418 666.897792,450.11113 C666.897792,452.332842 668.049791,453.813979 669.777793,453.813979 L706.929843,453.813979 Z" id="形状备份-5" fill="#FBEA34" fill-rule="nonzero" transform="translate(689.937792, 440.853979) rotate(5.000000) translate(-689.937792, -440.853979) "></path>
            </g>
        </g>
    </g>
</svg>