<?xml version="1.0" encoding="UTF-8"?>
<svg width="1238px" height="1116px" viewBox="0 0 1238 1116" version="1.1" xmlns="http://www.w3.org/2000/svg" xmlns:xlink="http://www.w3.org/1999/xlink">
    <!-- Generator: Sketch 60.1 (88133) - https://sketch.com -->
    <title>3开发中</title>
    <desc>Created with Sketch.</desc>
    <defs>
        <linearGradient x1="50%" y1="0%" x2="50%" y2="86.0706991%" id="linearGradient-1">
            <stop stop-color="#D2DEFB" offset="0%"></stop>
            <stop stop-color="#F3F4F8" offset="100%"></stop>
        </linearGradient>
        <linearGradient x1="50%" y1="0%" x2="50%" y2="43.9096274%" id="linearGradient-2">
            <stop stop-color="#E5ECF8" offset="0%"></stop>
            <stop stop-color="#F3F4F6" offset="100%"></stop>
        </linearGradient>
        <linearGradient x1="50%" y1="0%" x2="50%" y2="86.0706991%" id="linearGradient-3">
            <stop stop-color="#D8E3FB" offset="0%"></stop>
            <stop stop-color="#F3F4F8" offset="100%"></stop>
        </linearGradient>
        <linearGradient x1="50%" y1="0%" x2="50%" y2="43.9096274%" id="linearGradient-4">
            <stop stop-color="#E5ECF8" offset="0%"></stop>
            <stop stop-color="#F3F4F6" offset="100%"></stop>
        </linearGradient>
        <linearGradient x1="50%" y1="0%" x2="50%" y2="86.0706991%" id="linearGradient-5">
            <stop stop-color="#D8E3FB" offset="0%"></stop>
            <stop stop-color="#F3F4F8" offset="100%"></stop>
        </linearGradient>
        <linearGradient x1="50%" y1="0%" x2="50%" y2="43.9096274%" id="linearGradient-6">
            <stop stop-color="#E5ECF8" offset="0%"></stop>
            <stop stop-color="#F3F4F6" offset="100%"></stop>
        </linearGradient>
        <linearGradient x1="50%" y1="0%" x2="50%" y2="100%" id="linearGradient-7">
            <stop stop-color="#D4E0FC" offset="0%"></stop>
            <stop stop-color="#E0E8FE" offset="100%"></stop>
        </linearGradient>
        <linearGradient x1="50%" y1="0%" x2="50%" y2="88.0272486%" id="linearGradient-8">
            <stop stop-color="#D0DDFC" offset="0%"></stop>
            <stop stop-color="#F3F4F8" offset="100%"></stop>
        </linearGradient>
        <linearGradient x1="50%" y1="0%" x2="50%" y2="100%" id="linearGradient-9">
            <stop stop-color="#E8EDF8" offset="0%"></stop>
            <stop stop-color="#F4F5F6" offset="100%"></stop>
        </linearGradient>
        <linearGradient x1="50%" y1="0%" x2="50%" y2="88.0272486%" id="linearGradient-10">
            <stop stop-color="#D0DDFC" offset="0%"></stop>
            <stop stop-color="#F3F4F8" offset="100%"></stop>
        </linearGradient>
        <linearGradient x1="50%" y1="0%" x2="50%" y2="100%" id="linearGradient-11">
            <stop stop-color="#E8EDF8" offset="0%"></stop>
            <stop stop-color="#F4F5F6" offset="100%"></stop>
        </linearGradient>
        <linearGradient x1="51.503123%" y1="45.4855527%" x2="50%" y2="54.8995405%" id="linearGradient-12">
            <stop stop-color="#DBE7FC" offset="0%"></stop>
            <stop stop-color="#F3F5F6" offset="100%"></stop>
        </linearGradient>
        <linearGradient x1="50%" y1="0%" x2="54.2985536%" y2="89.7432771%" id="linearGradient-13">
            <stop stop-color="#7DA0EF" offset="0%"></stop>
            <stop stop-color="#DEE8F9" offset="100%"></stop>
        </linearGradient>
        <filter x="-6.2%" y="-31.4%" width="112.4%" height="162.8%" filterUnits="objectBoundingBox" id="filter-14">
            <feGaussianBlur stdDeviation="9" in="SourceGraphic"></feGaussianBlur>
        </filter>
        <linearGradient x1="50%" y1="0%" x2="54.2985536%" y2="89.7432771%" id="linearGradient-15">
            <stop stop-color="#9EBBF8" offset="0%"></stop>
            <stop stop-color="#EAF0F8" offset="100%"></stop>
        </linearGradient>
    </defs>
    <g id="页面-1" stroke="none" stroke-width="1" fill="none" fill-rule="evenodd">
        <g id="画板备份" transform="translate(-3051.000000, -358.000000)">
            <g id="3开发中..." transform="translate(3051.000000, 358.000000)">
                <rect id="矩形备份-21" fill="#F6F6F6" x="0" y="0" width="1238" height="1116"></rect>
                <text id="开发中…" font-family="PingFangSC-Medium, PingFang SC" font-size="48" font-weight="400" fill="#5480E5">
                    <tspan x="523" y="955">开发中…</tspan>
                </text>
                <g id="编组-4备份-6" transform="translate(148.000000, 129.000000)">
                    <g id="编组-14" opacity="0.352608817" transform="translate(123.000000, 129.000000)">
                        <polygon id="矩形" fill="url(#linearGradient-1)" points="-2.20268248e-13 194.199911 65.1873801 9.09494702e-13 65.1873801 194.199911"></polygon>
                        <polygon id="矩形备份-12" fill="url(#linearGradient-2)" points="63.1873801 0.199911087 152 127 139.578533 160.122877 63.1873801 194.199911"></polygon>
                    </g>
                    <g id="编组-14备份-5" transform="translate(512.000000, 124.000000)">
                        <polygon id="矩形" fill="url(#linearGradient-3)" points="-3.91928555e-13 131.831855 100.92048 2 92 159"></polygon>
                        <polygon id="矩形备份-12" fill="url(#linearGradient-4)" points="100.92048 0 252 174 92 159.640023"></polygon>
                    </g>
                    <g id="编组-14备份-9" transform="translate(690.000000, 260.000000)">
                        <polygon id="矩形" fill="url(#linearGradient-5)" points="1.03739239e-12 131.831855 73 2 66.5474442 159"></polygon>
                        <polygon id="矩形备份-12" fill="url(#linearGradient-6)" points="73.4673478 0 183 174 67 159.640023"></polygon>
                    </g>
                    <g id="编组-24" opacity="0.652297247" transform="translate(336.000000, 0.000000)">
                        <g id="编组-23" transform="translate(0.000000, 87.000998)">
                            <path d="M41.5999769,10.9990016 L106.407312,10.9990016 L106.407312,40.2100015 L106.407312,66.583486 L112.579439,107.380182 L150,233.31403 C123.383172,247.770678 97.8518025,254.999002 73.4058916,254.999002 C48.9599808,254.999002 24.4913502,247.770678 0,233.31403 L33.8848181,107.380182 L41.5999769,65.8599476 L41.5999769,39.4524941 L41.5999769,10.9990016 Z" id="矩形" fill="url(#linearGradient-7)"></path>
                            <ellipse id="椭圆形" fill="#E1E7FF" cx="75" cy="10.9990016" rx="33" ry="10"></ellipse>
                            <path d="M42,48.9990016 C42,54.5218491 56.326888,58.9990016 74,58.9990016 C91.673112,58.9990016 106,54.5218491 106,48.9990016" id="路径" stroke="#AEACEB" stroke-width="2" opacity="0.421526228"></path>
                            <path d="M42,72.9990016 C42,78.5218491 56.326888,82.9990016 74,82.9990016 C91.673112,82.9990016 106,78.5218491 106,72.9990016" id="路径" stroke="#AEACEB" stroke-width="2" opacity="0.421526228"></path>
                            <path d="M36,96.9990016 C36,102.521849 52.5654643,106.999002 73,106.999002 C93.4345357,106.999002 110,102.521849 110,96.9990016" id="路径" stroke="#AEACEB" stroke-width="2" opacity="0.421526228"></path>
                        </g>
                        <g id="编组-22" transform="translate(54.000000, 0.000000)">
                            <path d="M26.460902,98 C40.2118764,98 19.819388,66.6644124 51.3592436,56.9468964 C73.9007543,50.0017951 93.2496161,75.6817352 99.450994,59.7196929 C120.05186,6.69407566 152.151166,19.4223547 142.098797,9.19111212 C132.046428,-1.0401305 60.3514975,-4.93361032 26.460902,9.19111212 C6.18672593,17.6408636 0,41.5151636 0,50.0017951 C0,72.6747981 12.7099276,98 26.460902,98 Z" id="椭圆形" fill="#E0E8FF"></path>
                            <path d="M26.1569279,98 C39.7499356,98 19.5917094,70.6448739 50.7692456,62.1617434 C73.0518068,56.0988566 93.2534239,76.0961775 99.3835624,62.1617434 C119.747772,15.8718041 154.600469,12 133.390409,12 C126.837496,12 108.541781,41.8239126 92.5473605,49.1785667 C85.367599,52.4800095 71.08884,32.1225663 60.7095678,35.942769 C55.3160567,37.9279088 34.3797608,41.3258547 26.1569279,55.0682382 C19.9949567,65.3664131 0,50.6840594 0,56.0988566 C0,75.8917791 12.5639202,98 26.1569279,98 Z" id="椭圆形备份-7" fill="#D7DDF3"></path>
                        </g>
                    </g>
                    <g id="编组-13" opacity="0.733537946" transform="translate(20.000000, 317.000000)">
                        <polygon id="矩形" fill="url(#linearGradient-8)" points="78 1 78 270 0 270"></polygon>
                        <polygon id="矩形备份-11" fill="url(#linearGradient-9)" points="78.5442943 0 252 221.039529 113.757033 265.973538 78 270"></polygon>
                    </g>
                    <g id="编组-13备份" opacity="0.456287202" transform="translate(201.000000, 248.000000)">
                        <path d="M0.25890935,121.274772 C2.66644392,89.2119741 22.4935368,48.78705 59.740188,0 L65,221 L43.4072214,217.517379 C12.2341455,185.418439 -2.14862522,153.33757 0.25890935,121.274772 Z" id="矩形" fill="url(#linearGradient-10)"></path>
                        <polygon id="矩形备份-11" fill="url(#linearGradient-11)" points="60 0 162 90.7384369 143.92612 169.173357 60 223.001243"></polygon>
                    </g>
                    <ellipse id="椭圆形" fill="url(#linearGradient-12)" cx="471" cy="496" rx="471" ry="172"></ellipse>
                    <g id="编组" transform="translate(100.000000, 418.000000)" fill-rule="nonzero">
                        <polygon id="路径" fill="#B3CCFF" points="16 48 28 48 28 68 16 68"></polygon>
                        <polygon id="路径" fill="#A8C4FC" points="23.0004343 52 46 52 34.5006514 31.999564 23.0004343 12 11.5002171 31.999564 0 52"></polygon>
                        <polygon id="路径" fill="#B9D1FF" points="22 42 42 42 32 25 22 8 12 25 2 42"></polygon>
                        <polygon id="路径" fill="#CADDFD" points="23 30 40 30 31.5 14.9995694 23 0 14.5 14.9995694 6 30"></polygon>
                    </g>
                    <g id="编组备份-5" opacity="0.576892671" transform="translate(775.000000, 403.000000)" fill-rule="nonzero">
                        <polygon id="路径" fill="#B3CCFF" points="16 48 28 48 28 68 16 68"></polygon>
                        <polygon id="路径" fill="#A8C4FC" points="23.0004343 52 46 52 34.5006514 31.999564 23.0004343 12 11.5002171 31.999564 0 52"></polygon>
                        <polygon id="路径" fill="#B9D1FF" points="22 42 42 42 32 25 22 8 12 25 2 42"></polygon>
                        <polygon id="路径" fill="#CADDFD" points="23 30 40 30 31.5 14.9995694 23 0 14.5 14.9995694 6 30"></polygon>
                    </g>
                </g>
                <g id="编组" transform="translate(404.000000, 330.000000)">
                    <path d="M396,216 L396,144 L355.892727,144 C352.710073,130.705317 347.646291,117.932905 340.854545,106.069091 L368.738182,78.1690908 L317.830909,27.2618181 L290.52,54.5727273 C278.546385,47.3042559 265.566936,41.8400951 252,38.3563635 L252,0 L180,0 L180,38.3563635 C166.254545,41.8909089 153.327273,47.3890908 141.48,54.5727273 L114.169091,27.2618181 L63.2618181,78.1690908 L91.1454546,106.069091 C84.353709,117.932905 79.289927,130.705317 76.1072727,144 L36,144 L36,216 L77.3345454,216 C80.8854546,228.861818 86.1709089,240.987273 92.9454546,252.147273 L63.2618181,281.830909 L114.169091,332.738182 L144.441818,302.465455 C155.5891,308.858607 167.550397,313.713584 180,316.898182 L180,360 L252,360 L252,316.898182 C264.6,313.658182 276.545455,308.798182 287.558182,302.465455 L317.830909,332.738182 L368.738182,281.830909 L339.054545,252.147273 C345.901521,240.876406 351.155035,228.711823 354.665455,216 L396,216 Z M216,244.816363 C180.224257,244.771267 151.236063,215.775753 151.2,180 C151.236063,144.224247 180.224257,115.228733 216,115.183637 C251.775743,115.228733 280.763937,144.224247 280.8,180 C280.763937,215.775753 251.775743,244.771267 216,244.816363 Z" id="形状" fill="url(#linearGradient-13)" fill-rule="nonzero"></path>
                    <ellipse id="椭圆形备份-20" fill="#D2E0F9" opacity="0.517020089" filter="url(#filter-14)" cx="218" cy="371" rx="218" ry="43"></ellipse>
                    <path d="M394,219.2 L394,148.8 L354.784,148.8 C351.672071,135.800754 346.720818,123.312174 340.08,111.712 L367.344,84.4319999 L317.568,34.6559999 L290.864,61.36 C279.156465,54.2530502 266.465448,48.9103152 253.2,45.5039998 L253.2,8 L182.8,8 L182.8,45.5039998 C169.36,48.9599998 156.72,54.3359999 145.136,61.36 L118.432,34.6559999 L68.6559999,84.4319999 L95.9200001,111.712 C89.2791821,123.312174 84.3279286,135.800754 81.216,148.8 L42,148.8 L42,219.2 L82.4159999,219.2 C85.8880001,231.776 91.0559998,243.632 97.6800001,254.544 L68.6559999,283.568 L118.432,333.344 L148.032,303.744 C158.931564,309.995082 170.627055,314.742171 182.8,317.856 L182.8,360 L253.2,360 L253.2,317.856 C265.52,314.688 277.2,309.936 287.968,303.744 L317.568,333.344 L367.344,283.568 L338.32,254.544 C345.01482,243.523597 350.15159,231.629338 353.584,219.2 L394,219.2 Z M218,247.376 C183.019273,247.331906 154.675262,218.980737 154.64,184 C154.675262,149.019263 183.019273,120.668094 218,120.624 C252.980727,120.668094 281.324738,149.019263 281.36,184 C281.324738,218.980737 252.980727,247.331906 218,247.376 Z" id="形状备份" fill="url(#linearGradient-15)" fill-rule="nonzero"></path>
                </g>
                <g id="编组备份-2" transform="translate(591.500000, 591.000000) scale(-1, 1) translate(-591.500000, -591.000000) translate(544.000000, 474.000000)" fill-rule="nonzero">
                    <path d="M63.0566037,2 C60.3396227,3.54545452 58.4716981,4.87012986 57.2830189,6.1948052 C56.4339622,7.07792218 56.4339622,9.72727262 54.3962264,12.1558441 C53.716981,13.0389611 52.6981131,14.8051948 51.6792453,17.6753247 L51.6792453,18.3376622 C51.6792453,18.5584414 51.6792453,18.7792206 51.8490566,19.2207792 L52.8679246,19.2207792 C52.8679246,20.1038962 52.8679246,20.9870129 52.6981133,21.8701299 C52.528302,22.7532468 52.0188679,23.4155844 51.3396226,24.0779219 C51.1698113,25.4025973 51,26.2857143 51,26.9480518 C51,27.6103894 51.3396226,27.8311688 51.8490566,28.051948 L57.7924528,28.051948 L57.7924528,36 L66.9622641,36 L66.9622641,23.6363636 L69,8.62337646 L63.0566037,2 Z" id="路径" fill="#FFD2D2"></path>
                    <path d="M56.0199572,0.822784849 C56.3610205,-1.02848106 65.2286677,0.822784849 65.3991996,0.822784849 C72.2204666,0.822784849 73.7552518,4.52531647 74.6079101,6.74683548 C75.6311001,10.079114 74.6079101,14.7072786 72.049935,17.8544304 L67.9571747,26 C65.9107945,25.8148734 64.7170728,25.6297469 64.7170728,25.6297467 L64.7170728,22.6677215 L66.9339846,18.2246835 C66.9339846,17.1139239 65.9107945,16.3734175 64.034946,16.3734177 C61.8180342,16.3734177 67.2750479,9.7088607 63.523351,8.22784809 C59.7716542,6.74683548 55.6788939,2.67405056 56.0199572,0.822784849 L56.0199572,0.822784849 Z" id="路径" fill="#050237"></path>
                    <polygon id="路径" fill="#000000" points="0 44.6875 15.4411766 40 28 61.875 14.4117647 65"></polygon>
                    <path d="M6.83711208,54.5014671 L13.658645,51.4206456 L16.2167199,58.2424648 C20.4801779,69.2453989 23.0382528,74.5268073 23.8909445,74.5268071 C24.7436362,74.5268069 25.5963276,71.0058683 26.6621922,64.1840491 L39.8789121,72.5462791 L28.3675754,92.5716191 C25.1699819,94.772206 21.7592153,94.772206 18.1352761,92.5716191 L4.70538317,60.4430514 L3,60.0029342 L3.42634574,50.3203521 C3.42634574,49.4401173 4.06586434,49 5.13172891,49 C6.19759347,49 6.83711208,49.4401173 6.83711208,50.3203521 L6.83711208,54.5014671 L6.83711208,54.5014671 Z M75.0524412,63.3038143 C82.3003198,59.1226993 87.4164696,59.7828755 90.8272361,65.2843426 C94.4511756,71.4459856 93.5984839,90.1509737 87.8428153,121.839424 C84.005703,124.480128 81.4476281,124.700187 79.955418,122.4996 C78.2500349,119.858896 78.4632077,117.878368 81.0212826,116.117898 C82.0871472,116.117898 82.0871472,111.276607 81.0212826,101.373966 C85.0715678,89.2707387 83.1530117,76.5073351 75.0524412,63.3038143 Z" id="形状" fill="#FFD2D2"></path>
                    <path d="M75.241532,212.735158 C80.8117141,210.874101 83.3825674,212.528374 82.9540919,217.90476 C76.5269587,227.210045 73.5276299,231.759295 73.5276299,231.759295 C70.3140634,233.413568 67.9574478,233.413568 66.6720211,231.759295 C65.8150699,230.725375 64.5296433,229.691454 64.1011678,228.864318 C63.6726923,227.210045 64.743881,224.93542 64.743881,223.694715 C64.743881,222.247227 68.1716853,218.525113 75.241532,212.735158 L75.241532,212.735158 Z" id="路径" fill="#000000"></path>
                    <path d="M39.0737,183.287353 C39.9326601,188.271903 41.2211,203.905264 43.1537599,229.960866 C45.0864197,231.320289 46.8043398,232 48.7369997,232 C50.4549195,232 52.3875796,231.320289 54.5349794,229.960866 L54.5349794,162.669443 L57.7560794,140.012398 L60.3329592,140.012398 C59.6887393,154.739477 59.6887393,165.388288 60.3329592,171.50569 C60.977179,177.623092 62.265619,195.975299 63.7687992,226.335739 L69.3520389,226.335739 C71.499439,226.335739 73.2173588,225.882598 74.2910589,224.749746 L79,106 L38,110.78481 C38,154.059766 38.21474,178.302804 39.0737,183.287353 Z" id="路径" fill="#3484FE"></path>
                    <path d="M35.6382977,85.7133443 L25,70.7553468 C31.5957447,49.638174 39.2553191,37.9797349 47.9787232,36 L78.6170213,36 C89.0425533,49.1982329 94.3617022,59.7568195 95,67.6757591 L88.8297871,70.7553468 L79.255319,70.7553468 L79.255319,92.9723724 C79.255319,110.942421 77.7659573,114.783627 74.1489362,119.403009 C68.6170213,126.222096 53.2978724,123.80242 49.680851,122.482597 C46.0638297,121.162773 36.9148935,114.529487 36.9148935,114.089545 C36.9148935,113.869575 38.1914892,100.451371 40.7446807,74.2748757 L35.6382977,85.7133443 Z" id="路径" fill="#FFFFFF"></path>
                    <path d="M32.8190493,221.5583 C30.4506583,222.002646 28.512884,222.669166 27.4363426,223.113512 C25.7138765,223.780032 22.0536362,226.001764 22.0536362,228.667843 C22.0536362,231.333921 24.2067189,232.444788 25.7138765,232.889134 C26.5751097,233.33348 28.0822675,233.555653 30.0200418,234 L53.2733345,234 C53.4886427,233.111307 53.703951,232.000441 53.9192594,231.111748 C54.1345676,230.223055 53.9192594,229.112189 53.2733345,228.001323 C52.4121014,227.556977 51.7661767,226.890457 51.5508684,226.223938 C51.120252,225.335245 51.3355602,222.891339 51.3355602,222.891339 C45.9528536,220.447434 39.9242222,220.225261 32.8190493,221.5583 L32.8190493,221.5583 Z M18.8419545,64.7747395 L13.0286313,66.329952 L7,54.110425 L14.1051727,51 L21.8562701,64.1082197 L18.8419545,64.7747395 Z" id="形状" fill="#000000"></path>
                </g>
            </g>
        </g>
    </g>
</svg>